<svg width="2140" height="1002" viewBox="0 0 2140 1002" fill="none" xmlns="http://www.w3.org/2000/svg">
<path d="M1227.72 1206.17C1227.72 1206.17 1200.14 1253.8 1185.81 1278.56C1063.61 1489.6 748.618 1535.65 482.275 1381.43C215.932 1227.22 99.0931 931.12 221.289 720.081L263.202 647.695C408.06 496 1287.2 1005.04 1227.72 1206.17Z" fill="#D3F0FF" stroke="#7F42E1" stroke-width="22" stroke-linecap="round" stroke-linejoin="round"/>
<path d="M1227.72 1206.17C1349.92 995.13 1233.06 699.024 966.705 544.8C700.352 390.576 385.369 436.635 263.172 647.677C140.975 858.718 257.836 1154.82 524.189 1309.05C790.542 1463.27 1105.52 1417.21 1227.72 1206.17Z" fill="white" stroke="#7F42E1" stroke-width="22" stroke-linecap="round" stroke-linejoin="round"/>
<path d="M1155.98 1164.49C1257.15 989.764 1155.39 741.713 928.693 610.452C701.998 479.191 436.212 514.425 335.043 689.15C233.873 863.874 335.632 1111.92 562.327 1243.19C789.022 1374.45 1054.81 1339.21 1155.98 1164.49Z" fill="white" stroke="#7F42E1" stroke-width="22" stroke-linecap="round" stroke-linejoin="round"/>
<path d="M1151.63 1071.71L1065.3 990.865C960.701 892.904 1046.49 631.388 1256.87 406.755C1467.25 182.122 1722.59 79.3943 1827.19 177.355L1913.52 258.204C1901.47 380.774 1276.69 1065.93 1151.63 1071.71Z" fill="#D3F0FF" stroke="#7F42E1" stroke-width="22" stroke-linecap="round" stroke-linejoin="round"/>
<path d="M1151.63 1071.71C1256.21 1169.67 1511.55 1066.96 1721.94 842.315C1932.33 617.67 2018.1 356.156 1913.52 258.205C1808.93 160.254 1553.59 262.96 1343.2 487.604C1132.81 712.249 1047.04 973.764 1151.63 1071.71Z" fill="white" stroke="#7F42E1" stroke-width="22" stroke-linecap="round" stroke-linejoin="round"/>
<path d="M1205.47 1014.25C1281.69 1085.64 1489.8 987.267 1670.29 794.543C1850.79 601.819 1935.32 387.72 1859.1 316.339C1782.89 244.959 1574.78 343.327 1394.29 536.051C1213.79 728.775 1129.26 942.874 1205.47 1014.25Z" fill="white" stroke="#7F42E1" stroke-width="22" stroke-linecap="round" stroke-linejoin="round"/>
<path d="M1548.58 185.566L1634.91 266.415" stroke="#7F42E1" stroke-width="22" stroke-linecap="round" stroke-linejoin="round"/>
<path d="M1320.71 343.494L1407.04 424.343" stroke="#7F42E1" stroke-width="22" stroke-linecap="round" stroke-linejoin="round"/>
<path d="M1111.52 598.629L1197.87 679.503" stroke="#7F42E1" stroke-width="22" stroke-linecap="round" stroke-linejoin="round"/>
<path d="M1023.85 826.75L1110.17 907.599" stroke="#7F42E1" stroke-width="22" stroke-linecap="round" stroke-linejoin="round"/>
<path d="M2536.47 1341.59L2420.35 1425.77C2334.94 1487.69 2119.24 1335.88 1938.59 1086.7C1757.95 837.511 1680.72 585.318 1766.13 523.399L1878.92 441.633C1983.58 476.909 2511.69 1233.37 2536.45 1341.56L2536.47 1341.59Z" fill="#D3F0FF" stroke="#7F42E1" stroke-width="22" stroke-linecap="round" stroke-linejoin="round"/>
<path d="M1876.33 686.047L1763.54 767.813" stroke="#7F42E1" stroke-width="22" stroke-linecap="round" stroke-linejoin="round"/>
<path d="M1887.79 1012.44L2000.58 930.669" stroke="#7F42E1" stroke-width="22" stroke-linecap="round" stroke-linejoin="round"/>
<path d="M2533.11 1344.02C2618.53 1282.1 2541.33 1029.9 2360.68 780.706C2180.03 531.517 1964.34 379.709 1878.92 441.632C1793.51 503.556 1870.71 755.762 2051.36 1004.95C2232 1254.14 2447.69 1405.95 2533.11 1344.02Z" fill="white" stroke="#7F42E1" stroke-width="22" stroke-linecap="round" stroke-linejoin="round"/>
<path d="M2486.75 1280.37C2544.12 1238.78 2464.99 1031.76 2310.01 817.98C2155.03 604.199 1982.89 464.61 1925.52 506.2C1868.15 547.79 1947.28 754.809 2102.26 968.589C2257.24 1182.37 2429.38 1321.96 2486.75 1280.37Z" fill="white" stroke="#7F42E1" stroke-width="22" stroke-linecap="round" stroke-linejoin="round"/>
</svg>
