<svg xmlns="http://www.w3.org/2000/svg" width="2140" height="1002" fill="none" viewBox="0 0 2140 1002">
    <path fill="#d3f0ff" stroke="#7f42e1" stroke-linecap="round" stroke-linejoin="round" stroke-width="22" d="M1227.72 1206.17s-27.58 47.63-41.91 72.39c-122.2 211.04-437.192 257.09-703.535 102.87-266.343-154.21-383.182-450.31-260.986-661.349l41.913-72.386C408.06 496 1287.2 1005.04 1227.72 1206.17"/>
    <path fill="#fff" stroke="#7f42e1" stroke-linecap="round" stroke-linejoin="round" stroke-width="22" d="M1227.72 1206.17c122.2-211.04 5.34-507.146-261.015-661.37-266.353-154.224-581.336-108.165-703.533 102.877-122.197 211.041-5.336 507.143 261.017 661.373 266.353 154.22 581.331 108.16 703.531-102.88"/>
    <path fill="#fff" stroke="#7f42e1" stroke-linecap="round" stroke-linejoin="round" stroke-width="22" d="M1155.98 1164.49c101.17-174.726-.59-422.777-227.287-554.038-226.695-131.261-492.481-96.027-593.65 78.698-101.17 174.724.589 422.77 227.284 554.04 226.695 131.26 492.483 96.02 593.653-78.7"/>
    <path fill="#d3f0ff" stroke="#7f42e1" stroke-linecap="round" stroke-linejoin="round" stroke-width="22" d="m1151.63 1071.71-86.33-80.845c-104.599-97.961-18.81-359.477 191.57-584.11s465.72-327.36 570.32-229.4l86.33 80.849c-12.05 122.57-636.83 807.726-761.89 813.506"/>
    <path fill="#fff" stroke="#7f42e1" stroke-linecap="round" stroke-linejoin="round" stroke-width="22" d="M1151.63 1071.71c104.58 97.96 359.92-4.75 570.31-229.395s296.16-486.159 191.58-584.11c-104.59-97.951-359.93 4.755-570.32 229.399-210.39 224.645-296.16 486.16-191.57 584.106"/>
    <path fill="#fff" stroke="#7f42e1" stroke-linecap="round" stroke-linejoin="round" stroke-width="22" d="M1205.47 1014.25c76.22 71.39 284.33-26.983 464.82-219.707 180.5-192.724 265.03-406.823 188.81-478.204-76.21-71.38-284.32 26.988-464.81 219.712-180.5 192.724-265.03 406.823-188.82 478.199"/>
    <path stroke="#7f42e1" stroke-linecap="round" stroke-linejoin="round" stroke-width="22" d="m1548.58 185.566 86.33 80.849m-314.2 77.079 86.33 80.849m-295.52 174.286 86.35 80.874M1023.85 826.75l86.32 80.849"/>
    <path fill="#d3f0ff" stroke="#7f42e1" stroke-linecap="round" stroke-linejoin="round" stroke-width="22" d="m2536.47 1341.59-116.12 84.18c-85.41 61.92-301.11-89.89-481.76-339.07-180.64-249.189-257.87-501.382-172.46-563.301l112.79-81.766c104.66 35.276 632.77 791.737 657.53 899.927z"/>
    <path stroke="#7f42e1" stroke-linecap="round" stroke-linejoin="round" stroke-width="22" d="m1876.33 686.047-112.79 81.766m124.25 244.627 112.79-81.771"/>
    <path fill="#fff" stroke="#7f42e1" stroke-linecap="round" stroke-linejoin="round" stroke-width="22" d="M2533.11 1344.02c85.42-61.92 8.22-314.12-172.43-563.314-180.65-249.189-396.34-400.997-481.76-339.074-85.41 61.924-8.21 314.13 172.44 563.318 180.64 249.19 396.33 401 481.75 339.07"/>
    <path fill="#fff" stroke="#7f42e1" stroke-linecap="round" stroke-linejoin="round" stroke-width="22" d="M2486.75 1280.37c57.37-41.59-21.76-248.61-176.74-462.39-154.98-213.781-327.12-353.37-384.49-311.78s21.76 248.609 176.74 462.389c154.98 213.781 327.12 353.371 384.49 311.781"/>
</svg>
