<svg xmlns="http://www.w3.org/2000/svg" width="1503" height="1859" fill="none" viewBox="0 0 1503 1859">
    <path fill="#fff" stroke="#7f42e1" stroke-linecap="round" stroke-linejoin="round" stroke-width="22" d="M1751.41 953.913c-73.48 268.337-366.16 626.907-653.74 800.867-168.421 101.88-297.726 117.85-361.209 59.67-.242-.19-.462-.4-.667-.59l-264.476-242.52L1458.07 478.613l273.19 250.981c39.67 42.568 49.1 118.526 20.15 224.319"/>
    <path fill="#d3f0ff" stroke="#7f42e1" stroke-linecap="round" stroke-linejoin="round" stroke-width="22" d="M1484.98 709.614c-73.46 268.363-366.15 626.906-653.736 800.866-287.585 173.96-461.147 97.45-387.687-170.91S809.712 712.661 1097.3 538.701c287.58-173.959 461.16-97.427 387.68 170.913"/>
    <path fill="#fff" stroke="#7f42e1" stroke-linecap="round" stroke-linejoin="round" stroke-width="22" d="M1348.86 791.954c-54.26 198.201-270.41 463.016-482.803 591.486-212.391 128.48-340.583 71.95-286.34-126.23 54.266-198.2 270.413-463.013 482.803-591.488s340.58-71.954 286.34 126.232"/>
    <path fill="#fff" stroke="#7f42e1" stroke-linecap="round" stroke-linejoin="round" stroke-width="22" d="M1318.4 875.426c-82.17 183.794-268.67 396.914-452.368 508.024a751 751 0 0 1-16.631 9.79L728.35 1282.26l468.33-518.65z"/>
    <path fill="#d3f0ff" stroke="#7f42e1" stroke-linecap="round" stroke-linejoin="round" stroke-width="22" d="M1211.5 875.043c-34.87 127.387-173.85 297.647-310.362 380.227-136.516 82.58-218.95 46.28-184.067-81.15 34.882-127.42 173.845-297.648 310.359-380.227 136.52-82.578 218.95-46.276 184.07 81.15"/>
    <path fill="#fff" stroke="#7f42e1" stroke-linecap="round" stroke-linejoin="round" stroke-width="22" d="M1083.85 952.26c-16.88 61.62-84.103 143.97-150.132 183.91s-105.901 22.37-89.024-39.25c16.876-61.61 84.1-143.961 150.13-183.903 66.026-39.941 105.896-22.373 89.026 39.243"/>
    <path fill="#d3f0ff" stroke="#7f42e1" stroke-linecap="round" stroke-linejoin="round" stroke-width="22" d="m887.533 918.442 68.541 74.95c7.085 7.748 2.215 16.658-5.53 23.738-7.745 7.09-15.465 9.71-22.55 1.96l-68.541-74.952z"/>
    <path fill="#fff" stroke="#7f42e1" stroke-linecap="round" stroke-linejoin="round" stroke-width="22" d="M196.108 187.751c-5.764-103.11 27.746-175.769 83.26-176.742 90.354-1.586 217.952 202.342 200.007 453.302zm-1.377 1.263C92.583 174.116 17.239 201.038 11.347 256.248c-9.592 89.878 182.107 235.135 433.589 239.585zm636.017 560.549c13.192 14.44 128.625 165.449 73.748 215.686-57.408 52.531-194.991-78.207-208.203-92.643-13.192-14.44 6.199-53.667 43.322-87.645s77.926-49.814 91.118-35.374z"/>
    <path fill="#d3f0ff" stroke="#7f42e1" stroke-linecap="round" stroke-linejoin="round" stroke-width="22" d="M830.746 749.565c13.192 14.44-6.199 53.668-43.322 87.645s-77.926 49.814-91.118 35.374-502.139-642.565-481.428-661.503S817.554 735.125 830.766 749.56z"/>
    <path fill="#d3f0ff" stroke="#7f42e1" stroke-linecap="round" stroke-linejoin="round" stroke-width="22" d="M195.319 189.678c-60.821 30.301-112.267 76.397-87.25 159.527 25.865 85.875 210.968 193.415 351.616 162.803l-264.39-322.324z"/>
    <path fill="#d3f0ff" stroke="#7f42e1" stroke-linecap="round" stroke-linejoin="round" stroke-width="22" d="M195.318 189.678c35.564-57.911 86.049-105.069 166.591-72.748 83.229 33.386 175.527 208.811 145.477 351.418z"/>
</svg>
