<svg xmlns="http://www.w3.org/2000/svg" width="3267" height="807" fill="none" viewBox="0 0 3267 807">
    <path fill="#191919" d="M42.57 57.25v-8.37h22.5v21.6s-9.45 12.42-27 12.42c-18.72 0-33.12-14.4-33.12-32.4s14.4-32.4 33.12-32.4c17.1 0 25.65 12.33 25.65 12.33l-5.85 5.85s-6.3-9.9-19.8-9.9S13.95 37 13.95 50.5s10.62 24.03 24.12 24.03c11.88 0 18-7.2 18-7.2V57.25zM81.516 82V19h44.1v8.55h-35.1V45.1h27.9v8.55h-27.9v19.8h36V82zm70.059 0V27.55h-19.17V19h47.25v8.55h-19.08V82zm102.78 18.9 27-82.8h7.47l-27 82.8zm56.954-63c10.62 0 17.82 7.2 17.82 16.65V82h-8.37v-5.94h-.09s-4.59 6.84-13.86 6.84c-8.73 0-14.58-5.85-14.58-12.6 0-7.2 4.68-11.97 12.6-13.32l15.93-2.7v-.09c0-4.86-3.87-8.64-9.45-8.64-6.93 0-11.43 5.85-11.43 5.85l-5.4-5.4s5.85-8.1 16.83-8.1m-3.15 37.8c7.02 0 12.6-5.67 12.6-13.05v-1.62l-13.23 2.25c-4.5.81-7.02 3.42-7.02 6.3 0 3.33 2.79 6.12 7.65 6.12m57.107 7.2c-10.17 0-14.76-7.02-14.76-7.02h-.09v25.02h-8.28V38.8h8.28v6.12h.09s4.59-7.02 14.76-7.02c11.07 0 20.52 9.45 20.52 22.5s-9.45 22.5-20.52 22.5m-14.85-22.5c0 8.55 6.12 14.58 13.5 14.58 7.47 0 13.5-6.03 13.5-14.58s-6.03-14.67-13.5-14.67c-7.38 0-13.5 6.12-13.5 14.67M396.551 82V38.8h8.28V82zm-1.17-56.97c0-2.88 2.52-5.13 5.22-5.13s5.13 2.25 5.13 5.13c0 2.97-2.43 5.22-5.13 5.22s-5.22-2.25-5.22-5.22m16.474 75.87 27-82.8h7.47l-27 82.8zm58.214-18c-9.99 0-17.19-7.2-17.19-18.9V38.8h8.28V64c0 6.75 4.32 10.98 10.35 10.98 7.02 0 12.15-5.13 12.15-12.78V38.8h8.37V82h-8.37v-6.12h-.09s-4.59 7.02-13.5 7.02m30.967-7.92 5.4-5.58s4.23 5.85 11.25 5.85c5.4 0 8.1-2.7 8.1-5.67 0-7.83-22.95-4.23-22.95-19.35 0-6.48 5.85-12.33 15.3-12.33 10.08 0 15.03 5.85 15.03 5.85l-5.58 5.58s-3.42-3.78-9.45-3.78c-4.77 0-7.02 2.25-7.02 4.68 0 7.65 22.95 4.05 22.95 19.35 0 7.2-6.03 13.32-16.38 13.32-11.07 0-16.65-7.92-16.65-7.92m76.011-6.03 5.13 5.58s-5.85 8.37-18.18 8.37c-12.6 0-22.5-9.9-22.5-22.5s9.9-22.5 21.78-22.5c12.15 0 21.15 9 21.15 21.15 0 2.43-.45 4.23-.45 4.23h-33.75c.9 6.3 6.57 11.7 13.95 11.7 8.1 0 12.87-6.03 12.87-6.03m-26.82-12.87h25.65c-1.35-6.03-5.85-10.53-12.6-10.53-6.93 0-11.43 4.5-13.05 10.53m65.113-9.9c-6.75 0-12.15 5.4-12.15 13.32V82h-8.28V38.8h8.28v5.67h.18s4.41-6.57 13.32-6.57h2.07v8.73s-1.62-.45-3.42-.45m7.776 28.8 5.4-5.58s4.23 5.85 11.25 5.85c5.4 0 8.1-2.7 8.1-5.67 0-7.83-22.95-4.23-22.95-19.35 0-6.48 5.85-12.33 15.3-12.33 10.08 0 15.03 5.85 15.03 5.85l-5.58 5.58s-3.42-3.78-9.45-3.78c-4.77 0-7.02 2.25-7.02 4.68 0 7.65 22.95 4.05 22.95 19.35 0 7.2-6.03 13.32-16.38 13.32-11.07 0-16.65-7.92-16.65-7.92M9.27 181v-63h24.75c11.88 0 20.88 9 20.88 20.25s-9 20.25-20.88 20.25H18.27V181zm9-30.87h15.75c6.75 0 11.88-5.13 11.88-11.88s-5.13-11.97-11.88-11.97H18.27zm79.214 31.77c-18.72 0-33.12-14.4-33.12-32.4s14.4-32.4 33.12-32.4c18.63 0 33.03 14.4 33.03 32.4s-14.4 32.4-33.03 32.4m0-8.37c13.5 0 24.03-10.53 24.03-24.03s-10.53-24.12-24.03-24.12-24.12 10.62-24.12 24.12 10.62 24.03 24.12 24.03m40.925-1.08 6.03-6.12s5.22 7.2 16.2 7.2c8.55 0 13.05-4.5 13.05-9.9 0-14.58-33.48-5.85-33.48-28.98 0-9.27 7.83-17.55 21.15-17.55 12.78 0 19.53 8.1 19.53 8.1l-6.03 6.03s-4.77-5.85-13.5-5.85c-7.92 0-12.15 4.32-12.15 9.27 0 14.58 33.48 5.85 33.48 28.98 0 9.9-8.28 18.27-22.05 18.27-15.03 0-22.23-9.45-22.23-9.45m67.395 8.55v-54.45h-19.17V118h47.25v8.55h-19.08V181zm83.884 18.9 27-82.8h7.47l-27 82.8zm56.953-63c10.62 0 17.82 7.2 17.82 16.65V181h-8.37v-5.94h-.09s-4.59 6.84-13.86 6.84c-8.73 0-14.58-5.85-14.58-12.6 0-7.2 4.68-11.97 12.6-13.32l15.93-2.7v-.09c0-4.86-3.87-8.64-9.45-8.64-6.93 0-11.43 5.85-11.43 5.85l-5.4-5.4s5.85-8.1 16.83-8.1m-3.15 37.8c7.02 0 12.6-5.67 12.6-13.05v-1.62l-13.23 2.25c-4.5.81-7.02 3.42-7.02 6.3 0 3.33 2.79 6.12 7.65 6.12m57.107 7.2c-10.17 0-14.76-7.02-14.76-7.02h-.09v25.02h-8.28v-62.1h8.28v6.12h.09s4.59-7.02 14.76-7.02c11.07 0 20.52 9.45 20.52 22.5s-9.45 22.5-20.52 22.5m-14.85-22.5c0 8.55 6.12 14.58 13.5 14.58 7.47 0 13.5-6.03 13.5-14.58s-6.03-14.67-13.5-14.67c-7.38 0-13.5 6.12-13.5 14.67m46.135 21.6v-43.2h8.28V181zm-1.17-56.97c0-2.88 2.52-5.13 5.22-5.13s5.13 2.25 5.13 5.13c0 2.97-2.43 5.22-5.13 5.22s-5.22-2.25-5.22-5.22m16.475 75.87 27-82.8h7.47l-27 82.8zm58.213-18c-9.99 0-17.19-7.2-17.19-18.9v-25.2h8.28V163c0 6.75 4.32 10.98 10.35 10.98 7.02 0 12.15-5.13 12.15-12.78v-23.4h8.37V181h-8.37v-6.12h-.09s-4.59 7.02-13.5 7.02m30.967-7.92 5.4-5.58s4.23 5.85 11.25 5.85c5.4 0 8.1-2.7 8.1-5.67 0-7.83-22.95-4.23-22.95-19.35 0-6.48 5.85-12.33 15.3-12.33 10.08 0 15.03 5.85 15.03 5.85l-5.58 5.58s-3.42-3.78-9.45-3.78c-4.77 0-7.02 2.25-7.02 4.68 0 7.65 22.95 4.05 22.95 19.35 0 7.2-6.03 13.32-16.38 13.32-11.07 0-16.65-7.92-16.65-7.92m76.011-6.03 5.13 5.58s-5.85 8.37-18.18 8.37c-12.6 0-22.5-9.9-22.5-22.5s9.9-22.5 21.78-22.5c12.15 0 21.15 9 21.15 21.15 0 2.43-.45 4.23-.45 4.23h-33.75c.9 6.3 6.57 11.7 13.95 11.7 8.1 0 12.87-6.03 12.87-6.03m-26.82-12.87h25.65c-1.35-6.03-5.85-10.53-12.6-10.53-6.93 0-11.43 4.5-13.05 10.53m65.113-9.9c-6.75 0-12.15 5.4-12.15 13.32V181h-8.28v-43.2h8.28v5.67h.18s4.41-6.57 13.32-6.57h2.07v8.73s-1.62-.45-3.42-.45m7.776 28.8 5.4-5.58s4.23 5.85 11.25 5.85c5.4 0 8.1-2.7 8.1-5.67 0-7.83-22.95-4.23-22.95-19.35 0-6.48 5.85-12.33 15.3-12.33 10.08 0 15.03 5.85 15.03 5.85l-5.58 5.58s-3.42-3.78-9.45-3.78c-4.77 0-7.02 2.25-7.02 4.68 0 7.65 22.95 4.05 22.95 19.35 0 7.2-6.03 13.32-16.38 13.32-11.07 0-16.65-7.92-16.65-7.92M42.57 255.25v-8.37h22.5v21.6s-9.45 12.42-27 12.42c-18.72 0-33.12-14.4-33.12-32.4s14.4-32.4 33.12-32.4c17.1 0 25.65 12.33 25.65 12.33l-5.85 5.85s-6.3-9.9-19.8-9.9S13.95 235 13.95 248.5s10.62 24.03 24.12 24.03c11.88 0 18-7.2 18-7.2v-10.08zM81.516 280v-63h44.1v8.55h-35.1v17.55h27.9v8.55h-27.9v19.8h36V280zm70.059 0v-54.45h-19.17V217h47.25v8.55h-19.08V280zm102.78 18.9 27-82.8h7.47l-27 82.8zm56.954-63c10.62 0 17.82 7.2 17.82 16.65V280h-8.37v-5.94h-.09s-4.59 6.84-13.86 6.84c-8.73 0-14.58-5.85-14.58-12.6 0-7.2 4.68-11.97 12.6-13.32l15.93-2.7v-.09c0-4.86-3.87-8.64-9.45-8.64-6.93 0-11.43 5.85-11.43 5.85l-5.4-5.4s5.85-8.1 16.83-8.1m-3.15 37.8c7.02 0 12.6-5.67 12.6-13.05v-1.62l-13.23 2.25c-4.5.81-7.02 3.42-7.02 6.3 0 3.33 2.79 6.12 7.65 6.12m57.107 7.2c-10.17 0-14.76-7.02-14.76-7.02h-.09v25.02h-8.28v-62.1h8.28v6.12h.09s4.59-7.02 14.76-7.02c11.07 0 20.52 9.45 20.52 22.5s-9.45 22.5-20.52 22.5m-14.85-22.5c0 8.55 6.12 14.58 13.5 14.58 7.47 0 13.5-6.03 13.5-14.58s-6.03-14.67-13.5-14.67c-7.38 0-13.5 6.12-13.5 14.67m46.135 21.6v-43.2h8.28V280zm-1.17-56.97c0-2.88 2.52-5.13 5.22-5.13s5.13 2.25 5.13 5.13c0 2.97-2.43 5.22-5.13 5.22s-5.22-2.25-5.22-5.22m16.474 75.87 27-82.8h7.47l-27 82.8zm58.214-18c-9.99 0-17.19-7.2-17.19-18.9v-25.2h8.28V262c0 6.75 4.32 10.98 10.35 10.98 7.02 0 12.15-5.13 12.15-12.78v-23.4h8.37V280h-8.37v-6.12h-.09s-4.59 7.02-13.5 7.02m30.967-7.92 5.4-5.58s4.23 5.85 11.25 5.85c5.4 0 8.1-2.7 8.1-5.67 0-7.83-22.95-4.23-22.95-19.35 0-6.48 5.85-12.33 15.3-12.33 10.08 0 15.03 5.85 15.03 5.85l-5.58 5.58s-3.42-3.78-9.45-3.78c-4.77 0-7.02 2.25-7.02 4.68 0 7.65 22.95 4.05 22.95 19.35 0 7.2-6.03 13.32-16.38 13.32-11.07 0-16.65-7.92-16.65-7.92m76.011-6.03 5.13 5.58s-5.85 8.37-18.18 8.37c-12.6 0-22.5-9.9-22.5-22.5s9.9-22.5 21.78-22.5c12.15 0 21.15 9 21.15 21.15 0 2.43-.45 4.23-.45 4.23h-33.75c.9 6.3 6.57 11.7 13.95 11.7 8.1 0 12.87-6.03 12.87-6.03m-26.82-12.87h25.65c-1.35-6.03-5.85-10.53-12.6-10.53-6.93 0-11.43 4.5-13.05 10.53m65.113-9.9c-6.75 0-12.15 5.4-12.15 13.32V280h-8.28v-43.2h8.28v5.67h.18s4.41-6.57 13.32-6.57h2.07v8.73s-1.62-.45-3.42-.45m7.776 28.8 5.4-5.58s4.23 5.85 11.25 5.85c5.4 0 8.1-2.7 8.1-5.67 0-7.83-22.95-4.23-22.95-19.35 0-6.48 5.85-12.33 15.3-12.33 10.08 0 15.03 5.85 15.03 5.85l-5.58 5.58s-3.42-3.78-9.45-3.78c-4.77 0-7.02 2.25-7.02 4.68 0 7.65 22.95 4.05 22.95 19.35 0 7.2-6.03 13.32-16.38 13.32-11.07 0-16.65-7.92-16.65-7.92m36.591 25.92 27-82.8h7.47l-27 82.8zm63.703 0h-4.95c-8.55 0-13.95-5.4-13.95-13.05v-18.72c0-3.69-1.98-6.03-5.85-6.03h-1.08v-7.2h1.08c3.87 0 5.85-2.34 5.85-6.12v-18.63c0-7.65 5.4-13.05 13.95-13.05h4.95v7.83h-4.5c-4.05 0-6.3 2.34-6.3 5.85v18c0 8.01-5.67 9.63-5.67 9.63v.18s5.67 1.62 5.67 9.54v18.09c0 3.51 2.25 5.85 6.3 5.85h4.5zm9.499-18.9v-43.2h8.28V280zm-1.17-56.97c0-2.88 2.52-5.13 5.22-5.13s5.13 2.25 5.13 5.13c0 2.97-2.43 5.22-5.13 5.22s-5.22-2.25-5.22-5.22m40.774 12.87c10.17 0 14.76 7.02 14.76 7.02h.09V217h8.37v63h-8.37v-6.12h-.09s-4.68 7.02-14.76 7.02c-10.98 0-20.43-9.45-20.43-22.5s9.45-22.5 20.43-22.5m-12.15 22.5c0 8.55 6.12 14.58 13.5 14.58 7.47 0 13.5-6.03 13.5-14.58s-6.03-14.67-13.5-14.67c-7.38 0-13.5 6.12-13.5 14.67m45.762-42.3h4.95c8.55 0 13.95 5.4 13.95 13.05v18.63c0 3.78 1.98 6.12 5.85 6.12h1.08v7.2h-1.08c-3.87 0-5.85 2.34-5.85 6.03v18.72c0 7.65-5.4 13.05-13.95 13.05h-4.95v-7.83h4.5c4.05 0 6.3-2.34 6.3-5.85v-18.09c0-7.92 5.67-9.54 5.67-9.54v-.18s-5.67-1.62-5.67-9.63v-18c0-3.51-2.25-5.85-6.3-5.85h-4.5zM9.27 379v-63h20.7c18.45 0 32.85 14.4 32.85 31.5S48.42 379 29.97 379zm9-8.37h11.7c13.5 0 23.85-10.35 23.85-23.13 0-12.87-10.35-23.22-23.85-23.22h-11.7zM77.034 379v-63h44.1v8.55h-35.1v17.55h27.9v8.55h-27.9v19.8h36V379zm58.359 0v-63h9v54.45h31.05V379zm51.152 0v-63h44.1v8.55h-35.1v17.55h27.9v8.55h-27.9v19.8h36V379zm70.06 0v-54.45h-19.17V316h47.25v8.55h-19.08V379zm39.188 0v-63h44.1v8.55h-35.1v17.55h27.9v8.55h-27.9v19.8h36V379zm67.986 18.9 27-82.8h7.47l-27 82.8zm56.953-63c10.62 0 17.82 7.2 17.82 16.65V379h-8.37v-5.94h-.09s-4.59 6.84-13.86 6.84c-8.73 0-14.58-5.85-14.58-12.6 0-7.2 4.68-11.97 12.6-13.32l15.93-2.7v-.09c0-4.86-3.87-8.64-9.45-8.64-6.93 0-11.43 5.85-11.43 5.85l-5.4-5.4s5.85-8.1 16.83-8.1m-3.15 37.8c7.02 0 12.6-5.67 12.6-13.05v-1.62l-13.23 2.25c-4.5.81-7.02 3.42-7.02 6.3 0 3.33 2.79 6.12 7.65 6.12m57.108 7.2c-10.17 0-14.76-7.02-14.76-7.02h-.09v25.02h-8.28v-62.1h8.28v6.12h.09s4.59-7.02 14.76-7.02c11.07 0 20.52 9.45 20.52 22.5s-9.45 22.5-20.52 22.5m-14.85-22.5c0 8.55 6.12 14.58 13.5 14.58 7.47 0 13.5-6.03 13.5-14.58s-6.03-14.67-13.5-14.67c-7.38 0-13.5 6.12-13.5 14.67m46.135 21.6v-43.2h8.28V379zm-1.17-56.97c0-2.88 2.52-5.13 5.22-5.13s5.13 2.25 5.13 5.13c0 2.97-2.43 5.22-5.13 5.22s-5.22-2.25-5.22-5.22m16.474 75.87 27-82.8h7.47l-27 82.8zm58.213-18c-9.99 0-17.19-7.2-17.19-18.9v-25.2h8.28V361c0 6.75 4.32 10.98 10.35 10.98 7.02 0 12.15-5.13 12.15-12.78v-23.4h8.37V379h-8.37v-6.12h-.09s-4.59 7.02-13.5 7.02m30.967-7.92 5.4-5.58s4.23 5.85 11.25 5.85c5.4 0 8.1-2.7 8.1-5.67 0-7.83-22.95-4.23-22.95-19.35 0-6.48 5.85-12.33 15.3-12.33 10.08 0 15.03 5.85 15.03 5.85l-5.58 5.58s-3.42-3.78-9.45-3.78c-4.77 0-7.02 2.25-7.02 4.68 0 7.65 22.95 4.05 22.95 19.35 0 7.2-6.03 13.32-16.38 13.32-11.07 0-16.65-7.92-16.65-7.92m76.012-6.03 5.13 5.58s-5.85 8.37-18.18 8.37c-12.6 0-22.5-9.9-22.5-22.5s9.9-22.5 21.78-22.5c12.15 0 21.15 9 21.15 21.15 0 2.43-.45 4.23-.45 4.23h-33.75c.9 6.3 6.57 11.7 13.95 11.7 8.1 0 12.87-6.03 12.87-6.03m-26.82-12.87h25.65c-1.35-6.03-5.85-10.53-12.6-10.53-6.93 0-11.43 4.5-13.05 10.53m65.113-9.9c-6.75 0-12.15 5.4-12.15 13.32V379h-8.28v-43.2h8.28v5.67h.18s4.41-6.57 13.32-6.57h2.07v8.73s-1.62-.45-3.42-.45m7.776 28.8 5.4-5.58s4.23 5.85 11.25 5.85c5.4 0 8.1-2.7 8.1-5.67 0-7.83-22.95-4.23-22.95-19.35 0-6.48 5.85-12.33 15.3-12.33 10.08 0 15.03 5.85 15.03 5.85l-5.58 5.58s-3.42-3.78-9.45-3.78c-4.77 0-7.02 2.25-7.02 4.68 0 7.65 22.95 4.05 22.95 19.35 0 7.2-6.03 13.32-16.38 13.32-11.07 0-16.65-7.92-16.65-7.92m36.591 25.92 27-82.8h7.47l-27 82.8zm63.703 0h-4.95c-8.55 0-13.95-5.4-13.95-13.05v-18.72c0-3.69-1.98-6.03-5.85-6.03h-1.08v-7.2h1.08c3.87 0 5.85-2.34 5.85-6.12v-18.63c0-7.65 5.4-13.05 13.95-13.05h4.95v7.83h-4.5c-4.05 0-6.3 2.34-6.3 5.85v18c0 8.01-5.67 9.63-5.67 9.63v.18s5.67 1.62 5.67 9.54v18.09c0 3.51 2.25 5.85 6.3 5.85h4.5zm9.499-18.9v-43.2h8.28V379zm-1.17-56.97c0-2.88 2.52-5.13 5.22-5.13s5.13 2.25 5.13 5.13c0 2.97-2.43 5.22-5.13 5.22s-5.22-2.25-5.22-5.22m40.774 12.87c10.17 0 14.76 7.02 14.76 7.02h.09V316h8.37v63h-8.37v-6.12h-.09s-4.68 7.02-14.76 7.02c-10.98 0-20.43-9.45-20.43-22.5s9.45-22.5 20.43-22.5m-12.15 22.5c0 8.55 6.12 14.58 13.5 14.58 7.47 0 13.5-6.03 13.5-14.58s-6.03-14.67-13.5-14.67c-7.38 0-13.5 6.12-13.5 14.67m45.762-42.3h4.95c8.55 0 13.95 5.4 13.95 13.05v18.63c0 3.78 1.98 6.12 5.85 6.12h1.08v7.2h-1.08c-3.87 0-5.85 2.34-5.85 6.03v18.72c0 7.65-5.4 13.05-13.95 13.05h-4.95v-7.83h4.5c4.05 0 6.3-2.34 6.3-5.85v-18.09c0-7.92 5.67-9.54 5.67-9.54v-.18s-5.67-1.62-5.67-9.63v-18c0-3.51-2.25-5.85-6.3-5.85h-4.5zM1725.27 82V19h9v31.95L1763.7 19h11.52l-24.3 26.1L1777.2 82h-10.98l-21.42-30.42-10.53 11.52V82zm73.79-44.1c10.62 0 17.82 7.2 17.82 16.65V82h-8.37v-5.94h-.09s-4.59 6.84-13.86 6.84c-8.73 0-14.58-5.85-14.58-12.6 0-7.2 4.68-11.97 12.6-13.32l15.93-2.7v-.09c0-4.86-3.87-8.64-9.45-8.64-6.93 0-11.43 5.85-11.43 5.85l-5.4-5.4s5.85-8.1 16.83-8.1m-3.15 37.8c7.02 0 12.6-5.67 12.6-13.05v-1.62l-13.23 2.25c-4.5.81-7.02 3.42-7.02 6.3 0 3.33 2.79 6.12 7.65 6.12m27.67 6.3 18.18-25.65-16.65-17.55h10.35l16.92 18.18V38.8h8.28v18.18l16.92-18.18h10.35l-16.65 17.55L1889.46 82h-9.63l-13.95-19.8-5.22 5.58V82h-8.28V67.78l-5.22-5.58-13.95 19.8zm66.18 10.8V74.08h3.15s7.2-6.93 7.2-22.68V38.8h31.05v35.28h6.57V92.8h-8.37V82h-31.23v10.8zm11.97-18.72h21.15V46.63h-14.4v4.77c0 15.84-6.75 22.59-6.75 22.59zm60.45-36.18c10.62 0 17.82 7.2 17.82 16.65V82h-8.37v-5.94h-.09s-4.59 6.84-13.86 6.84c-8.73 0-14.58-5.85-14.58-12.6 0-7.2 4.68-11.97 12.6-13.32l15.93-2.7v-.09c0-4.86-3.87-8.64-9.45-8.64-6.93 0-11.43 5.85-11.43 5.85l-5.4-5.4s5.85-8.1 16.83-8.1m-3.15 37.8c7.02 0 12.6-5.67 12.6-13.05v-1.62l-13.23 2.25c-4.5.81-7.02 3.42-7.02 6.3 0 3.33 2.79 6.12 7.65 6.12m30.83 6.3 9.9-15.75s-8.55-2.97-8.55-13.05c0-8.1 6.3-14.4 16.38-14.4h19.17V82h-8.37V67.6h-10.35l-8.55 14.4zm17.73-22.05h10.8v-13.5h-10.8c-5.13 0-8.1 2.88-8.1 6.75 0 3.96 2.97 6.75 8.1 6.75m83.2 8.55 5.85 5.4s-6.48 9-18.45 9c-12.33 0-22.23-9.9-22.23-22.5s9.9-22.5 22.23-22.5c11.97 0 18 8.55 18 8.55l-5.85 5.58s-4.23-6.3-12.15-6.3c-7.65 0-13.95 6.3-13.95 14.67 0 8.28 6.3 14.58 13.95 14.58 7.92 0 12.6-6.48 12.6-6.48m25.33 13.5V46.63H2101V38.8h38.52v7.83h-15.12V82zm54.88.9c-10.17 0-14.76-7.02-14.76-7.02h-.09v25.02h-8.28V38.8h8.28v6.12h.09s4.59-7.02 14.76-7.02c11.07 0 20.52 9.45 20.52 22.5s-9.45 22.5-20.52 22.5m-14.85-22.5c0 8.55 6.12 14.58 13.5 14.58 7.47 0 13.5-6.03 13.5-14.58s-6.03-14.67-13.5-14.67c-7.38 0-13.5 6.12-13.5 14.67m65.22 22.5c-12.33 0-22.23-9.9-22.23-22.5s9.9-22.5 22.23-22.5c12.42 0 22.32 9.9 22.32 22.5s-9.9 22.5-22.32 22.5m0-7.92c7.92 0 13.95-6.03 13.95-14.58s-6.03-14.67-13.95-14.67c-7.83 0-13.95 6.12-13.95 14.67s6.12 14.58 13.95 14.58m58.98 7.02V65.98s-4.68 3.15-11.88 3.15c-9.45 0-16.2-6.75-16.2-17.73V38.8h8.28v12.6c0 6.03 3.87 9.9 9.45 9.9 6.57 0 10.35-3.42 10.35-3.42V38.8h8.37V82zm21.42 0V38.8h8.28v20.43l19.17-20.43h10.35l-16.65 17.55L2341.1 82h-9.63l-13.95-19.8-7.47 7.83V82zm61.19-44.1c10.62 0 17.82 7.2 17.82 16.65V82h-8.37v-5.94h-.09s-4.59 6.84-13.86 6.84c-8.73 0-14.58-5.85-14.58-12.6 0-7.2 4.68-11.97 12.6-13.32l15.93-2.7v-.09c0-4.86-3.87-8.64-9.45-8.64-6.93 0-11.43 5.85-11.43 5.85l-5.4-5.4s5.85-8.1 16.83-8.1m-3.15 37.8c7.02 0 12.6-5.67 12.6-13.05v-1.62l-13.23 2.25c-4.5.81-7.02 3.42-7.02 6.3 0 3.33 2.79 6.12 7.65 6.12m49.73-16.47v-7.2h58.68v7.2zm82.75 14.67 5.85-5.4s4.77 6.48 12.6 6.48c9.27 0 13.32-8.55 13.59-11.7h-20.07v-7.2h19.71c-.63-2.88-4.41-10.35-13.23-10.35-7.83 0-12.15 6.3-12.15 6.3l-5.85-5.58s6.12-8.55 18-8.55c12.42 0 22.32 9.9 22.32 22.5s-9.9 22.5-22.32 22.5c-11.88 0-18.45-9-18.45-9m60.56 8.1V46.63h-15.12V38.8h38.52v7.83h-15.12V82zm50.4.9c-12.33 0-22.23-9.9-22.23-22.5s9.9-22.5 22.23-22.5c12.42 0 22.32 9.9 22.32 22.5s-9.9 22.5-22.32 22.5m0-7.92c7.92 0 13.95-6.03 13.95-14.58s-6.03-14.67-13.95-14.67c-7.83 0-13.95 6.12-13.95 14.67s6.12 14.58 13.95 14.58m71.11 7.92c-12.33 0-22.23-9.9-22.23-22.5s9.9-22.5 22.23-22.5c12.42 0 22.32 9.9 22.32 22.5s-9.9 22.5-22.32 22.5m0-7.92c7.92 0 13.95-6.03 13.95-14.58s-6.03-14.67-13.95-14.67c-7.83 0-13.95 6.12-13.95 14.67s6.12 14.58 13.95 14.58M2716.5 82V46.63h-15.12V38.8h38.52v7.83h-15.12V82zm24.3 10.8V74.08h3.15s7.2-6.93 7.2-22.68V38.8h31.05v35.28h6.57V92.8h-8.37V82h-31.23v10.8zm11.97-18.72h21.15V46.63h-14.4v4.77c0 15.84-6.75 22.59-6.75 22.59zm77.38-5.13 5.13 5.58s-5.85 8.37-18.18 8.37c-12.6 0-22.5-9.9-22.5-22.5s9.9-22.5 21.78-22.5c12.15 0 21.15 9 21.15 21.15 0 2.43-.45 4.23-.45 4.23h-33.75c.9 6.3 6.57 11.7 13.95 11.7 8.1 0 12.87-6.03 12.87-6.03m-26.82-12.87h25.65c-1.35-6.03-5.85-10.53-12.6-10.53-6.93 0-11.43 4.5-13.05 10.53M2840.99 82v-8.1s1.8.63 3.42.63c4.95 0 8.1-3.15 8.1-23.13V38.8h32.85V82h-8.37V46.63h-16.2v4.77c0 25.38-6.03 31.5-14.58 31.5-2.97 0-5.22-.9-5.22-.9m57.38 0V38.8h8.28v13.5H2917c10.17 0 16.47 6.3 16.47 14.85S2927.17 82 2917 82zm8.28-7.65H2917c5.22 0 8.1-2.97 8.1-7.2 0-4.32-2.88-7.2-8.1-7.2h-10.35zm36.72 7.65V38.8h8.28v17.55h22.05V38.8h8.37V82h-8.37V63.73h-22.05V82zm51.77 0V38.8h8.28v13.5h9.45c10.17 0 16.47 6.3 16.47 14.85S3023.04 82 3012.87 82zm8.28-7.65h9.45c5.22 0 8.1-2.97 8.1-7.2 0-4.32-2.88-7.2-8.1-7.2h-9.45zm32.67 7.65V38.8h8.28V82zm28.83 0h-7.38V38.8h8.28v29.52h.18l23.22-29.52h7.47V82h-8.37V52.48h-.18zm-.63-63h6.3c0 3.78 2.7 6.48 6.57 6.48 3.78 0 6.48-2.7 6.48-6.48h6.3c0 7.2-5.4 12.6-12.78 12.6-7.47 0-12.87-5.4-12.87-12.6m43.21 58.23c0-3.15 2.7-5.58 5.58-5.58 2.97 0 5.67 2.43 5.67 5.58s-2.7 5.67-5.67 5.67c-2.88 0-5.58-2.52-5.58-5.67m21.6 0c0-3.15 2.7-5.58 5.58-5.58 2.97 0 5.67 2.43 5.67 5.58s-2.7 5.67-5.67 5.67c-2.88 0-5.58-2.52-5.58-5.67m21.6 0c0-3.15 2.7-5.58 5.58-5.58 2.97 0 5.67 2.43 5.67 5.58s-2.7 5.67-5.67 5.67c-2.88 0-5.58-2.52-5.58-5.67M1749.75 181v-16.02s-4.68 3.15-11.88 3.15c-9.45 0-16.2-6.75-16.2-17.73v-12.6h8.28v12.6c0 6.03 3.87 9.9 9.45 9.9 6.57 0 10.35-3.42 10.35-3.42V137.8h8.37V181zm31.77 0v-35.37h-15.12v-7.83h38.52v7.83h-15.12V181zm50.4.9c-12.33 0-22.23-9.9-22.23-22.5s9.9-22.5 22.23-22.5c12.42 0 22.32 9.9 22.32 22.5s-9.9 22.5-22.32 22.5m0-7.92c7.92 0 13.95-6.03 13.95-14.58s-6.03-14.67-13.95-14.67c-7.83 0-13.95 6.12-13.95 14.67s6.12 14.58 13.95 14.58m43.03 2.25c0-3.15 2.7-5.58 5.58-5.58 2.97 0 5.67 2.43 5.67 5.58s-2.7 5.67-5.67 5.67c-2.88 0-5.58-2.52-5.58-5.67m9.9-11.88h-8.55s-.45-1.8-.45-4.05c0-13.5 17.28-14.22 17.28-25.47 0-5.13-4.23-9.45-11.43-9.45-10.8 0-13.32 9.27-13.32 9.27l-7.38-2.97s3.6-14.58 20.7-14.58c12.33 0 20.43 8.1 20.43 17.1 0 17.1-17.28 15.75-17.28 29.25zM1725.27 379v-63h9v27h32.13v-27h9v63h-9v-27.72h-32.13V379zm98.79-13.05 5.13 5.58s-5.85 8.37-18.18 8.37c-12.6 0-22.5-9.9-22.5-22.5s9.9-22.5 21.78-22.5c12.15 0 21.15 9 21.15 21.15 0 2.43-.45 4.23-.45 4.23h-33.75c.9 6.3 6.57 11.7 13.95 11.7 8.1 0 12.87-6.03 12.87-6.03m-26.82-12.87h25.65c-1.35-6.03-5.85-10.53-12.6-10.53-6.93 0-11.43 4.5-13.05 10.53m44.69 25.92v-43.2h8.28v20.43l19.17-20.43h10.35l-16.65 17.55 18.18 25.65h-9.63l-13.95-19.8-7.47 7.83V379zm64.79.9c-12.33 0-22.23-9.9-22.23-22.5s9.9-22.5 22.23-22.5c12.42 0 22.32 9.9 22.32 22.5s-9.9 22.5-22.32 22.5m0-7.92c7.92 0 13.95-6.03 13.95-14.58s-6.03-14.67-13.95-14.67c-7.83 0-13.95 6.12-13.95 14.67s6.12 14.58 13.95 14.58m42.15 7.02v-35.37h-15.12v-7.83h38.52v7.83h-15.12V379zm50.4.9c-12.33 0-22.23-9.9-22.23-22.5s9.9-22.5 22.23-22.5c12.42 0 22.32 9.9 22.32 22.5s-9.9 22.5-22.32 22.5m0-7.92c7.92 0 13.95-6.03 13.95-14.58s-6.03-14.67-13.95-14.67c-7.83 0-13.95 6.12-13.95 14.67s6.12 14.58 13.95 14.58m55.81 7.92c-10.17 0-14.76-7.02-14.76-7.02h-.09v25.02h-8.28v-62.1h8.28v6.12h.09s4.59-7.02 14.76-7.02c11.07 0 20.52 9.45 20.52 22.5s-9.45 22.5-20.52 22.5m-14.85-22.5c0 8.55 6.12 14.58 13.5 14.58 7.47 0 13.5-6.03 13.5-14.58s-6.03-14.67-13.5-14.67c-7.38 0-13.5 6.12-13.5 14.67m45.68 21.6v-43.2h8.28v13.5h9.45c10.17 0 16.47 6.3 16.47 14.85s-6.3 14.85-16.47 14.85zm8.28-7.65h9.45c5.22 0 8.1-2.97 8.1-7.2 0-4.32-2.88-7.2-8.1-7.2h-9.45zm32.67 7.65v-43.2h8.28V379zm54.3-13.05 5.13 5.58s-5.85 8.37-18.18 8.37c-12.6 0-22.5-9.9-22.5-22.5s9.9-22.5 21.78-22.5c12.15 0 21.15 9 21.15 21.15 0 2.43-.45 4.23-.45 4.23h-33.75c.9 6.3 6.57 11.7 13.95 11.7 8.1 0 12.87-6.03 12.87-6.03m-26.82-12.87h25.65c-1.35-6.03-5.85-10.53-12.6-10.53-6.93 0-11.43 4.5-13.05 10.53m63.58 25.92v-43.2h8.28v17.55h22.05V335.8h8.37V379h-8.37v-18.27h-22.05V379zm67.7-44.1c10.62 0 17.82 7.2 17.82 16.65V379h-8.37v-5.94h-.09s-4.59 6.84-13.86 6.84c-8.73 0-14.58-5.85-14.58-12.6 0-7.2 4.68-11.97 12.6-13.32l15.93-2.7v-.09c0-4.86-3.87-8.64-9.45-8.64-6.93 0-11.43 5.85-11.43 5.85l-5.4-5.4s5.85-8.1 16.83-8.1m-3.15 37.8c7.02 0 12.6-5.67 12.6-13.05v-1.62l-13.23 2.25c-4.5.81-7.02 3.42-7.02 6.3 0 3.33 2.79 6.12 7.65 6.12m46.22 7.2c-11.61 0-17.19-7.65-17.19-7.65l5.4-5.4s4.23 5.4 11.7 5.4c5.58 0 8.28-2.7 8.28-6.12 0-3.15-2.7-5.85-8.28-5.85h-5.67v-7.38h5.4c4.77 0 7.2-2.61 7.2-5.22 0-2.88-2.25-5.13-7.2-5.13-6.48 0-10.53 3.87-10.53 3.87l-5.4-5.4s5.4-6.12 15.93-6.12c9.99 0 15.75 5.85 15.75 12.15 0 7.29-6.75 9.36-6.75 9.36v.09s8.37 2.16 8.37 10.35c0 6.75-6.3 13.05-17.01 13.05m27.4-.9v-43.2h8.28v13.5h9.45c10.17 0 16.47 6.3 16.47 14.85s-6.3 14.85-16.47 14.85zm8.28-7.65h9.45c5.22 0 8.1-2.97 8.1-7.2 0-4.32-2.88-7.2-8.1-7.2h-9.45zm32.67 7.65v-43.2h8.28V379zm57.45-12.6c0 6.93-5.67 12.6-15.03 12.6h-20.97v-43.2h19.98c8.82 0 14.22 5.4 14.22 11.7 0 6.21-5.22 8.46-5.22 8.46v.18s7.02 2.16 7.02 10.26m-8.82-.9c0-3.6-2.43-5.85-6.48-5.85h-12.42v11.7h12.42c4.05 0 6.48-2.25 6.48-5.85m-1.8-17.37c0-2.88-1.98-4.68-5.58-4.68h-11.52v9.45h11.52c3.6 0 5.58-1.8 5.58-4.77m36.87-13.23c10.62 0 17.82 7.2 17.82 16.65V379h-8.37v-5.94h-.09s-4.59 6.84-13.86 6.84c-8.73 0-14.58-5.85-14.58-12.6 0-7.2 4.68-11.97 12.6-13.32l15.93-2.7v-.09c0-4.86-3.87-8.64-9.45-8.64-6.93 0-11.43 5.85-11.43 5.85l-5.4-5.4s5.85-8.1 16.83-8.1m-3.15 37.8c7.02 0 12.6-5.67 12.6-13.05v-1.62l-13.23 2.25c-4.5.81-7.02 3.42-7.02 6.3 0 3.33 2.79 6.12 7.65 6.12m33.97 6.3v-43.2h8.28v17.55h8.91c1.71-10.8 9.9-18.45 21.51-18.45 12.33 0 21.78 9.45 21.78 22.5s-9.45 22.5-21.78 22.5c-11.7 0-20.16-8.01-21.51-19.17h-8.91V379zm38.7-7.02c7.65 0 13.5-5.85 13.5-14.58 0-8.82-5.85-14.67-13.5-14.67s-13.5 5.85-13.5 14.67c0 8.73 5.85 14.58 13.5 14.58m41.7 7.02v-35.37h-15.12v-7.83h38.52v7.83h-15.12V379zm44.12-8.1 5.85-5.4s4.77 6.48 12.6 6.48c9.27 0 13.32-8.55 13.59-11.7h-20.07v-7.2h19.71c-.63-2.88-4.41-10.35-13.23-10.35-7.83 0-12.15 6.3-12.15 6.3l-5.85-5.58s6.12-8.55 18-8.55c12.42 0 22.32 9.9 22.32 22.5s-9.9 22.5-22.32 22.5c-11.88 0-18.45-9-18.45-9m60.56 8.1v-35.37h-15.12v-7.83h38.52v7.83h-15.12V379zm50.4.9c-12.33 0-22.23-9.9-22.23-22.5s9.9-22.5 22.23-22.5c12.42 0 22.32 9.9 22.32 22.5s-9.9 22.5-22.32 22.5m0-7.92c7.92 0 13.95-6.03 13.95-14.58s-6.03-14.67-13.95-14.67c-7.83 0-13.95 6.12-13.95 14.67s6.12 14.58 13.95 14.58m59.4.72-10.8-15.3 10.8-15.3h8.82l-10.8 15.3 10.8 15.3zm17.82 0-10.8-15.3 10.8-15.3h8.73l-10.8 15.3 10.8 15.3zm42.05 7.2c-10.17 0-14.76-7.02-14.76-7.02h-.09v25.02h-8.28v-62.1h8.28v6.12h.09s4.59-7.02 14.76-7.02c11.07 0 20.52 9.45 20.52 22.5s-9.45 22.5-20.52 22.5m-14.85-22.5c0 8.55 6.12 14.58 13.5 14.58 7.47 0 13.5-6.03 13.5-14.58s-6.03-14.67-13.5-14.67c-7.38 0-13.5 6.12-13.5 14.67m49.28 40.5c-3.87 0-6.57-1.08-6.57-1.08v-7.92s2.25 1.17 5.22 1.17c3.78 0 6.3-2.25 7.83-6.12l2.07-4.95-17.55-43.2h9l12.51 32.4h.18l12.51-32.4h9l-19.17 48.6c-3.6 9.09-8.1 13.5-15.03 13.5m69.02-18.9v-16.02s-4.68 3.15-11.88 3.15c-9.45 0-16.2-6.75-16.2-17.73v-12.6h8.28v12.6c0 6.03 3.87 9.9 9.45 9.9 6.57 0 10.35-3.42 10.35-3.42V335.8h8.37V379zm21.42 0v-43.2h8.28v20.43l19.17-20.43h10.35l-16.65 17.55 18.18 25.65h-9.63l-13.95-19.8-7.47 7.83V379zm61.2-44.1c10.62 0 17.82 7.2 17.82 16.65V379h-8.37v-5.94h-.09s-4.59 6.84-13.86 6.84c-8.73 0-14.58-5.85-14.58-12.6 0-7.2 4.68-11.97 12.6-13.32l15.93-2.7v-.09c0-4.86-3.87-8.64-9.45-8.64-6.93 0-11.43 5.85-11.43 5.85l-5.4-5.4s5.85-8.1 16.83-8.1m-3.15 37.8c7.02 0 12.6-5.67 12.6-13.05v-1.62l-13.23 2.25c-4.5.81-7.02 3.42-7.02 6.3 0 3.33 2.79 6.12 7.65 6.12m33.97 6.3v-43.2h6.93l15.75 19.53 15.75-19.53h7.02V379h-8.37v-29.52l-14.4 17.82-14.4-17.82V379zm65.92 0h-7.38v-43.2h8.28v29.52h.18l23.22-29.52h7.47V379h-8.37v-29.52h-.18zm41.86-6.3 10.8-15.3-10.8-15.3h8.82l10.8 15.3-10.8 15.3zm17.82 0 10.8-15.3-10.8-15.3h8.73l10.8 15.3-10.8 15.3zm27.46 1.53c0-3.15 2.7-5.58 5.58-5.58 2.97 0 5.67 2.43 5.67 5.58s-2.7 5.67-5.67 5.67c-2.88 0-5.58-2.52-5.58-5.67"/>
</svg>
