<svg width="3267" height="807" viewBox="0 0 3267 807" fill="none" xmlns="http://www.w3.org/2000/svg">
<path d="M42.57 57.25V48.88H65.07V70.48C65.07 70.48 55.62 82.9 38.07 82.9C19.35 82.9 4.95 68.5 4.95 50.5C4.95 32.5 19.35 18.1 38.07 18.1C55.17 18.1 63.72 30.43 63.72 30.43L57.87 36.28C57.87 36.28 51.57 26.38 38.07 26.38C24.57 26.38 13.95 37 13.95 50.5C13.95 64 24.57 74.53 38.07 74.53C49.95 74.53 56.07 67.33 56.07 67.33V57.25H42.57ZM81.5161 82V19H125.616V27.55H90.5161V45.1H118.416V53.65H90.5161V73.45H126.516V82H81.5161ZM151.575 82V27.55H132.405V19H179.655V27.55H160.575V82H151.575ZM254.355 100.9L281.355 18.1H288.825L261.825 100.9H254.355ZM311.309 37.9C321.929 37.9 329.129 45.1 329.129 54.55V82H320.759V76.06H320.669C320.669 76.06 316.079 82.9 306.809 82.9C298.079 82.9 292.229 77.05 292.229 70.3C292.229 63.1 296.909 58.33 304.829 56.98L320.759 54.28V54.19C320.759 49.33 316.889 45.55 311.309 45.55C304.379 45.55 299.879 51.4 299.879 51.4L294.479 46C294.479 46 300.329 37.9 311.309 37.9ZM308.159 75.7C315.179 75.7 320.759 70.03 320.759 62.65V61.03L307.529 63.28C303.029 64.09 300.509 66.7 300.509 69.58C300.509 72.91 303.299 75.7 308.159 75.7ZM365.266 82.9C355.096 82.9 350.506 75.88 350.506 75.88H350.416V100.9H342.136V38.8H350.416V44.92H350.506C350.506 44.92 355.096 37.9 365.266 37.9C376.336 37.9 385.786 47.35 385.786 60.4C385.786 73.45 376.336 82.9 365.266 82.9ZM350.416 60.4C350.416 68.95 356.536 74.98 363.916 74.98C371.386 74.98 377.416 68.95 377.416 60.4C377.416 51.85 371.386 45.73 363.916 45.73C356.536 45.73 350.416 51.85 350.416 60.4ZM396.551 82V38.8H404.831V82H396.551ZM395.381 25.03C395.381 22.15 397.901 19.9 400.601 19.9C403.301 19.9 405.731 22.15 405.731 25.03C405.731 28 403.301 30.25 400.601 30.25C397.901 30.25 395.381 28 395.381 25.03ZM411.855 100.9L438.855 18.1H446.325L419.325 100.9H411.855ZM470.069 82.9C460.079 82.9 452.879 75.7 452.879 64V38.8H461.159V64C461.159 70.75 465.479 74.98 471.509 74.98C478.529 74.98 483.659 69.85 483.659 62.2V38.8H492.029V82H483.659V75.88H483.569C483.569 75.88 478.979 82.9 470.069 82.9ZM501.036 74.98L506.436 69.4C506.436 69.4 510.666 75.25 517.686 75.25C523.086 75.25 525.786 72.55 525.786 69.58C525.786 61.75 502.836 65.35 502.836 50.23C502.836 43.75 508.686 37.9 518.136 37.9C528.216 37.9 533.166 43.75 533.166 43.75L527.586 49.33C527.586 49.33 524.166 45.55 518.136 45.55C513.366 45.55 511.116 47.8 511.116 50.23C511.116 57.88 534.066 54.28 534.066 69.58C534.066 76.78 528.036 82.9 517.686 82.9C506.616 82.9 501.036 74.98 501.036 74.98ZM577.047 68.95L582.177 74.53C582.177 74.53 576.327 82.9 563.997 82.9C551.397 82.9 541.497 73 541.497 60.4C541.497 47.8 551.397 37.9 563.277 37.9C575.427 37.9 584.427 46.9 584.427 59.05C584.427 61.48 583.977 63.28 583.977 63.28H550.227C551.127 69.58 556.797 74.98 564.177 74.98C572.277 74.98 577.047 68.95 577.047 68.95ZM550.227 56.08H575.877C574.527 50.05 570.027 45.55 563.277 45.55C556.347 45.55 551.847 50.05 550.227 56.08ZM615.34 46.18C608.59 46.18 603.19 51.58 603.19 59.5V82H594.91V38.8H603.19V44.47H603.37C603.37 44.47 607.78 37.9 616.69 37.9H618.76V46.63C618.76 46.63 617.14 46.18 615.34 46.18ZM623.116 74.98L628.516 69.4C628.516 69.4 632.746 75.25 639.766 75.25C645.166 75.25 647.866 72.55 647.866 69.58C647.866 61.75 624.916 65.35 624.916 50.23C624.916 43.75 630.766 37.9 640.216 37.9C650.296 37.9 655.246 43.75 655.246 43.75L649.666 49.33C649.666 49.33 646.246 45.55 640.216 45.55C635.446 45.55 633.196 47.8 633.196 50.23C633.196 57.88 656.146 54.28 656.146 69.58C656.146 76.78 650.116 82.9 639.766 82.9C628.696 82.9 623.116 74.98 623.116 74.98ZM9.27 181V118H34.02C45.9 118 54.9 127 54.9 138.25C54.9 149.5 45.9 158.5 34.02 158.5H18.27V181H9.27ZM18.27 150.13H34.02C40.77 150.13 45.9 145 45.9 138.25C45.9 131.5 40.77 126.28 34.02 126.28H18.27V150.13ZM97.4841 181.9C78.7641 181.9 64.3641 167.5 64.3641 149.5C64.3641 131.5 78.7641 117.1 97.4841 117.1C116.114 117.1 130.514 131.5 130.514 149.5C130.514 167.5 116.114 181.9 97.4841 181.9ZM97.4841 173.53C110.984 173.53 121.514 163 121.514 149.5C121.514 136 110.984 125.38 97.4841 125.38C83.9841 125.38 73.3641 136 73.3641 149.5C73.3641 163 83.9841 173.53 97.4841 173.53ZM138.409 172.45L144.439 166.33C144.439 166.33 149.659 173.53 160.639 173.53C169.189 173.53 173.689 169.03 173.689 163.63C173.689 149.05 140.209 157.78 140.209 134.65C140.209 125.38 148.039 117.1 161.359 117.1C174.139 117.1 180.889 125.2 180.889 125.2L174.859 131.23C174.859 131.23 170.089 125.38 161.359 125.38C153.439 125.38 149.209 129.7 149.209 134.65C149.209 149.23 182.689 140.5 182.689 163.63C182.689 173.53 174.409 181.9 160.639 181.9C145.609 181.9 138.409 172.45 138.409 172.45ZM205.804 181V126.55H186.634V118H233.884V126.55H214.804V181H205.804ZM289.688 199.9L316.688 117.1H324.158L297.158 199.9H289.688ZM346.641 136.9C357.261 136.9 364.461 144.1 364.461 153.55V181H356.091V175.06H356.001C356.001 175.06 351.411 181.9 342.141 181.9C333.411 181.9 327.561 176.05 327.561 169.3C327.561 162.1 332.241 157.33 340.161 155.98L356.091 153.28V153.19C356.091 148.33 352.221 144.55 346.641 144.55C339.711 144.55 335.211 150.4 335.211 150.4L329.811 145C329.811 145 335.661 136.9 346.641 136.9ZM343.491 174.7C350.511 174.7 356.091 169.03 356.091 161.65V160.03L342.861 162.28C338.361 163.09 335.841 165.7 335.841 168.58C335.841 171.91 338.631 174.7 343.491 174.7ZM400.598 181.9C390.428 181.9 385.838 174.88 385.838 174.88H385.748V199.9H377.468V137.8H385.748V143.92H385.838C385.838 143.92 390.428 136.9 400.598 136.9C411.668 136.9 421.118 146.35 421.118 159.4C421.118 172.45 411.668 181.9 400.598 181.9ZM385.748 159.4C385.748 167.95 391.868 173.98 399.248 173.98C406.718 173.98 412.748 167.95 412.748 159.4C412.748 150.85 406.718 144.73 399.248 144.73C391.868 144.73 385.748 150.85 385.748 159.4ZM431.883 181V137.8H440.163V181H431.883ZM430.713 124.03C430.713 121.15 433.233 118.9 435.933 118.9C438.633 118.9 441.063 121.15 441.063 124.03C441.063 127 438.633 129.25 435.933 129.25C433.233 129.25 430.713 127 430.713 124.03ZM447.188 199.9L474.188 117.1H481.658L454.658 199.9H447.188ZM505.401 181.9C495.411 181.9 488.211 174.7 488.211 163V137.8H496.491V163C496.491 169.75 500.811 173.98 506.841 173.98C513.861 173.98 518.991 168.85 518.991 161.2V137.8H527.361V181H518.991V174.88H518.901C518.901 174.88 514.311 181.9 505.401 181.9ZM536.368 173.98L541.768 168.4C541.768 168.4 545.998 174.25 553.018 174.25C558.418 174.25 561.118 171.55 561.118 168.58C561.118 160.75 538.168 164.35 538.168 149.23C538.168 142.75 544.018 136.9 553.468 136.9C563.548 136.9 568.498 142.75 568.498 142.75L562.918 148.33C562.918 148.33 559.498 144.55 553.468 144.55C548.698 144.55 546.448 146.8 546.448 149.23C546.448 156.88 569.398 153.28 569.398 168.58C569.398 175.78 563.368 181.9 553.018 181.9C541.948 181.9 536.368 173.98 536.368 173.98ZM612.379 167.95L617.509 173.53C617.509 173.53 611.659 181.9 599.329 181.9C586.729 181.9 576.829 172 576.829 159.4C576.829 146.8 586.729 136.9 598.609 136.9C610.759 136.9 619.759 145.9 619.759 158.05C619.759 160.48 619.309 162.28 619.309 162.28H585.559C586.459 168.58 592.129 173.98 599.509 173.98C607.609 173.98 612.379 167.95 612.379 167.95ZM585.559 155.08H611.209C609.859 149.05 605.359 144.55 598.609 144.55C591.679 144.55 587.179 149.05 585.559 155.08ZM650.672 145.18C643.922 145.18 638.522 150.58 638.522 158.5V181H630.242V137.8H638.522V143.47H638.702C638.702 143.47 643.112 136.9 652.022 136.9H654.092V145.63C654.092 145.63 652.472 145.18 650.672 145.18ZM658.448 173.98L663.848 168.4C663.848 168.4 668.078 174.25 675.098 174.25C680.498 174.25 683.198 171.55 683.198 168.58C683.198 160.75 660.248 164.35 660.248 149.23C660.248 142.75 666.098 136.9 675.548 136.9C685.628 136.9 690.578 142.75 690.578 142.75L684.998 148.33C684.998 148.33 681.578 144.55 675.548 144.55C670.778 144.55 668.528 146.8 668.528 149.23C668.528 156.88 691.478 153.28 691.478 168.58C691.478 175.78 685.448 181.9 675.098 181.9C664.028 181.9 658.448 173.98 658.448 173.98ZM42.57 255.25V246.88H65.07V268.48C65.07 268.48 55.62 280.9 38.07 280.9C19.35 280.9 4.95 266.5 4.95 248.5C4.95 230.5 19.35 216.1 38.07 216.1C55.17 216.1 63.72 228.43 63.72 228.43L57.87 234.28C57.87 234.28 51.57 224.38 38.07 224.38C24.57 224.38 13.95 235 13.95 248.5C13.95 262 24.57 272.53 38.07 272.53C49.95 272.53 56.07 265.33 56.07 265.33V255.25H42.57ZM81.5161 280V217H125.616V225.55H90.5161V243.1H118.416V251.65H90.5161V271.45H126.516V280H81.5161ZM151.575 280V225.55H132.405V217H179.655V225.55H160.575V280H151.575ZM254.355 298.9L281.355 216.1H288.825L261.825 298.9H254.355ZM311.309 235.9C321.929 235.9 329.129 243.1 329.129 252.55V280H320.759V274.06H320.669C320.669 274.06 316.079 280.9 306.809 280.9C298.079 280.9 292.229 275.05 292.229 268.3C292.229 261.1 296.909 256.33 304.829 254.98L320.759 252.28V252.19C320.759 247.33 316.889 243.55 311.309 243.55C304.379 243.55 299.879 249.4 299.879 249.4L294.479 244C294.479 244 300.329 235.9 311.309 235.9ZM308.159 273.7C315.179 273.7 320.759 268.03 320.759 260.65V259.03L307.529 261.28C303.029 262.09 300.509 264.7 300.509 267.58C300.509 270.91 303.299 273.7 308.159 273.7ZM365.266 280.9C355.096 280.9 350.506 273.88 350.506 273.88H350.416V298.9H342.136V236.8H350.416V242.92H350.506C350.506 242.92 355.096 235.9 365.266 235.9C376.336 235.9 385.786 245.35 385.786 258.4C385.786 271.45 376.336 280.9 365.266 280.9ZM350.416 258.4C350.416 266.95 356.536 272.98 363.916 272.98C371.386 272.98 377.416 266.95 377.416 258.4C377.416 249.85 371.386 243.73 363.916 243.73C356.536 243.73 350.416 249.85 350.416 258.4ZM396.551 280V236.8H404.831V280H396.551ZM395.381 223.03C395.381 220.15 397.901 217.9 400.601 217.9C403.301 217.9 405.731 220.15 405.731 223.03C405.731 226 403.301 228.25 400.601 228.25C397.901 228.25 395.381 226 395.381 223.03ZM411.855 298.9L438.855 216.1H446.325L419.325 298.9H411.855ZM470.069 280.9C460.079 280.9 452.879 273.7 452.879 262V236.8H461.159V262C461.159 268.75 465.479 272.98 471.509 272.98C478.529 272.98 483.659 267.85 483.659 260.2V236.8H492.029V280H483.659V273.88H483.569C483.569 273.88 478.979 280.9 470.069 280.9ZM501.036 272.98L506.436 267.4C506.436 267.4 510.666 273.25 517.686 273.25C523.086 273.25 525.786 270.55 525.786 267.58C525.786 259.75 502.836 263.35 502.836 248.23C502.836 241.75 508.686 235.9 518.136 235.9C528.216 235.9 533.166 241.75 533.166 241.75L527.586 247.33C527.586 247.33 524.166 243.55 518.136 243.55C513.366 243.55 511.116 245.8 511.116 248.23C511.116 255.88 534.066 252.28 534.066 267.58C534.066 274.78 528.036 280.9 517.686 280.9C506.616 280.9 501.036 272.98 501.036 272.98ZM577.047 266.95L582.177 272.53C582.177 272.53 576.327 280.9 563.997 280.9C551.397 280.9 541.497 271 541.497 258.4C541.497 245.8 551.397 235.9 563.277 235.9C575.427 235.9 584.427 244.9 584.427 257.05C584.427 259.48 583.977 261.28 583.977 261.28H550.227C551.127 267.58 556.797 272.98 564.177 272.98C572.277 272.98 577.047 266.95 577.047 266.95ZM550.227 254.08H575.877C574.527 248.05 570.027 243.55 563.277 243.55C556.347 243.55 551.847 248.05 550.227 254.08ZM615.34 244.18C608.59 244.18 603.19 249.58 603.19 257.5V280H594.91V236.8H603.19V242.47H603.37C603.37 242.47 607.78 235.9 616.69 235.9H618.76V244.63C618.76 244.63 617.14 244.18 615.34 244.18ZM623.116 272.98L628.516 267.4C628.516 267.4 632.746 273.25 639.766 273.25C645.166 273.25 647.866 270.55 647.866 267.58C647.866 259.75 624.916 263.35 624.916 248.23C624.916 241.75 630.766 235.9 640.216 235.9C650.296 235.9 655.246 241.75 655.246 241.75L649.666 247.33C649.666 247.33 646.246 243.55 640.216 243.55C635.446 243.55 633.196 245.8 633.196 248.23C633.196 255.88 656.146 252.28 656.146 267.58C656.146 274.78 650.116 280.9 639.766 280.9C628.696 280.9 623.116 272.98 623.116 272.98ZM659.707 298.9L686.707 216.1H694.177L667.177 298.9H659.707ZM723.41 298.9H718.46C709.91 298.9 704.51 293.5 704.51 285.85V267.13C704.51 263.44 702.53 261.1 698.66 261.1H697.58V253.9H698.66C702.53 253.9 704.51 251.56 704.51 247.78V229.15C704.51 221.5 709.91 216.1 718.46 216.1H723.41V223.93H718.91C714.86 223.93 712.61 226.27 712.61 229.78V247.78C712.61 255.79 706.94 257.41 706.94 257.41V257.59C706.94 257.59 712.61 259.21 712.61 267.13V285.22C712.61 288.73 714.86 291.07 718.91 291.07H723.41V298.9ZM732.909 280V236.8H741.189V280H732.909ZM731.739 223.03C731.739 220.15 734.259 217.9 736.959 217.9C739.659 217.9 742.089 220.15 742.089 223.03C742.089 226 739.659 228.25 736.959 228.25C734.259 228.25 731.739 226 731.739 223.03ZM772.513 235.9C782.683 235.9 787.273 242.92 787.273 242.92H787.363V217H795.733V280H787.363V273.88H787.273C787.273 273.88 782.593 280.9 772.513 280.9C761.533 280.9 752.083 271.45 752.083 258.4C752.083 245.35 761.533 235.9 772.513 235.9ZM760.363 258.4C760.363 266.95 766.483 272.98 773.863 272.98C781.333 272.98 787.363 266.95 787.363 258.4C787.363 249.85 781.333 243.73 773.863 243.73C766.483 243.73 760.363 249.85 760.363 258.4ZM806.125 216.1H811.075C819.625 216.1 825.025 221.5 825.025 229.15V247.78C825.025 251.56 827.005 253.9 830.875 253.9H831.955V261.1H830.875C827.005 261.1 825.025 263.44 825.025 267.13V285.85C825.025 293.5 819.625 298.9 811.075 298.9H806.125V291.07H810.625C814.675 291.07 816.925 288.73 816.925 285.22V267.13C816.925 259.21 822.595 257.59 822.595 257.59V257.41C822.595 257.41 816.925 255.79 816.925 247.78V229.78C816.925 226.27 814.675 223.93 810.625 223.93H806.125V216.1ZM9.27 379V316H29.97C48.42 316 62.82 330.4 62.82 347.5C62.82 364.6 48.42 379 29.97 379H9.27ZM18.27 370.63H29.97C43.47 370.63 53.82 360.28 53.82 347.5C53.82 334.63 43.47 324.28 29.97 324.28H18.27V370.63ZM77.0337 379V316H121.134V324.55H86.0337V342.1H113.934V350.65H86.0337V370.45H122.034V379H77.0337ZM135.393 379V316H144.393V370.45H175.443V379H135.393ZM186.545 379V316H230.645V324.55H195.545V342.1H223.445V350.65H195.545V370.45H231.545V379H186.545ZM256.605 379V324.55H237.435V316H284.685V324.55H265.605V379H256.605ZM295.793 379V316H339.893V324.55H304.793V342.1H332.693V350.65H304.793V370.45H340.793V379H295.793ZM363.779 397.9L390.779 315.1H398.249L371.249 397.9H363.779ZM420.732 334.9C431.352 334.9 438.552 342.1 438.552 351.55V379H430.182V373.06H430.092C430.092 373.06 425.502 379.9 416.232 379.9C407.502 379.9 401.652 374.05 401.652 367.3C401.652 360.1 406.332 355.33 414.252 353.98L430.182 351.28V351.19C430.182 346.33 426.312 342.55 420.732 342.55C413.802 342.55 409.302 348.4 409.302 348.4L403.902 343C403.902 343 409.752 334.9 420.732 334.9ZM417.582 372.7C424.602 372.7 430.182 367.03 430.182 359.65V358.03L416.952 360.28C412.452 361.09 409.932 363.7 409.932 366.58C409.932 369.91 412.722 372.7 417.582 372.7ZM474.69 379.9C464.52 379.9 459.93 372.88 459.93 372.88H459.84V397.9H451.56V335.8H459.84V341.92H459.93C459.93 341.92 464.52 334.9 474.69 334.9C485.76 334.9 495.21 344.35 495.21 357.4C495.21 370.45 485.76 379.9 474.69 379.9ZM459.84 357.4C459.84 365.95 465.96 371.98 473.34 371.98C480.81 371.98 486.84 365.95 486.84 357.4C486.84 348.85 480.81 342.73 473.34 342.73C465.96 342.73 459.84 348.85 459.84 357.4ZM505.975 379V335.8H514.255V379H505.975ZM504.805 322.03C504.805 319.15 507.325 316.9 510.025 316.9C512.725 316.9 515.155 319.15 515.155 322.03C515.155 325 512.725 327.25 510.025 327.25C507.325 327.25 504.805 325 504.805 322.03ZM521.279 397.9L548.279 315.1H555.749L528.749 397.9H521.279ZM579.492 379.9C569.502 379.9 562.302 372.7 562.302 361V335.8H570.582V361C570.582 367.75 574.902 371.98 580.932 371.98C587.952 371.98 593.082 366.85 593.082 359.2V335.8H601.452V379H593.082V372.88H592.992C592.992 372.88 588.402 379.9 579.492 379.9ZM610.459 371.98L615.859 366.4C615.859 366.4 620.089 372.25 627.109 372.25C632.509 372.25 635.209 369.55 635.209 366.58C635.209 358.75 612.259 362.35 612.259 347.23C612.259 340.75 618.109 334.9 627.559 334.9C637.639 334.9 642.589 340.75 642.589 340.75L637.009 346.33C637.009 346.33 633.589 342.55 627.559 342.55C622.789 342.55 620.539 344.8 620.539 347.23C620.539 354.88 643.489 351.28 643.489 366.58C643.489 373.78 637.459 379.9 627.109 379.9C616.039 379.9 610.459 371.98 610.459 371.98ZM686.471 365.95L691.601 371.53C691.601 371.53 685.751 379.9 673.421 379.9C660.821 379.9 650.921 370 650.921 357.4C650.921 344.8 660.821 334.9 672.701 334.9C684.851 334.9 693.851 343.9 693.851 356.05C693.851 358.48 693.401 360.28 693.401 360.28H659.651C660.551 366.58 666.221 371.98 673.601 371.98C681.701 371.98 686.471 365.95 686.471 365.95ZM659.651 353.08H685.301C683.951 347.05 679.451 342.55 672.701 342.55C665.771 342.55 661.271 347.05 659.651 353.08ZM724.764 343.18C718.014 343.18 712.614 348.58 712.614 356.5V379H704.334V335.8H712.614V341.47H712.794C712.794 341.47 717.204 334.9 726.114 334.9H728.184V343.63C728.184 343.63 726.564 343.18 724.764 343.18ZM732.54 371.98L737.94 366.4C737.94 366.4 742.17 372.25 749.19 372.25C754.59 372.25 757.29 369.55 757.29 366.58C757.29 358.75 734.34 362.35 734.34 347.23C734.34 340.75 740.19 334.9 749.64 334.9C759.72 334.9 764.67 340.75 764.67 340.75L759.09 346.33C759.09 346.33 755.67 342.55 749.64 342.55C744.87 342.55 742.62 344.8 742.62 347.23C742.62 354.88 765.57 351.28 765.57 366.58C765.57 373.78 759.54 379.9 749.19 379.9C738.12 379.9 732.54 371.98 732.54 371.98ZM769.131 397.9L796.131 315.1H803.601L776.601 397.9H769.131ZM832.834 397.9H827.884C819.334 397.9 813.934 392.5 813.934 384.85V366.13C813.934 362.44 811.954 360.1 808.084 360.1H807.004V352.9H808.084C811.954 352.9 813.934 350.56 813.934 346.78V328.15C813.934 320.5 819.334 315.1 827.884 315.1H832.834V322.93H828.334C824.284 322.93 822.034 325.27 822.034 328.78V346.78C822.034 354.79 816.364 356.41 816.364 356.41V356.59C816.364 356.59 822.034 358.21 822.034 366.13V384.22C822.034 387.73 824.284 390.07 828.334 390.07H832.834V397.9ZM842.333 379V335.8H850.613V379H842.333ZM841.163 322.03C841.163 319.15 843.683 316.9 846.383 316.9C849.083 316.9 851.513 319.15 851.513 322.03C851.513 325 849.083 327.25 846.383 327.25C843.683 327.25 841.163 325 841.163 322.03ZM881.937 334.9C892.107 334.9 896.697 341.92 896.697 341.92H896.787V316H905.157V379H896.787V372.88H896.697C896.697 372.88 892.017 379.9 881.937 379.9C870.957 379.9 861.507 370.45 861.507 357.4C861.507 344.35 870.957 334.9 881.937 334.9ZM869.787 357.4C869.787 365.95 875.907 371.98 883.287 371.98C890.757 371.98 896.787 365.95 896.787 357.4C896.787 348.85 890.757 342.73 883.287 342.73C875.907 342.73 869.787 348.85 869.787 357.4ZM915.549 315.1H920.499C929.049 315.1 934.449 320.5 934.449 328.15V346.78C934.449 350.56 936.429 352.9 940.299 352.9H941.379V360.1H940.299C936.429 360.1 934.449 362.44 934.449 366.13V384.85C934.449 392.5 929.049 397.9 920.499 397.9H915.549V390.07H920.049C924.099 390.07 926.349 387.73 926.349 384.22V366.13C926.349 358.21 932.019 356.59 932.019 356.59V356.41C932.019 356.41 926.349 354.79 926.349 346.78V328.78C926.349 325.27 924.099 322.93 920.049 322.93H915.549V315.1Z" fill="#191919"/>
<path d="M1725.27 82V19H1734.27V50.95L1763.7 19H1775.22L1750.92 45.1L1777.2 82H1766.22L1744.8 51.58L1734.27 63.1V82H1725.27ZM1799.06 37.9C1809.68 37.9 1816.88 45.1 1816.88 54.55V82H1808.51V76.06H1808.42C1808.42 76.06 1803.83 82.9 1794.56 82.9C1785.83 82.9 1779.98 77.05 1779.98 70.3C1779.98 63.1 1784.66 58.33 1792.58 56.98L1808.51 54.28V54.19C1808.51 49.33 1804.64 45.55 1799.06 45.55C1792.13 45.55 1787.63 51.4 1787.63 51.4L1782.23 46C1782.23 46 1788.08 37.9 1799.06 37.9ZM1795.91 75.7C1802.93 75.7 1808.51 70.03 1808.51 62.65V61.03L1795.28 63.28C1790.78 64.09 1788.26 66.7 1788.26 69.58C1788.26 72.91 1791.05 75.7 1795.91 75.7ZM1823.58 82L1841.76 56.35L1825.11 38.8H1835.46L1852.38 56.98V38.8H1860.66V56.98L1877.58 38.8H1887.93L1871.28 56.35L1889.46 82H1879.83L1865.88 62.2L1860.66 67.78V82H1852.38V67.78L1847.16 62.2L1833.21 82H1823.58ZM1889.76 92.8V74.08H1892.91C1892.91 74.08 1900.11 67.15 1900.11 51.4V38.8H1931.16V74.08H1937.73V92.8H1929.36V82H1898.13V92.8H1889.76ZM1901.73 74.08H1922.88V46.63H1908.48V51.4C1908.48 67.24 1901.73 73.99 1901.73 73.99V74.08ZM1962.18 37.9C1972.8 37.9 1980 45.1 1980 54.55V82H1971.63V76.06H1971.54C1971.54 76.06 1966.95 82.9 1957.68 82.9C1948.95 82.9 1943.1 77.05 1943.1 70.3C1943.1 63.1 1947.78 58.33 1955.7 56.98L1971.63 54.28V54.19C1971.63 49.33 1967.76 45.55 1962.18 45.55C1955.25 45.55 1950.75 51.4 1950.75 51.4L1945.35 46C1945.35 46 1951.2 37.9 1962.18 37.9ZM1959.03 75.7C1966.05 75.7 1971.63 70.03 1971.63 62.65V61.03L1958.4 63.28C1953.9 64.09 1951.38 66.7 1951.38 69.58C1951.38 72.91 1954.17 75.7 1959.03 75.7ZM1989.86 82L1999.76 66.25C1999.76 66.25 1991.21 63.28 1991.21 53.2C1991.21 45.1 1997.51 38.8 2007.59 38.8H2026.76V82H2018.39V67.6H2008.04L1999.49 82H1989.86ZM2007.59 59.95H2018.39V46.45H2007.59C2002.46 46.45 1999.49 49.33 1999.49 53.2C1999.49 57.16 2002.46 59.95 2007.59 59.95ZM2090.79 68.5L2096.64 73.9C2096.64 73.9 2090.16 82.9 2078.19 82.9C2065.86 82.9 2055.96 73 2055.96 60.4C2055.96 47.8 2065.86 37.9 2078.19 37.9C2090.16 37.9 2096.19 46.45 2096.19 46.45L2090.34 52.03C2090.34 52.03 2086.11 45.73 2078.19 45.73C2070.54 45.73 2064.24 52.03 2064.24 60.4C2064.24 68.68 2070.54 74.98 2078.19 74.98C2086.11 74.98 2090.79 68.5 2090.79 68.5ZM2116.12 82V46.63H2101V38.8H2139.52V46.63H2124.4V82H2116.12ZM2171 82.9C2160.83 82.9 2156.24 75.88 2156.24 75.88H2156.15V100.9H2147.87V38.8H2156.15V44.92H2156.24C2156.24 44.92 2160.83 37.9 2171 37.9C2182.07 37.9 2191.52 47.35 2191.52 60.4C2191.52 73.45 2182.07 82.9 2171 82.9ZM2156.15 60.4C2156.15 68.95 2162.27 74.98 2169.65 74.98C2177.12 74.98 2183.15 68.95 2183.15 60.4C2183.15 51.85 2177.12 45.73 2169.65 45.73C2162.27 45.73 2156.15 51.85 2156.15 60.4ZM2221.37 82.9C2209.04 82.9 2199.14 73 2199.14 60.4C2199.14 47.8 2209.04 37.9 2221.37 37.9C2233.79 37.9 2243.69 47.8 2243.69 60.4C2243.69 73 2233.79 82.9 2221.37 82.9ZM2221.37 74.98C2229.29 74.98 2235.32 68.95 2235.32 60.4C2235.32 51.85 2229.29 45.73 2221.37 45.73C2213.54 45.73 2207.42 51.85 2207.42 60.4C2207.42 68.95 2213.54 74.98 2221.37 74.98ZM2280.35 82V65.98C2280.35 65.98 2275.67 69.13 2268.47 69.13C2259.02 69.13 2252.27 62.38 2252.27 51.4V38.8H2260.55V51.4C2260.55 57.43 2264.42 61.3 2270 61.3C2276.57 61.3 2280.35 57.88 2280.35 57.88V38.8H2288.72V82H2280.35ZM2301.77 82V38.8H2310.05V59.23L2329.22 38.8H2339.57L2322.92 56.35L2341.1 82H2331.47L2317.52 62.2L2310.05 70.03V82H2301.77ZM2362.96 37.9C2373.58 37.9 2380.78 45.1 2380.78 54.55V82H2372.41V76.06H2372.32C2372.32 76.06 2367.73 82.9 2358.46 82.9C2349.73 82.9 2343.88 77.05 2343.88 70.3C2343.88 63.1 2348.56 58.33 2356.48 56.98L2372.41 54.28V54.19C2372.41 49.33 2368.54 45.55 2362.96 45.55C2356.03 45.55 2351.53 51.4 2351.53 51.4L2346.13 46C2346.13 46 2351.98 37.9 2362.96 37.9ZM2359.81 75.7C2366.83 75.7 2372.41 70.03 2372.41 62.65V61.03L2359.18 63.28C2354.68 64.09 2352.16 66.7 2352.16 69.58C2352.16 72.91 2354.95 75.7 2359.81 75.7ZM2409.54 59.23V52.03H2468.22V59.23H2409.54ZM2492.29 73.9L2498.14 68.5C2498.14 68.5 2502.91 74.98 2510.74 74.98C2520.01 74.98 2524.06 66.43 2524.33 63.28H2504.26V56.08H2523.97C2523.34 53.2 2519.56 45.73 2510.74 45.73C2502.91 45.73 2498.59 52.03 2498.59 52.03L2492.74 46.45C2492.74 46.45 2498.86 37.9 2510.74 37.9C2523.16 37.9 2533.06 47.8 2533.06 60.4C2533.06 73 2523.16 82.9 2510.74 82.9C2498.86 82.9 2492.29 73.9 2492.29 73.9ZM2552.85 82V46.63H2537.73V38.8H2576.25V46.63H2561.13V82H2552.85ZM2603.25 82.9C2590.92 82.9 2581.02 73 2581.02 60.4C2581.02 47.8 2590.92 37.9 2603.25 37.9C2615.67 37.9 2625.57 47.8 2625.57 60.4C2625.57 73 2615.67 82.9 2603.25 82.9ZM2603.25 74.98C2611.17 74.98 2617.2 68.95 2617.2 60.4C2617.2 51.85 2611.17 45.73 2603.25 45.73C2595.42 45.73 2589.3 51.85 2589.3 60.4C2589.3 68.95 2595.42 74.98 2603.25 74.98ZM2674.36 82.9C2662.03 82.9 2652.13 73 2652.13 60.4C2652.13 47.8 2662.03 37.9 2674.36 37.9C2686.78 37.9 2696.68 47.8 2696.68 60.4C2696.68 73 2686.78 82.9 2674.36 82.9ZM2674.36 74.98C2682.28 74.98 2688.31 68.95 2688.31 60.4C2688.31 51.85 2682.28 45.73 2674.36 45.73C2666.53 45.73 2660.41 51.85 2660.41 60.4C2660.41 68.95 2666.53 74.98 2674.36 74.98ZM2716.5 82V46.63H2701.38V38.8H2739.9V46.63H2724.78V82H2716.5ZM2740.8 92.8V74.08H2743.95C2743.95 74.08 2751.15 67.15 2751.15 51.4V38.8H2782.2V74.08H2788.77V92.8H2780.4V82H2749.17V92.8H2740.8ZM2752.77 74.08H2773.92V46.63H2759.52V51.4C2759.52 67.24 2752.77 73.99 2752.77 73.99V74.08ZM2830.15 68.95L2835.28 74.53C2835.28 74.53 2829.43 82.9 2817.1 82.9C2804.5 82.9 2794.6 73 2794.6 60.4C2794.6 47.8 2804.5 37.9 2816.38 37.9C2828.53 37.9 2837.53 46.9 2837.53 59.05C2837.53 61.48 2837.08 63.28 2837.08 63.28H2803.33C2804.23 69.58 2809.9 74.98 2817.28 74.98C2825.38 74.98 2830.15 68.95 2830.15 68.95ZM2803.33 56.08H2828.98C2827.63 50.05 2823.13 45.55 2816.38 45.55C2809.45 45.55 2804.95 50.05 2803.33 56.08ZM2840.99 82V73.9C2840.99 73.9 2842.79 74.53 2844.41 74.53C2849.36 74.53 2852.51 71.38 2852.51 51.4V38.8H2885.36V82H2876.99V46.63H2860.79V51.4C2860.79 76.78 2854.76 82.9 2846.21 82.9C2843.24 82.9 2840.99 82 2840.99 82ZM2898.37 82V38.8H2906.65V52.3H2917C2927.17 52.3 2933.47 58.6 2933.47 67.15C2933.47 75.7 2927.17 82 2917 82H2898.37ZM2906.65 74.35H2917C2922.22 74.35 2925.1 71.38 2925.1 67.15C2925.1 62.83 2922.22 59.95 2917 59.95H2906.65V74.35ZM2943.37 82V38.8H2951.65V56.35H2973.7V38.8H2982.07V82H2973.7V63.73H2951.65V82H2943.37ZM2995.14 82V38.8H3003.42V52.3H3012.87C3023.04 52.3 3029.34 58.6 3029.34 67.15C3029.34 75.7 3023.04 82 3012.87 82H2995.14ZM3003.42 74.35H3012.87C3018.09 74.35 3020.97 71.38 3020.97 67.15C3020.97 62.83 3018.09 59.95 3012.87 59.95H3003.42V74.35ZM3036.09 82V38.8H3044.37V82H3036.09ZM3064.92 82H3057.54V38.8H3065.82V68.32H3066L3089.22 38.8H3096.69V82H3088.32V52.48H3088.14L3064.92 82ZM3064.29 19H3070.59C3070.59 22.78 3073.29 25.48 3077.16 25.48C3080.94 25.48 3083.64 22.78 3083.64 19H3089.94C3089.94 26.2 3084.54 31.6 3077.16 31.6C3069.69 31.6 3064.29 26.2 3064.29 19ZM3107.5 77.23C3107.5 74.08 3110.2 71.65 3113.08 71.65C3116.05 71.65 3118.75 74.08 3118.75 77.23C3118.75 80.38 3116.05 82.9 3113.08 82.9C3110.2 82.9 3107.5 80.38 3107.5 77.23ZM3129.1 77.23C3129.1 74.08 3131.8 71.65 3134.68 71.65C3137.65 71.65 3140.35 74.08 3140.35 77.23C3140.35 80.38 3137.65 82.9 3134.68 82.9C3131.8 82.9 3129.1 80.38 3129.1 77.23ZM3150.7 77.23C3150.7 74.08 3153.4 71.65 3156.28 71.65C3159.25 71.65 3161.95 74.08 3161.95 77.23C3161.95 80.38 3159.25 82.9 3156.28 82.9C3153.4 82.9 3150.7 80.38 3150.7 77.23ZM1749.75 181V164.98C1749.75 164.98 1745.07 168.13 1737.87 168.13C1728.42 168.13 1721.67 161.38 1721.67 150.4V137.8H1729.95V150.4C1729.95 156.43 1733.82 160.3 1739.4 160.3C1745.97 160.3 1749.75 156.88 1749.75 156.88V137.8H1758.12V181H1749.75ZM1781.52 181V145.63H1766.4V137.8H1804.92V145.63H1789.8V181H1781.52ZM1831.92 181.9C1819.59 181.9 1809.69 172 1809.69 159.4C1809.69 146.8 1819.59 136.9 1831.92 136.9C1844.34 136.9 1854.24 146.8 1854.24 159.4C1854.24 172 1844.34 181.9 1831.92 181.9ZM1831.92 173.98C1839.84 173.98 1845.87 167.95 1845.87 159.4C1845.87 150.85 1839.84 144.73 1831.92 144.73C1824.09 144.73 1817.97 150.85 1817.97 159.4C1817.97 167.95 1824.09 173.98 1831.92 173.98ZM1874.95 176.23C1874.95 173.08 1877.65 170.65 1880.53 170.65C1883.5 170.65 1886.2 173.08 1886.2 176.23C1886.2 179.38 1883.5 181.9 1880.53 181.9C1877.65 181.9 1874.95 179.38 1874.95 176.23ZM1884.85 164.35H1876.3C1876.3 164.35 1875.85 162.55 1875.85 160.3C1875.85 146.8 1893.13 146.08 1893.13 134.83C1893.13 129.7 1888.9 125.38 1881.7 125.38C1870.9 125.38 1868.38 134.65 1868.38 134.65L1861 131.68C1861 131.68 1864.6 117.1 1881.7 117.1C1894.03 117.1 1902.13 125.2 1902.13 134.2C1902.13 151.3 1884.85 149.95 1884.85 163.45V164.35ZM1725.27 379V316H1734.27V343H1766.4V316H1775.4V379H1766.4V351.28H1734.27V379H1725.27ZM1824.06 365.95L1829.19 371.53C1829.19 371.53 1823.34 379.9 1811.01 379.9C1798.41 379.9 1788.51 370 1788.51 357.4C1788.51 344.8 1798.41 334.9 1810.29 334.9C1822.44 334.9 1831.44 343.9 1831.44 356.05C1831.44 358.48 1830.99 360.28 1830.99 360.28H1797.24C1798.14 366.58 1803.81 371.98 1811.19 371.98C1819.29 371.98 1824.06 365.95 1824.06 365.95ZM1797.24 353.08H1822.89C1821.54 347.05 1817.04 342.55 1810.29 342.55C1803.36 342.55 1798.86 347.05 1797.24 353.08ZM1841.93 379V335.8H1850.21V356.23L1869.38 335.8H1879.73L1863.08 353.35L1881.26 379H1871.63L1857.68 359.2L1850.21 367.03V379H1841.93ZM1906.72 379.9C1894.39 379.9 1884.49 370 1884.49 357.4C1884.49 344.8 1894.39 334.9 1906.72 334.9C1919.14 334.9 1929.04 344.8 1929.04 357.4C1929.04 370 1919.14 379.9 1906.72 379.9ZM1906.72 371.98C1914.64 371.98 1920.67 365.95 1920.67 357.4C1920.67 348.85 1914.64 342.73 1906.72 342.73C1898.89 342.73 1892.77 348.85 1892.77 357.4C1892.77 365.95 1898.89 371.98 1906.72 371.98ZM1948.87 379V343.63H1933.75V335.8H1972.27V343.63H1957.15V379H1948.87ZM1999.27 379.9C1986.94 379.9 1977.04 370 1977.04 357.4C1977.04 344.8 1986.94 334.9 1999.27 334.9C2011.69 334.9 2021.59 344.8 2021.59 357.4C2021.59 370 2011.69 379.9 1999.27 379.9ZM1999.27 371.98C2007.19 371.98 2013.22 365.95 2013.22 357.4C2013.22 348.85 2007.19 342.73 1999.27 342.73C1991.44 342.73 1985.32 348.85 1985.32 357.4C1985.32 365.95 1991.44 371.98 1999.27 371.98ZM2055.08 379.9C2044.91 379.9 2040.32 372.88 2040.32 372.88H2040.23V397.9H2031.95V335.8H2040.23V341.92H2040.32C2040.32 341.92 2044.91 334.9 2055.08 334.9C2066.15 334.9 2075.6 344.35 2075.6 357.4C2075.6 370.45 2066.15 379.9 2055.08 379.9ZM2040.23 357.4C2040.23 365.95 2046.35 371.98 2053.73 371.98C2061.2 371.98 2067.23 365.95 2067.23 357.4C2067.23 348.85 2061.2 342.73 2053.73 342.73C2046.35 342.73 2040.23 348.85 2040.23 357.4ZM2085.91 379V335.8H2094.19V349.3H2103.64C2113.81 349.3 2120.11 355.6 2120.11 364.15C2120.11 372.7 2113.81 379 2103.64 379H2085.91ZM2094.19 371.35H2103.64C2108.86 371.35 2111.74 368.38 2111.74 364.15C2111.74 359.83 2108.86 356.95 2103.64 356.95H2094.19V371.35ZM2126.86 379V335.8H2135.14V379H2126.86ZM2181.16 365.95L2186.29 371.53C2186.29 371.53 2180.44 379.9 2168.11 379.9C2155.51 379.9 2145.61 370 2145.61 357.4C2145.61 344.8 2155.51 334.9 2167.39 334.9C2179.54 334.9 2188.54 343.9 2188.54 356.05C2188.54 358.48 2188.09 360.28 2188.09 360.28H2154.34C2155.24 366.58 2160.91 371.98 2168.29 371.98C2176.39 371.98 2181.16 365.95 2181.16 365.95ZM2154.34 353.08H2179.99C2178.64 347.05 2174.14 342.55 2167.39 342.55C2160.46 342.55 2155.96 347.05 2154.34 353.08ZM2217.92 379V335.8H2226.2V353.35H2248.25V335.8H2256.62V379H2248.25V360.73H2226.2V379H2217.92ZM2285.62 334.9C2296.24 334.9 2303.44 342.1 2303.44 351.55V379H2295.07V373.06H2294.98C2294.98 373.06 2290.39 379.9 2281.12 379.9C2272.39 379.9 2266.54 374.05 2266.54 367.3C2266.54 360.1 2271.22 355.33 2279.14 353.98L2295.07 351.28V351.19C2295.07 346.33 2291.2 342.55 2285.62 342.55C2278.69 342.55 2274.19 348.4 2274.19 348.4L2268.79 343C2268.79 343 2274.64 334.9 2285.62 334.9ZM2282.47 372.7C2289.49 372.7 2295.07 367.03 2295.07 359.65V358.03L2281.84 360.28C2277.34 361.09 2274.82 363.7 2274.82 366.58C2274.82 369.91 2277.61 372.7 2282.47 372.7ZM2328.69 379.9C2317.08 379.9 2311.5 372.25 2311.5 372.25L2316.9 366.85C2316.9 366.85 2321.13 372.25 2328.6 372.25C2334.18 372.25 2336.88 369.55 2336.88 366.13C2336.88 362.98 2334.18 360.28 2328.6 360.28H2322.93V352.9H2328.33C2333.1 352.9 2335.53 350.29 2335.53 347.68C2335.53 344.8 2333.28 342.55 2328.33 342.55C2321.85 342.55 2317.8 346.42 2317.8 346.42L2312.4 341.02C2312.4 341.02 2317.8 334.9 2328.33 334.9C2338.32 334.9 2344.08 340.75 2344.08 347.05C2344.08 354.34 2337.33 356.41 2337.33 356.41V356.5C2337.33 356.5 2345.7 358.66 2345.7 366.85C2345.7 373.6 2339.4 379.9 2328.69 379.9ZM2356.09 379V335.8H2364.37V349.3H2373.82C2383.99 349.3 2390.29 355.6 2390.29 364.15C2390.29 372.7 2383.99 379 2373.82 379H2356.09ZM2364.37 371.35H2373.82C2379.04 371.35 2381.92 368.38 2381.92 364.15C2381.92 359.83 2379.04 356.95 2373.82 356.95H2364.37V371.35ZM2397.04 379V335.8H2405.32V379H2397.04ZM2454.49 366.4C2454.49 373.33 2448.82 379 2439.46 379H2418.49V335.8H2438.47C2447.29 335.8 2452.69 341.2 2452.69 347.5C2452.69 353.71 2447.47 355.96 2447.47 355.96V356.14C2447.47 356.14 2454.49 358.3 2454.49 366.4ZM2445.67 365.5C2445.67 361.9 2443.24 359.65 2439.19 359.65H2426.77V371.35H2439.19C2443.24 371.35 2445.67 369.1 2445.67 365.5ZM2443.87 348.13C2443.87 345.25 2441.89 343.45 2438.29 343.45H2426.77V352.9H2438.29C2441.89 352.9 2443.87 351.1 2443.87 348.13ZM2480.74 334.9C2491.36 334.9 2498.56 342.1 2498.56 351.55V379H2490.19V373.06H2490.1C2490.1 373.06 2485.51 379.9 2476.24 379.9C2467.51 379.9 2461.66 374.05 2461.66 367.3C2461.66 360.1 2466.34 355.33 2474.26 353.98L2490.19 351.28V351.19C2490.19 346.33 2486.32 342.55 2480.74 342.55C2473.81 342.55 2469.31 348.4 2469.31 348.4L2463.91 343C2463.91 343 2469.76 334.9 2480.74 334.9ZM2477.59 372.7C2484.61 372.7 2490.19 367.03 2490.19 359.65V358.03L2476.96 360.28C2472.46 361.09 2469.94 363.7 2469.94 366.58C2469.94 369.91 2472.73 372.7 2477.59 372.7ZM2511.56 379V335.8H2519.84V353.35H2528.75C2530.46 342.55 2538.65 334.9 2550.26 334.9C2562.59 334.9 2572.04 344.35 2572.04 357.4C2572.04 370.45 2562.59 379.9 2550.26 379.9C2538.56 379.9 2530.1 371.89 2528.75 360.73H2519.84V379H2511.56ZM2550.26 371.98C2557.91 371.98 2563.76 366.13 2563.76 357.4C2563.76 348.58 2557.91 342.73 2550.26 342.73C2542.61 342.73 2536.76 348.58 2536.76 357.4C2536.76 366.13 2542.61 371.98 2550.26 371.98ZM2591.96 379V343.63H2576.84V335.8H2615.36V343.63H2600.24V379H2591.96ZM2636.08 370.9L2641.93 365.5C2641.93 365.5 2646.7 371.98 2654.53 371.98C2663.8 371.98 2667.85 363.43 2668.12 360.28H2648.05V353.08H2667.76C2667.13 350.2 2663.35 342.73 2654.53 342.73C2646.7 342.73 2642.38 349.03 2642.38 349.03L2636.53 343.45C2636.53 343.45 2642.65 334.9 2654.53 334.9C2666.95 334.9 2676.85 344.8 2676.85 357.4C2676.85 370 2666.95 379.9 2654.53 379.9C2642.65 379.9 2636.08 370.9 2636.08 370.9ZM2696.64 379V343.63H2681.52V335.8H2720.04V343.63H2704.92V379H2696.64ZM2747.04 379.9C2734.71 379.9 2724.81 370 2724.81 357.4C2724.81 344.8 2734.71 334.9 2747.04 334.9C2759.46 334.9 2769.36 344.8 2769.36 357.4C2769.36 370 2759.46 379.9 2747.04 379.9ZM2747.04 371.98C2754.96 371.98 2760.99 365.95 2760.99 357.4C2760.99 348.85 2754.96 342.73 2747.04 342.73C2739.21 342.73 2733.09 348.85 2733.09 357.4C2733.09 365.95 2739.21 371.98 2747.04 371.98ZM2806.44 372.7L2795.64 357.4L2806.44 342.1H2815.26L2804.46 357.4L2815.26 372.7H2806.44ZM2824.26 372.7L2813.46 357.4L2824.26 342.1H2832.99L2822.19 357.4L2832.99 372.7H2824.26ZM2866.31 379.9C2856.14 379.9 2851.55 372.88 2851.55 372.88H2851.46V397.9H2843.18V335.8H2851.46V341.92H2851.55C2851.55 341.92 2856.14 334.9 2866.31 334.9C2877.38 334.9 2886.83 344.35 2886.83 357.4C2886.83 370.45 2877.38 379.9 2866.31 379.9ZM2851.46 357.4C2851.46 365.95 2857.58 371.98 2864.96 371.98C2872.43 371.98 2878.46 365.95 2878.46 357.4C2878.46 348.85 2872.43 342.73 2864.96 342.73C2857.58 342.73 2851.46 348.85 2851.46 357.4ZM2900.74 397.9C2896.87 397.9 2894.17 396.82 2894.17 396.82V388.9C2894.17 388.9 2896.42 390.07 2899.39 390.07C2903.17 390.07 2905.69 387.82 2907.22 383.95L2909.29 379L2891.74 335.8H2900.74L2913.25 368.2H2913.43L2925.94 335.8H2934.94L2915.77 384.4C2912.17 393.49 2907.67 397.9 2900.74 397.9ZM2969.76 379V362.98C2969.76 362.98 2965.08 366.13 2957.88 366.13C2948.43 366.13 2941.68 359.38 2941.68 348.4V335.8H2949.96V348.4C2949.96 354.43 2953.83 358.3 2959.41 358.3C2965.98 358.3 2969.76 354.88 2969.76 354.88V335.8H2978.13V379H2969.76ZM2991.18 379V335.8H2999.46V356.23L3018.63 335.8H3028.98L3012.33 353.35L3030.51 379H3020.88L3006.93 359.2L2999.46 367.03V379H2991.18ZM3052.38 334.9C3063 334.9 3070.2 342.1 3070.2 351.55V379H3061.83V373.06H3061.74C3061.74 373.06 3057.15 379.9 3047.88 379.9C3039.15 379.9 3033.3 374.05 3033.3 367.3C3033.3 360.1 3037.98 355.33 3045.9 353.98L3061.83 351.28V351.19C3061.83 346.33 3057.96 342.55 3052.38 342.55C3045.45 342.55 3040.95 348.4 3040.95 348.4L3035.55 343C3035.55 343 3041.4 334.9 3052.38 334.9ZM3049.23 372.7C3056.25 372.7 3061.83 367.03 3061.83 359.65V358.03L3048.6 360.28C3044.1 361.09 3041.58 363.7 3041.58 366.58C3041.58 369.91 3044.37 372.7 3049.23 372.7ZM3083.2 379V335.8H3090.13L3105.88 355.33L3121.63 335.8H3128.65V379H3120.28V349.48L3105.88 367.3L3091.48 349.48V379H3083.2ZM3149.12 379H3141.74V335.8H3150.02V365.32H3150.2L3173.42 335.8H3180.89V379H3172.52V349.48H3172.34L3149.12 379ZM3190.98 372.7L3201.78 357.4L3190.98 342.1H3199.8L3210.6 357.4L3199.8 372.7H3190.98ZM3208.8 372.7L3219.6 357.4L3208.8 342.1H3217.53L3228.33 357.4L3217.53 372.7H3208.8ZM3236.26 374.23C3236.26 371.08 3238.96 368.65 3241.84 368.65C3244.81 368.65 3247.51 371.08 3247.51 374.23C3247.51 377.38 3244.81 379.9 3241.84 379.9C3238.96 379.9 3236.26 377.38 3236.26 374.23Z" fill="#191919"/>
</svg>
