<svg xmlns="http://www.w3.org/2000/svg" width="1700" height="1968" fill="none" viewBox="0 0 1700 1968">
    <path fill="#d3f0ff" stroke="#7f42e1" stroke-linecap="round" stroke-linejoin="round" stroke-width="22" d="m1562.87 499.557-56.19 1214.753-78.88 38.6-26.17-568.68-426.604-281.385-17.643 449.165-78.865 38.58L890.88 56.31z"/>
    <path fill="#d3f0ff" stroke="#7f42e1" stroke-linecap="round" stroke-linejoin="round" stroke-width="22" d="M1483.99 538.156 1427.8 1752.91 1305.11 1672l17.64-449.17-426.606-281.385-17.626 449.145-122.715-80.93L812.024 94.925z"/>
    <path fill="#d3f0ff" stroke="#7f42e1" stroke-linecap="round" stroke-linejoin="round" stroke-width="22" d="M1483.99 538.156 1111.94 1880.49l-88.32 28.89 86.88-547.18-426.606-281.39-121.229 437.36-88.326 28.89L812.024 94.925z"/>
    <path fill="#fff" stroke="#7f42e1" stroke-linecap="round" stroke-linejoin="round" stroke-width="22" d="m1395.62 567.055-372 1342.325-122.718-80.92 121.228-437.36-426.59-281.42-121.202 437.38-122.715-80.93L723.671 123.798zm0-.003 88.37-28.895L812.023 94.925l-88.352 28.87z"/>
    <path fill="#fff" stroke="#7f42e1" stroke-linecap="round" stroke-linejoin="round" stroke-width="22" d="m890.878 56.31-78.855 38.615 671.967 443.231 78.88-38.599z"/>
    <path fill="#d3f0ff" stroke="#7f42e1" stroke-linecap="round" stroke-linejoin="round" stroke-width="22" d="M863.905 975.68c37.234 25.48 57.278 73 46.06 109.35-4.794 15.54-14.373 25.96-26.682 30.8-16.447 6.46-58.365 19.15-58.365 19.15-37.234-25.48-89.761-115.15-78.543-151.491 0 0 47.407-15.906 60.869-20.288 16.091-5.238 36.388-1.393 56.661 12.479m100.55-576.54 128.955 88.181-167.343 451.893-58.301 19.151-25.754-76.635 64.948-464.698z"/>
    <path fill="#fff" stroke="#7f42e1" stroke-linecap="round" stroke-linejoin="round" stroke-width="22" d="M805.605 994.828c37.234 25.482 57.278 73.002 46.06 109.352-11.2 36.31-48.51 44.66-85.744 19.18s-57.278-73-46.06-109.35c11.2-36.315 48.51-44.66 85.744-19.182m100.55-576.54 128.955 88.181-167.344 451.893-84.054-57.484z"/>
    <path stroke="#7f42e1" stroke-linecap="round" stroke-linejoin="round" stroke-width="22" d="m1034.41 505.998 51.57-16.853"/>
</svg>
