<svg width="1700" height="1968" viewBox="0 0 1700 1968" fill="none" xmlns="http://www.w3.org/2000/svg">
<path d="M1562.87 499.557L1506.68 1714.31L1427.8 1752.91L1401.63 1184.23L975.026 902.845L957.383 1352.01L878.518 1390.59L890.88 56.3093L1562.87 499.557Z" fill="#D3F0FF" stroke="#7F42E1" stroke-width="22" stroke-linecap="round" stroke-linejoin="round"/>
<path d="M1483.99 538.156L1427.8 1752.91L1305.11 1672L1322.75 1222.83L896.144 941.445L878.518 1390.59L755.803 1309.66L812.024 94.9252L1483.99 538.156Z" fill="#D3F0FF" stroke="#7F42E1" stroke-width="22" stroke-linecap="round" stroke-linejoin="round"/>
<path d="M1483.99 538.156L1111.94 1880.49L1023.62 1909.38L1110.5 1362.2L683.894 1080.81L562.665 1518.17L474.339 1547.06L812.024 94.9252L1483.99 538.156Z" fill="#D3F0FF" stroke="#7F42E1" stroke-width="22" stroke-linecap="round" stroke-linejoin="round"/>
<path d="M1395.62 567.055L1023.62 1909.38L900.902 1828.46L1022.13 1391.1L595.54 1109.68L474.338 1547.06L351.623 1466.13L723.671 123.798L1395.62 567.055Z" fill="white" stroke="#7F42E1" stroke-width="22" stroke-linecap="round" stroke-linejoin="round"/>
<path d="M1395.62 567.052L1483.99 538.157L812.023 94.9255L723.671 123.795L1395.62 567.052Z" fill="white" stroke="#7F42E1" stroke-width="22" stroke-linecap="round" stroke-linejoin="round"/>
<path d="M890.878 56.3095L812.023 94.9247L1483.99 538.156L1562.87 499.557L890.878 56.3095Z" fill="white" stroke="#7F42E1" stroke-width="22" stroke-linecap="round" stroke-linejoin="round"/>
<path d="M863.905 975.68C901.139 1001.16 921.183 1048.68 909.965 1085.03C905.171 1100.57 895.592 1110.99 883.283 1115.83C866.836 1122.29 824.918 1134.98 824.918 1134.98C787.684 1109.5 735.157 1019.83 746.375 983.489C746.375 983.489 793.782 967.583 807.244 963.201C823.335 957.963 843.632 961.808 863.905 975.68ZM964.455 399.14L1093.41 487.321L926.067 939.214L867.766 958.365L842.012 881.73L906.96 417.032L964.455 399.14Z" fill="#D3F0FF" stroke="#7F42E1" stroke-width="22" stroke-linecap="round" stroke-linejoin="round"/>
<path d="M805.605 994.828C842.839 1020.31 862.883 1067.83 851.665 1104.18C840.465 1140.49 803.155 1148.84 765.921 1123.36C728.687 1097.88 708.643 1050.36 719.861 1014.01C731.061 977.695 768.371 969.35 805.605 994.828ZM906.155 418.288L1035.11 506.469L867.766 958.362L783.712 900.878L906.155 418.288Z" fill="white" stroke="#7F42E1" stroke-width="22" stroke-linecap="round" stroke-linejoin="round"/>
<path d="M1034.41 505.998L1085.98 489.145" stroke="#7F42E1" stroke-width="22" stroke-linecap="round" stroke-linejoin="round"/>
</svg>
