<svg width="985" height="985" viewBox="0 0 985 985" fill="none" xmlns="http://www.w3.org/2000/svg">
<path d="M373.621 0H339.655V33.9655H373.621V0Z" fill="#7F42E1"/>
<path d="M475.517 0H441.551V33.9655H475.517V0Z" fill="#7F42E1"/>
<path d="M509.482 0H475.517V33.9655H509.482V0Z" fill="#7F42E1"/>
<path d="M543.448 0H509.482V33.9655H543.448V0Z" fill="#7F42E1"/>
<path d="M611.379 0H577.413V33.9655H611.379V0Z" fill="#7F42E1"/>
<path d="M645.344 0H611.379V33.9655H645.344V0Z" fill="#7F42E1"/>
<path d="M305.689 33.9673H271.724V67.9328H305.689V33.9673Z" fill="#7F42E1"/>
<path d="M407.586 33.9673H373.621V67.9328H407.586V33.9673Z" fill="#7F42E1"/>
<path d="M441.551 33.9673H407.586V67.9328H441.551V33.9673Z" fill="#7F42E1"/>
<path d="M543.448 33.9673H509.482V67.9328H543.448V33.9673Z" fill="#7F42E1"/>
<path d="M611.379 33.9673H577.413V67.9328H611.379V33.9673Z" fill="#7F42E1"/>
<path d="M645.344 33.9673H611.378V67.9328H645.344V33.9673Z" fill="#7F42E1"/>
<path d="M713.275 33.9673H679.31V67.9328H713.275V33.9673Z" fill="#7F42E1"/>
<path d="M305.689 67.9326H271.724V101.898H305.689V67.9326Z" fill="#7F42E1"/>
<path d="M339.655 67.9326H305.689V101.898H339.655V67.9326Z" fill="#7F42E1"/>
<path d="M509.483 67.9326H475.517V101.898H509.483V67.9326Z" fill="#7F42E1"/>
<path d="M577.413 67.9326H543.448V101.898H577.413V67.9326Z" fill="#7F42E1"/>
<path d="M713.275 67.9326H679.31V101.898H713.275V67.9326Z" fill="#7F42E1"/>
<path d="M305.689 101.896H271.724V135.862H305.689V101.896Z" fill="#7F42E1"/>
<path d="M339.655 101.896H305.689V135.862H339.655V101.896Z" fill="#7F42E1"/>
<path d="M373.621 101.896H339.656V135.862H373.621V101.896Z" fill="#7F42E1"/>
<path d="M407.585 101.896H373.62V135.862H407.585V101.896Z" fill="#7F42E1"/>
<path d="M441.551 101.896H407.586V135.862H441.551V101.896Z" fill="#7F42E1"/>
<path d="M509.483 101.896H475.517V135.862H509.483V101.896Z" fill="#7F42E1"/>
<path d="M543.447 101.896H509.481V135.862H543.447V101.896Z" fill="#7F42E1"/>
<path d="M611.379 101.896H577.413V135.862H611.379V101.896Z" fill="#7F42E1"/>
<path d="M713.275 101.896H679.31V135.862H713.275V101.896Z" fill="#7F42E1"/>
<path d="M339.655 135.861H305.689V169.827H339.655V135.861Z" fill="#7F42E1"/>
<path d="M407.586 135.861H373.621V169.827H407.586V135.861Z" fill="#7F42E1"/>
<path d="M441.551 135.861H407.586V169.827H441.551V135.861Z" fill="#7F42E1"/>
<path d="M475.517 135.861H441.551V169.827H475.517V135.861Z" fill="#7F42E1"/>
<path d="M509.482 135.861H475.517V169.827H509.482V135.861Z" fill="#7F42E1"/>
<path d="M543.448 135.861H509.482V169.827H543.448V135.861Z" fill="#7F42E1"/>
<path d="M611.379 135.861H577.413V169.827H611.379V135.861Z" fill="#7F42E1"/>
<path d="M645.344 135.861H611.378V169.827H645.344V135.861Z" fill="#7F42E1"/>
<path d="M679.31 135.861H645.344V169.827H679.31V135.861Z" fill="#7F42E1"/>
<path d="M713.275 135.861H679.31V169.827H713.275V135.861Z" fill="#7F42E1"/>
<path d="M373.62 169.829H339.655V203.795H373.62V169.829Z" fill="#7F42E1"/>
<path d="M441.551 169.829H407.586V203.795H441.551V169.829Z" fill="#7F42E1"/>
<path d="M475.516 169.829H441.551V203.795H475.516V169.829Z" fill="#7F42E1"/>
<path d="M509.483 169.829H475.517V203.794H509.483V169.829Z" fill="#7F42E1"/>
<path d="M577.414 169.829H543.448V203.795H577.414V169.829Z" fill="#7F42E1"/>
<path d="M645.344 169.829H611.379V203.794H645.344V169.829Z" fill="#7F42E1"/>
<path d="M305.689 203.793H271.724V237.759H305.689V203.793Z" fill="#7F42E1"/>
<path d="M373.62 203.793H339.655V237.759H373.62V203.793Z" fill="#7F42E1"/>
<path d="M441.551 203.793H407.586V237.759H441.551V203.793Z" fill="#7F42E1"/>
<path d="M509.482 203.793H475.517V237.759H509.482V203.793Z" fill="#7F42E1"/>
<path d="M577.413 203.793H543.448V237.759H577.413V203.793Z" fill="#7F42E1"/>
<path d="M645.344 203.793H611.378V237.759H645.344V203.793Z" fill="#7F42E1"/>
<path d="M713.275 203.793H679.31V237.759H713.275V203.793Z" fill="#7F42E1"/>
<path d="M305.689 237.758H271.724V271.723H305.689V237.758Z" fill="#7F42E1"/>
<path d="M339.655 237.758H305.689V271.723H339.655V237.758Z" fill="#7F42E1"/>
<path d="M407.586 237.758H373.621V271.723H407.586V237.758Z" fill="#7F42E1"/>
<path d="M475.516 237.758H441.551V271.723H475.516V237.758Z" fill="#7F42E1"/>
<path d="M645.344 237.758H611.378V271.723H645.344V237.758Z" fill="#7F42E1"/>
<path d="M713.275 237.758H679.31V271.723H713.275V237.758Z" fill="#7F42E1"/>
<path d="M33.9655 271.723H0V305.688H33.9655V271.723Z" fill="#7F42E1"/>
<path d="M237.759 271.723H203.793V305.688H237.759V271.723Z" fill="#7F42E1"/>
<path d="M305.689 271.723H271.723V305.688H305.689V271.723Z" fill="#7F42E1"/>
<path d="M339.654 271.723H305.689V305.688H339.654V271.723Z" fill="#7F42E1"/>
<path d="M441.551 271.723H407.585V305.688H441.551V271.723Z" fill="#7F42E1"/>
<path d="M509.483 271.723H475.517V305.688H509.483V271.723Z" fill="#7F42E1"/>
<path d="M543.447 271.723H509.482V305.688H543.447V271.723Z" fill="#7F42E1"/>
<path d="M611.379 271.723H577.414V305.688H611.379V271.723Z" fill="#7F42E1"/>
<path d="M645.344 271.723H611.379V305.688H645.344V271.723Z" fill="#7F42E1"/>
<path d="M713.276 271.723H679.31V305.688H713.276V271.723Z" fill="#7F42E1"/>
<path d="M747.241 271.723H713.276V305.688H747.241V271.723Z" fill="#7F42E1"/>
<path d="M781.206 271.723H747.24V305.688H781.206V271.723Z" fill="#7F42E1"/>
<path d="M883.103 271.723H849.138V305.688H883.103V271.723Z" fill="#7F42E1"/>
<path d="M917.068 271.723H883.102V305.688H917.068V271.723Z" fill="#7F42E1"/>
<path d="M951.033 271.723H917.067V305.688H951.033V271.723Z" fill="#7F42E1"/>
<path d="M33.9655 305.69H0V339.655H33.9655V305.69Z" fill="#7F42E1"/>
<path d="M135.862 305.69H101.897V339.655H135.862V305.69Z" fill="#7F42E1"/>
<path d="M169.828 305.69H135.862V339.655H169.828V305.69Z" fill="#7F42E1"/>
<path d="M203.793 305.69H169.827V339.655H203.793V305.69Z" fill="#7F42E1"/>
<path d="M271.724 305.69H237.759V339.655H271.724V305.69Z" fill="#7F42E1"/>
<path d="M373.62 305.69H339.655V339.655H373.62V305.69Z" fill="#7F42E1"/>
<path d="M509.482 305.69H475.517V339.655H509.482V305.69Z" fill="#7F42E1"/>
<path d="M611.379 305.69H577.413V339.655H611.379V305.69Z" fill="#7F42E1"/>
<path d="M645.344 305.69H611.378V339.655H645.344V305.69Z" fill="#7F42E1"/>
<path d="M679.31 305.69H645.344V339.655H679.31V305.69Z" fill="#7F42E1"/>
<path d="M849.137 305.69H815.171V339.655H849.137V305.69Z" fill="#7F42E1"/>
<path d="M917.068 305.69H883.102V339.655H917.068V305.69Z" fill="#7F42E1"/>
<path d="M951.034 305.69H917.068V339.655H951.034V305.69Z" fill="#7F42E1"/>
<path d="M101.897 339.655H67.9316V373.621H101.897V339.655Z" fill="#7F42E1"/>
<path d="M135.861 339.655H101.896V373.621H135.861V339.655Z" fill="#7F42E1"/>
<path d="M237.759 339.655H203.793V373.621H237.759V339.655Z" fill="#7F42E1"/>
<path d="M271.723 339.655H237.758V373.621H271.723V339.655Z" fill="#7F42E1"/>
<path d="M339.655 339.655H305.689V373.621H339.655V339.655Z" fill="#7F42E1"/>
<path d="M407.585 339.655H373.62V373.621H407.585V339.655Z" fill="#7F42E1"/>
<path d="M611.379 339.655H577.413V373.621H611.379V339.655Z" fill="#7F42E1"/>
<path d="M713.275 339.655H679.31V373.621H713.275V339.655Z" fill="#7F42E1"/>
<path d="M781.206 339.655H747.241V373.621H781.206V339.655Z" fill="#7F42E1"/>
<path d="M849.137 339.655H815.171V373.621H849.137V339.655Z" fill="#7F42E1"/>
<path d="M67.9308 373.619H33.9653V407.585H67.9308V373.619Z" fill="#7F42E1"/>
<path d="M135.861 373.619H101.896V407.585H135.861V373.619Z" fill="#7F42E1"/>
<path d="M203.793 373.619H169.827V407.585H203.793V373.619Z" fill="#7F42E1"/>
<path d="M271.724 373.619H237.758V407.585H271.724V373.619Z" fill="#7F42E1"/>
<path d="M305.689 373.619H271.724V407.585H305.689V373.619Z" fill="#7F42E1"/>
<path d="M373.621 373.619H339.655V407.585H373.621V373.619Z" fill="#7F42E1"/>
<path d="M407.585 373.619H373.62V407.585H407.585V373.619Z" fill="#7F42E1"/>
<path d="M441.551 373.619H407.586V407.585H441.551V373.619Z" fill="#7F42E1"/>
<path d="M509.483 373.619H475.517V407.585H509.483V373.619Z" fill="#7F42E1"/>
<path d="M543.447 373.619H509.482V407.585H543.447V373.619Z" fill="#7F42E1"/>
<path d="M577.413 373.619H543.448V407.585H577.413V373.619Z" fill="#7F42E1"/>
<path d="M645.344 373.619H611.379V407.585H645.344V373.619Z" fill="#7F42E1"/>
<path d="M713.275 373.619H679.31V407.585H713.275V373.619Z" fill="#7F42E1"/>
<path d="M781.206 373.619H747.241V407.585H781.206V373.619Z" fill="#7F42E1"/>
<path d="M849.137 373.619H815.171V407.585H849.137V373.619Z" fill="#7F42E1"/>
<path d="M883.104 373.619H849.138V407.585H883.104V373.619Z" fill="#7F42E1"/>
<path d="M101.896 407.586H67.9307V441.552H101.896V407.586Z" fill="#7F42E1"/>
<path d="M135.862 407.586H101.897V441.552H135.862V407.586Z" fill="#7F42E1"/>
<path d="M169.828 407.586H135.862V441.552H169.828V407.586Z" fill="#7F42E1"/>
<path d="M203.793 407.586H169.827V441.552H203.793V407.586Z" fill="#7F42E1"/>
<path d="M237.758 407.586H203.793V441.552H237.758V407.586Z" fill="#7F42E1"/>
<path d="M271.724 407.586H237.759V441.552H271.724V407.586Z" fill="#7F42E1"/>
<path d="M407.586 407.586H373.621V441.552H407.586V407.586Z" fill="#7F42E1"/>
<path d="M441.551 407.586H407.586V441.552H441.551V407.586Z" fill="#7F42E1"/>
<path d="M475.517 407.586H441.551V441.552H475.517V407.586Z" fill="#7F42E1"/>
<path d="M509.482 407.586H475.517V441.552H509.482V407.586Z" fill="#7F42E1"/>
<path d="M713.275 407.586H679.31V441.552H713.275V407.586Z" fill="#7F42E1"/>
<path d="M781.206 407.586H747.24V441.552H781.206V407.586Z" fill="#7F42E1"/>
<path d="M984.998 407.586H951.033V441.552H984.998V407.586Z" fill="#7F42E1"/>
<path d="M67.9308 441.551H33.9653V475.517H67.9308V441.551Z" fill="#7F42E1"/>
<path d="M271.724 441.551H237.758V475.517H271.724V441.551Z" fill="#7F42E1"/>
<path d="M339.655 441.551H305.689V475.517H339.655V441.551Z" fill="#7F42E1"/>
<path d="M373.621 441.551H339.656V475.517H373.621V441.551Z" fill="#7F42E1"/>
<path d="M407.586 441.551H373.62V475.517H407.586V441.551Z" fill="#7F42E1"/>
<path d="M441.551 441.551H407.586V475.517H441.551V441.551Z" fill="#7F42E1"/>
<path d="M475.517 441.551H441.551V475.517H475.517V441.551Z" fill="#7F42E1"/>
<path d="M509.483 441.551H475.517V475.517H509.483V441.551Z" fill="#7F42E1"/>
<path d="M645.344 441.551H611.379V475.517H645.344V441.551Z" fill="#7F42E1"/>
<path d="M679.309 441.551H645.344V475.517H679.309V441.551Z" fill="#7F42E1"/>
<path d="M747.24 441.551H713.275V475.517H747.24V441.551Z" fill="#7F42E1"/>
<path d="M781.206 441.551H747.24V475.517H781.206V441.551Z" fill="#7F42E1"/>
<path d="M815.171 441.551H781.206V475.517H815.171V441.551Z" fill="#7F42E1"/>
<path d="M849.137 441.551H815.171V475.517H849.137V441.551Z" fill="#7F42E1"/>
<path d="M951.033 441.551H917.067V475.517H951.033V441.551Z" fill="#7F42E1"/>
<path d="M985 441.551H951.034V475.517H985V441.551Z" fill="#7F42E1"/>
<path d="M237.758 475.516H203.793V509.482H237.758V475.516Z" fill="#7F42E1"/>
<path d="M271.724 475.515H237.759V509.481H271.724V475.515Z" fill="#7F42E1"/>
<path d="M305.689 475.515H271.723V509.481H305.689V475.515Z" fill="#7F42E1"/>
<path d="M339.654 475.515H305.689V509.481H339.654V475.515Z" fill="#7F42E1"/>
<path d="M373.62 475.516H339.655V509.482H373.62V475.516Z" fill="#7F42E1"/>
<path d="M475.517 475.516H441.551V509.482H475.517V475.516Z" fill="#7F42E1"/>
<path d="M509.482 475.516H475.517V509.482H509.482V475.516Z" fill="#7F42E1"/>
<path d="M543.448 475.516H509.482V509.482H543.448V475.516Z" fill="#7F42E1"/>
<path d="M577.413 475.516H543.448V509.482H577.413V475.516Z" fill="#7F42E1"/>
<path d="M611.379 475.515H577.414V509.481H611.379V475.515Z" fill="#7F42E1"/>
<path d="M645.344 475.515H611.379V509.481H645.344V475.515Z" fill="#7F42E1"/>
<path d="M713.276 475.515H679.31V509.481H713.276V475.515Z" fill="#7F42E1"/>
<path d="M815.171 475.515H781.206V509.481H815.171V475.515Z" fill="#7F42E1"/>
<path d="M849.137 475.515H815.171V509.481H849.137V475.515Z" fill="#7F42E1"/>
<path d="M883.103 475.515H849.138V509.481H883.103V475.515Z" fill="#7F42E1"/>
<path d="M917.068 475.515H883.102V509.481H917.068V475.515Z" fill="#7F42E1"/>
<path d="M67.9308 509.483H33.9653V543.449H67.9308V509.483Z" fill="#7F42E1"/>
<path d="M101.896 509.483H67.9307V543.448H101.896V509.483Z" fill="#7F42E1"/>
<path d="M169.828 509.483H135.862V543.449H169.828V509.483Z" fill="#7F42E1"/>
<path d="M305.689 509.483H271.723V543.449H305.689V509.483Z" fill="#7F42E1"/>
<path d="M339.654 509.483H305.689V543.449H339.654V509.483Z" fill="#7F42E1"/>
<path d="M373.62 509.483H339.655V543.448H373.62V509.483Z" fill="#7F42E1"/>
<path d="M475.517 509.483H441.551V543.448H475.517V509.483Z" fill="#7F42E1"/>
<path d="M509.482 509.483H475.517V543.448H509.482V509.483Z" fill="#7F42E1"/>
<path d="M577.413 509.483H543.448V543.448H577.413V509.483Z" fill="#7F42E1"/>
<path d="M713.276 509.483H679.31V543.449H713.276V509.483Z" fill="#7F42E1"/>
<path d="M781.206 509.483H747.24V543.449H781.206V509.483Z" fill="#7F42E1"/>
<path d="M815.171 509.483H781.206V543.449H815.171V509.483Z" fill="#7F42E1"/>
<path d="M917.068 509.483H883.102V543.449H917.068V509.483Z" fill="#7F42E1"/>
<path d="M984.998 509.483H951.033V543.448H984.998V509.483Z" fill="#7F42E1"/>
<path d="M33.9655 543.448H0V577.413H33.9655V543.448Z" fill="#7F42E1"/>
<path d="M135.862 543.448H101.896V577.413H135.862V543.448Z" fill="#7F42E1"/>
<path d="M237.759 543.448H203.793V577.413H237.759V543.448Z" fill="#7F42E1"/>
<path d="M271.724 543.448H237.758V577.413H271.724V543.448Z" fill="#7F42E1"/>
<path d="M339.655 543.448H305.689V577.413H339.655V543.448Z" fill="#7F42E1"/>
<path d="M407.586 543.448H373.62V577.413H407.586V543.448Z" fill="#7F42E1"/>
<path d="M441.551 543.448H407.586V577.413H441.551V543.448Z" fill="#7F42E1"/>
<path d="M509.483 543.448H475.517V577.413H509.483V543.448Z" fill="#7F42E1"/>
<path d="M543.447 543.448H509.481V577.413H543.447V543.448Z" fill="#7F42E1"/>
<path d="M611.379 543.448H577.413V577.413H611.379V543.448Z" fill="#7F42E1"/>
<path d="M883.102 543.448H849.137V577.413H883.102V543.448Z" fill="#7F42E1"/>
<path d="M917.068 543.448H883.102V577.413H917.068V543.448Z" fill="#7F42E1"/>
<path d="M33.9655 577.413H0V611.378H33.9655V577.413Z" fill="#7F42E1"/>
<path d="M203.793 577.413H169.827V611.378H203.793V577.413Z" fill="#7F42E1"/>
<path d="M305.689 577.413H271.724V611.378H305.689V577.413Z" fill="#7F42E1"/>
<path d="M407.586 577.413H373.621V611.378H407.586V577.413Z" fill="#7F42E1"/>
<path d="M577.413 577.413H543.448V611.378H577.413V577.413Z" fill="#7F42E1"/>
<path d="M611.379 577.413H577.413V611.378H611.379V577.413Z" fill="#7F42E1"/>
<path d="M645.344 577.413H611.378V611.378H645.344V577.413Z" fill="#7F42E1"/>
<path d="M679.31 577.413H645.344V611.378H679.31V577.413Z" fill="#7F42E1"/>
<path d="M713.275 577.413H679.31V611.378H713.275V577.413Z" fill="#7F42E1"/>
<path d="M781.206 577.413H747.24V611.378H781.206V577.413Z" fill="#7F42E1"/>
<path d="M815.172 577.413H781.207V611.378H815.172V577.413Z" fill="#7F42E1"/>
<path d="M849.137 577.413H815.171V611.378H849.137V577.413Z" fill="#7F42E1"/>
<path d="M917.068 577.413H883.102V611.378H917.068V577.413Z" fill="#7F42E1"/>
<path d="M951.034 577.413H917.068V611.378H951.034V577.413Z" fill="#7F42E1"/>
<path d="M984.998 577.413H951.033V611.378H984.998V577.413Z" fill="#7F42E1"/>
<path d="M33.9655 611.38H0V645.345H33.9655V611.38Z" fill="#7F42E1"/>
<path d="M67.9308 611.38H33.9653V645.345H67.9308V611.38Z" fill="#7F42E1"/>
<path d="M169.828 611.38H135.862V645.345H169.828V611.38Z" fill="#7F42E1"/>
<path d="M237.759 611.38H203.793V645.345H237.759V611.38Z" fill="#7F42E1"/>
<path d="M339.655 611.38H305.689V645.345H339.655V611.38Z" fill="#7F42E1"/>
<path d="M475.516 611.38H441.551V645.345H475.516V611.38Z" fill="#7F42E1"/>
<path d="M509.483 611.38H475.517V645.345H509.483V611.38Z" fill="#7F42E1"/>
<path d="M577.413 611.38H543.448V645.345H577.413V611.38Z" fill="#7F42E1"/>
<path d="M679.309 611.38H645.344V645.345H679.309V611.38Z" fill="#7F42E1"/>
<path d="M849.137 611.38H815.172V645.345H849.137V611.38Z" fill="#7F42E1"/>
<path d="M883.104 611.38H849.138V645.345H883.104V611.38Z" fill="#7F42E1"/>
<path d="M984.998 611.38H951.033V645.345H984.998V611.38Z" fill="#7F42E1"/>
<path d="M33.9655 645.344H0V679.309H33.9655V645.344Z" fill="#7F42E1"/>
<path d="M135.861 645.344H101.896V679.309H135.861V645.344Z" fill="#7F42E1"/>
<path d="M305.689 645.344H271.724V679.309H305.689V645.344Z" fill="#7F42E1"/>
<path d="M373.621 645.344H339.656V679.309H373.621V645.344Z" fill="#7F42E1"/>
<path d="M407.585 645.344H373.62V679.309H407.585V645.344Z" fill="#7F42E1"/>
<path d="M509.483 645.344H475.517V679.309H509.483V645.344Z" fill="#7F42E1"/>
<path d="M543.447 645.344H509.481V679.309H543.447V645.344Z" fill="#7F42E1"/>
<path d="M577.413 645.344H543.448V679.309H577.413V645.344Z" fill="#7F42E1"/>
<path d="M679.309 645.344H645.344V679.309H679.309V645.344Z" fill="#7F42E1"/>
<path d="M747.24 645.344H713.275V679.309H747.24V645.344Z" fill="#7F42E1"/>
<path d="M781.206 645.344H747.241V679.309H781.206V645.344Z" fill="#7F42E1"/>
<path d="M815.171 645.344H781.206V679.309H815.171V645.344Z" fill="#7F42E1"/>
<path d="M849.137 645.344H815.171V679.309H849.137V645.344Z" fill="#7F42E1"/>
<path d="M33.9655 679.309H0V713.275H33.9655V679.309Z" fill="#7F42E1"/>
<path d="M203.793 679.309H169.827V713.275H203.793V679.309Z" fill="#7F42E1"/>
<path d="M237.758 679.309H203.793V713.275H237.758V679.309Z" fill="#7F42E1"/>
<path d="M271.724 679.309H237.759V713.275H271.724V679.309Z" fill="#7F42E1"/>
<path d="M373.62 679.309H339.655V713.275H373.62V679.309Z" fill="#7F42E1"/>
<path d="M441.551 679.309H407.586V713.275H441.551V679.309Z" fill="#7F42E1"/>
<path d="M577.413 679.309H543.448V713.275H577.413V679.309Z" fill="#7F42E1"/>
<path d="M611.379 679.309H577.413V713.275H611.379V679.309Z" fill="#7F42E1"/>
<path d="M679.31 679.309H645.344V713.275H679.31V679.309Z" fill="#7F42E1"/>
<path d="M713.275 679.309H679.31V713.275H713.275V679.309Z" fill="#7F42E1"/>
<path d="M747.24 679.309H713.275V713.275H747.24V679.309Z" fill="#7F42E1"/>
<path d="M781.206 679.309H747.24V713.275H781.206V679.309Z" fill="#7F42E1"/>
<path d="M815.172 679.309H781.207V713.275H815.172V679.309Z" fill="#7F42E1"/>
<path d="M849.137 679.309H815.172V713.275H849.137V679.309Z" fill="#7F42E1"/>
<path d="M917.068 679.309H883.102V713.275H917.068V679.309Z" fill="#7F42E1"/>
<path d="M951.034 679.309H917.068V713.275H951.034V679.309Z" fill="#7F42E1"/>
<path d="M984.998 679.309H951.033V713.275H984.998V679.309Z" fill="#7F42E1"/>
<path d="M305.689 713.276H271.723V747.242H305.689V713.276Z" fill="#7F42E1"/>
<path d="M373.621 713.276H339.655V747.242H373.621V713.276Z" fill="#7F42E1"/>
<path d="M475.517 713.276H441.551V747.242H475.517V713.276Z" fill="#7F42E1"/>
<path d="M577.413 713.276H543.448V747.242H577.413V713.276Z" fill="#7F42E1"/>
<path d="M611.379 713.276H577.414V747.242H611.379V713.276Z" fill="#7F42E1"/>
<path d="M645.344 713.276H611.379V747.242H645.344V713.276Z" fill="#7F42E1"/>
<path d="M713.276 713.276H679.31V747.242H713.276V713.276Z" fill="#7F42E1"/>
<path d="M849.137 713.276H815.171V747.242H849.137V713.276Z" fill="#7F42E1"/>
<path d="M883.103 713.276H849.138V747.242H883.103V713.276Z" fill="#7F42E1"/>
<path d="M373.62 747.241H339.655V781.206H373.62V747.241Z" fill="#7F42E1"/>
<path d="M475.516 747.241H441.551V781.206H475.516V747.241Z" fill="#7F42E1"/>
<path d="M509.482 747.241H475.517V781.206H509.482V747.241Z" fill="#7F42E1"/>
<path d="M543.448 747.241H509.482V781.206H543.448V747.241Z" fill="#7F42E1"/>
<path d="M577.414 747.241H543.448V781.206H577.414V747.241Z" fill="#7F42E1"/>
<path d="M679.31 747.241H645.344V781.206H679.31V747.241Z" fill="#7F42E1"/>
<path d="M713.275 747.241H679.31V781.206H713.275V747.241Z" fill="#7F42E1"/>
<path d="M781.206 747.241H747.24V781.206H781.206V747.241Z" fill="#7F42E1"/>
<path d="M849.137 747.241H815.171V781.206H849.137V747.241Z" fill="#7F42E1"/>
<path d="M883.103 747.241H849.137V781.206H883.103V747.241Z" fill="#7F42E1"/>
<path d="M917.068 747.241H883.103V781.206H917.068V747.241Z" fill="#7F42E1"/>
<path d="M339.655 781.206H305.689V815.171H339.655V781.206Z" fill="#7F42E1"/>
<path d="M373.62 781.206H339.655V815.171H373.62V781.206Z" fill="#7F42E1"/>
<path d="M475.517 781.206H441.551V815.171H475.517V781.206Z" fill="#7F42E1"/>
<path d="M679.31 781.206H645.344V815.171H679.31V781.206Z" fill="#7F42E1"/>
<path d="M713.275 781.206H679.31V815.171H713.275V781.206Z" fill="#7F42E1"/>
<path d="M849.137 781.206H815.171V815.171H849.137V781.206Z" fill="#7F42E1"/>
<path d="M951.034 781.206H917.068V815.171H951.034V781.206Z" fill="#7F42E1"/>
<path d="M373.62 815.17H339.655V849.135H373.62V815.17Z" fill="#7F42E1"/>
<path d="M407.585 815.17H373.62V849.136H407.585V815.17Z" fill="#7F42E1"/>
<path d="M475.516 815.17H441.551V849.135H475.516V815.17Z" fill="#7F42E1"/>
<path d="M543.447 815.17H509.482V849.136H543.447V815.17Z" fill="#7F42E1"/>
<path d="M577.414 815.17H543.448V849.135H577.414V815.17Z" fill="#7F42E1"/>
<path d="M645.344 815.17H611.379V849.136H645.344V815.17Z" fill="#7F42E1"/>
<path d="M679.31 815.17H645.344V849.135H679.31V815.17Z" fill="#7F42E1"/>
<path d="M713.275 815.17H679.31V849.136H713.275V815.17Z" fill="#7F42E1"/>
<path d="M747.24 815.17H713.275V849.135H747.24V815.17Z" fill="#7F42E1"/>
<path d="M781.206 815.17H747.241V849.136H781.206V815.17Z" fill="#7F42E1"/>
<path d="M815.171 815.173H781.206V849.138H815.171V815.173Z" fill="#7F42E1"/>
<path d="M849.137 815.17H815.171V849.136H849.137V815.17Z" fill="#7F42E1"/>
<path d="M883.104 815.17H849.138V849.136H883.104V815.17Z" fill="#7F42E1"/>
<path d="M339.655 849.138H305.689V883.103H339.655V849.138Z" fill="#7F42E1"/>
<path d="M407.586 849.138H373.621V883.103H407.586V849.138Z" fill="#7F42E1"/>
<path d="M441.551 849.138H407.586V883.103H441.551V849.138Z" fill="#7F42E1"/>
<path d="M577.413 849.138H543.448V883.103H577.413V849.138Z" fill="#7F42E1"/>
<path d="M611.379 849.138H577.413V883.103H611.379V849.138Z" fill="#7F42E1"/>
<path d="M645.344 849.138H611.378V883.103H645.344V849.138Z" fill="#7F42E1"/>
<path d="M747.24 849.138H713.275V883.103H747.24V849.138Z" fill="#7F42E1"/>
<path d="M815.172 849.138H781.207V883.103H815.172V849.138Z" fill="#7F42E1"/>
<path d="M883.102 849.138H849.137V883.103H883.102V849.138Z" fill="#7F42E1"/>
<path d="M917.068 849.138H883.102V883.103H917.068V849.138Z" fill="#7F42E1"/>
<path d="M951.034 849.138H917.068V883.103H951.034V849.138Z" fill="#7F42E1"/>
<path d="M441.551 883.102H407.586V917.068H441.551V883.102Z" fill="#7F42E1"/>
<path d="M611.379 883.102H577.413V917.068H611.379V883.102Z" fill="#7F42E1"/>
<path d="M713.275 883.102H679.31V917.068H713.275V883.102Z" fill="#7F42E1"/>
<path d="M747.24 883.102H713.275V917.068H747.24V883.102Z" fill="#7F42E1"/>
<path d="M781.206 883.102H747.241V917.068H781.206V883.102Z" fill="#7F42E1"/>
<path d="M815.171 883.102H781.206V917.068H815.171V883.102Z" fill="#7F42E1"/>
<path d="M849.137 883.102H815.172V917.068H849.137V883.102Z" fill="#7F42E1"/>
<path d="M883.104 883.102H849.138V917.068H883.104V883.102Z" fill="#7F42E1"/>
<path d="M917.068 883.102H883.103V917.068H917.068V883.102Z" fill="#7F42E1"/>
<path d="M951.033 883.102H917.067V917.068H951.033V883.102Z" fill="#7F42E1"/>
<path d="M339.655 917.069H305.689V951.034H339.655V917.069Z" fill="#7F42E1"/>
<path d="M441.551 917.069H407.586V951.034H441.551V917.069Z" fill="#7F42E1"/>
<path d="M475.517 917.069H441.551V951.034H475.517V917.069Z" fill="#7F42E1"/>
<path d="M509.483 917.069H475.517V951.034H509.483V917.069Z" fill="#7F42E1"/>
<path d="M543.447 917.069H509.482V951.034H543.447V917.069Z" fill="#7F42E1"/>
<path d="M781.206 917.069H747.241V951.034H781.206V917.069Z" fill="#7F42E1"/>
<path d="M849.137 917.069H815.172V951.034H849.137V917.069Z" fill="#7F42E1"/>
<path d="M883.104 917.069H849.138V951.034H883.104V917.069Z" fill="#7F42E1"/>
<path d="M917.068 917.069H883.103V951.034H917.068V917.069Z" fill="#7F42E1"/>
<path d="M984.998 917.069H951.033V951.035H984.998V917.069Z" fill="#7F42E1"/>
<path d="M305.689 951.032H271.724V984.997H305.689V951.032Z" fill="#7F42E1"/>
<path d="M339.655 951.032H305.689V984.997H339.655V951.032Z" fill="#7F42E1"/>
<path d="M407.586 951.032H373.621V984.997H407.586V951.032Z" fill="#7F42E1"/>
<path d="M645.344 951.032H611.378V984.997H645.344V951.032Z" fill="#7F42E1"/>
<path d="M679.31 951.032H645.344V984.997H679.31V951.032Z" fill="#7F42E1"/>
<path d="M781.206 951.032H747.24V984.997H781.206V951.032Z" fill="#7F42E1"/>
<path d="M815.172 951.032H781.207V984.997H815.172V951.032Z" fill="#7F42E1"/>
<path d="M849.137 951.032H815.171V984.997H849.137V951.032Z" fill="#7F42E1"/>
<path d="M917.068 951.032H883.102V984.997H917.068V951.032Z" fill="#7F42E1"/>
<path d="M202.095 0H35.6637H0V35.6637V202.095V237.758H35.6637H202.095H237.758V202.095V35.6637V0H202.095ZM202.095 202.095H35.6637V35.6637H202.095V202.095Z" fill="#7F42E1"/>
<path d="M949.335 0H782.904H747.24V35.6637V202.095V237.758H782.904H949.335H984.999V202.095V35.6637V0H949.335ZM949.335 202.095H782.904V35.6637H949.335V202.095Z" fill="#7F42E1"/>
<path d="M202.095 747.241H35.6637H0V782.904V949.335V984.999H35.6637H202.095H237.758V949.335V782.904V747.241H202.095ZM202.095 949.335H35.6637V782.904H202.095V949.335Z" fill="#7F42E1"/>
<path d="M169.828 67.9326H67.9314V169.829H169.828V67.9326Z" fill="#7F42E1"/>
<path d="M917.068 67.9326H815.171V169.829H917.068V67.9326Z" fill="#7F42E1"/>
<path d="M169.828 815.17H67.9314V917.067H169.828V815.17Z" fill="#7F42E1"/>
</svg>
