<svg width="2174" height="861" viewBox="0 0 2174 861" fill="none" xmlns="http://www.w3.org/2000/svg">
<path d="M106.042 699.409C97.8149 701.308 90.4321 702.784 77.1431 702.784C46.1353 702.784 25.4634 685.698 25.4634 650.261V525.597H88.7446V640.347C88.7446 646.675 92.1196 649.839 97.8149 649.839C101.19 649.839 103.932 649.206 106.042 648.573V525.597H169.323V828.081H106.042V699.409ZM221.424 828.081V580.44H182.401V525.597H323.729V580.44H284.706V828.081H221.424ZM404.729 832.3C353.471 832.3 328.792 805.089 328.792 756.995V596.683C328.792 550.698 356.002 521.378 404.729 521.378C453.456 521.378 480.667 549.433 480.667 596.683V756.995C480.667 805.089 455.776 832.3 404.729 832.3ZM404.729 779.565C411.479 779.565 414.432 774.714 414.432 767.964V585.714C414.432 579.386 411.268 574.112 404.729 574.112C397.979 574.112 395.026 578.964 395.026 585.714V767.964C395.026 774.714 397.979 779.565 404.729 779.565ZM498.385 828.081V525.597H630.221V580.44H561.667V638.237H569.471C620.729 638.237 646.463 660.386 646.463 727.464V736.112C646.463 808.464 617.987 828.081 569.471 828.081H498.385ZM562.932 778.511C576.854 778.511 582.76 769.229 582.76 742.229V720.925C582.76 695.612 578.331 687.808 563.354 687.808H561.667V778.511H562.932ZM659.963 828.081V525.597H723.245V635.073H728.518C779.776 635.073 805.51 657.222 805.51 724.3V736.112C805.51 808.464 777.034 828.081 728.518 828.081H659.963ZM723.667 778.511C735.69 778.511 741.807 769.229 741.807 742.229V717.761C741.807 692.448 737.167 684.644 723.877 684.644H723.245V778.511H723.667ZM818.167 828.081V525.597H881.448V828.081H818.167ZM948.948 828.081V525.597H1012.23V643.511H1033.74V525.597H1097.03V828.081H1033.74V697.3H1012.23V828.081H948.948ZM1107.78 828.081L1139.42 525.597H1237.3L1273.16 828.081H1207.14L1201.65 761.425H1176.76L1172.33 828.081H1107.78ZM1188.15 579.175L1179.71 708.69H1198.28L1188.15 579.175ZM1351.42 699.409C1343.19 701.308 1335.81 702.784 1322.52 702.784C1291.51 702.784 1270.84 685.698 1270.84 650.261V525.597H1334.12V640.347C1334.12 646.675 1337.49 649.839 1343.19 649.839C1346.56 649.839 1349.31 649.206 1351.42 648.573V525.597H1414.7V828.081H1351.42V699.409ZM1425.46 828.081L1457.1 525.597H1554.97L1590.83 828.081H1524.81L1519.32 761.425H1494.43L1490 828.081H1425.46ZM1505.82 579.175L1497.39 708.69H1515.95L1505.82 579.175ZM1619.1 828.081V580.44H1580.07V525.597H1721.4V580.44H1682.38V828.081H1619.1ZM1734.48 828.081V525.597H1797.76V635.073H1804.72C1855.98 635.073 1881.71 657.222 1881.71 724.3V736.112C1881.71 808.464 1853.24 828.081 1804.72 828.081H1734.48ZM1798.18 778.511C1812.1 778.511 1818.01 769.229 1818.01 742.229V717.761C1818.01 692.448 1813.58 684.644 1798.6 684.644H1797.76V778.511H1798.18Z" fill="#7F42E1"/>
<mask id="path-2-outside-1_498_2202" maskUnits="userSpaceOnUse" x="-0.316986" y="-0.124512" width="2138" height="663" fill="black">
<rect fill="white" x="-0.316986" y="-0.124512" width="2138" height="663"/>
<path d="M151.763 400.848C156.999 395.612 163.544 392.994 171.398 392.994C178.878 392.994 185.236 395.612 190.472 400.848C195.708 406.084 198.326 412.442 198.326 419.922C198.326 427.776 195.895 434.134 191.033 438.996C178.317 451.338 162.796 461.436 144.47 469.291C126.144 477.145 109.126 481.072 93.4184 481.072C70.2303 481.072 51.5302 473.218 37.3181 457.509C23.106 441.801 16 420.857 16 394.677C16 368.497 24.041 337.455 40.1231 301.551C56.2052 265.646 79.3933 231.238 109.687 198.326C139.982 165.414 175.325 140.356 215.717 123.152C219.083 121.656 222.823 120.908 226.937 120.908C234.417 120.908 240.588 123.526 245.45 128.762C250.686 133.624 253.304 139.795 253.304 147.275C253.304 152.511 251.808 157.373 248.816 161.861C246.198 166.349 242.645 169.528 238.157 171.398C205.245 185.61 176.073 206.367 150.641 233.669C125.583 260.971 106.134 289.583 92.2964 319.503C78.8323 349.049 72.1003 374.107 72.1003 394.677C72.1003 417.117 79.2063 428.337 93.4184 428.337C102.02 428.337 111.744 425.906 122.591 421.044C133.437 415.808 143.161 409.076 151.763 400.848ZM272.808 482.755C271.312 489.113 267.946 494.162 262.71 497.902C257.848 502.016 252.238 504.073 245.88 504.073C238.026 504.073 231.294 501.268 225.684 495.658C220.448 490.422 217.83 483.877 217.83 476.023C217.83 474.527 218.204 472.283 218.952 469.291L310.395 137.177C311.891 130.819 315.07 125.77 319.932 122.03C325.168 117.916 330.965 115.859 337.323 115.859C345.177 115.859 351.722 118.664 356.958 124.274C362.568 129.51 365.373 136.055 365.373 143.909C365.373 145.405 364.999 147.649 364.251 150.641L336.201 252.743L436.621 167.471C441.857 162.983 447.841 160.739 454.573 160.739C462.053 160.739 468.411 163.357 473.647 168.593C478.883 173.829 481.501 180.187 481.501 187.667C481.501 195.521 478.509 202.253 472.525 207.863L331.713 327.357L433.816 422.727C439.052 427.963 441.67 434.321 441.67 441.801C441.67 449.281 439.052 455.639 433.816 460.875C428.58 466.112 422.222 468.73 414.742 468.73C407.262 468.73 400.903 466.112 395.667 460.875L302.541 373.92L272.808 482.755ZM447.626 404.214C447.626 372.798 457.911 337.268 478.481 297.624C499.051 257.605 525.231 223.571 557.022 195.521C589.186 167.471 620.976 153.446 652.392 153.446C682.312 153.446 703.256 164.666 715.224 187.106C727.566 209.546 733.737 241.149 733.737 281.916C733.737 316.324 731.306 346.618 726.444 372.798C721.956 398.604 716.159 423.849 709.053 448.533C707.183 454.891 703.817 459.94 698.955 463.681C694.093 467.421 688.483 469.291 682.125 469.291C674.645 469.291 668.1 466.486 662.49 460.875C656.88 455.265 654.075 448.72 654.075 441.24C654.075 439.37 654.449 436.939 655.197 433.947C661.929 410.385 667.352 387.197 671.466 364.383C675.58 341.195 677.637 313.706 677.637 281.916C677.637 254.987 675.58 235.539 671.466 223.571C646.782 309.218 621.163 373.546 594.609 416.556C568.055 459.192 539.256 480.511 508.214 480.511C489.14 480.511 474.18 473.405 463.334 459.192C452.862 444.606 447.626 426.28 447.626 404.214ZM503.726 404.214C503.726 412.068 504.287 418.052 505.409 422.166C506.531 425.906 507.466 427.776 508.214 427.776C514.946 427.776 524.109 420.483 535.703 405.897C547.671 391.311 560.949 368.31 575.535 336.894C590.121 305.104 604.52 265.085 618.732 216.839C600.78 227.311 582.828 243.767 564.876 266.207C547.297 288.274 532.711 312.023 521.117 337.455C509.523 362.513 503.726 384.766 503.726 404.214ZM836.892 137.738C838.388 132.128 841.567 127.266 846.429 123.152C851.665 119.038 857.462 116.981 863.82 116.981C871.674 116.981 878.219 119.786 883.455 125.396C889.065 131.006 891.87 137.551 891.87 145.031C891.87 146.901 891.496 149.332 890.748 152.324L855.966 277.428L954.141 265.646L984.997 154.007C986.493 148.397 989.672 143.535 994.534 139.421C999.77 135.307 1005.57 133.25 1011.92 133.25C1019.78 133.25 1026.32 136.055 1031.56 141.665C1037.17 147.275 1039.97 153.82 1039.97 161.3C1039.97 163.17 1039.6 165.601 1038.85 168.593L951.897 483.316C950.401 488.926 947.035 493.788 941.799 497.902C936.937 502.016 931.327 504.073 924.969 504.073C917.115 504.073 910.383 501.268 904.773 495.658C899.537 490.048 896.919 483.503 896.919 476.023C896.919 474.153 897.293 471.722 898.041 468.73L938.994 321.186L840.819 332.967L809.964 445.167C808.468 450.777 805.102 455.639 799.866 459.753C795.004 463.868 789.394 465.925 783.036 465.925C775.181 465.925 768.449 463.119 762.839 457.509C757.603 451.899 754.985 445.354 754.985 437.874C754.985 436.004 755.359 433.573 756.107 430.581L781.353 339.699C774.994 338.951 769.197 336.146 763.961 331.284C759.099 326.422 756.668 320.438 756.668 313.332C756.668 306.6 758.912 300.803 763.4 295.941C767.888 290.705 773.311 287.713 779.669 286.965L796.5 284.721L836.892 137.738ZM1228.98 467.047C1227.48 473.031 1224.12 478.08 1218.88 482.194C1214.02 486.308 1208.41 488.365 1202.05 488.365C1194.2 488.365 1187.47 485.56 1181.86 479.95C1176.62 474.714 1174 468.169 1174 460.314C1174 458.818 1174.38 456.574 1175.12 453.582L1225.05 265.085L1064.61 453.582C1062.36 458.07 1058.81 461.81 1053.95 464.803C1049.46 467.795 1044.6 469.291 1039.36 469.291C1031.51 469.291 1024.96 466.486 1019.73 460.875C1014.12 455.265 1011.31 448.72 1011.31 441.24C1011.31 439.37 1011.69 436.939 1012.43 433.947L1084.8 172.52C1086.3 166.91 1089.48 162.048 1094.34 157.934C1099.58 153.82 1105.37 151.763 1111.73 151.763C1119.58 151.763 1126.13 154.568 1131.37 160.178C1136.98 165.788 1139.78 172.333 1139.78 179.813C1139.78 181.683 1139.41 184.114 1138.66 187.106L1099.39 328.479L1258.15 142.226C1260.4 137.738 1263.76 134.185 1268.25 131.567C1272.74 128.575 1277.6 127.079 1282.84 127.079C1290.69 127.079 1297.24 129.884 1302.47 135.494C1308.08 140.73 1310.89 147.275 1310.89 155.129C1310.89 156.625 1310.51 158.869 1309.76 161.861L1228.98 467.047ZM1301.34 612.907C1299.84 618.891 1296.47 623.94 1291.24 628.054C1286.38 632.168 1280.77 634.225 1274.41 634.225C1266.55 634.225 1260.01 631.42 1254.77 625.81C1249.16 620.574 1246.36 614.029 1246.36 606.175C1246.36 604.679 1246.73 602.435 1247.48 599.443L1388.29 82.7595C1389.79 76.7755 1392.97 71.7265 1397.83 67.6125C1403.06 63.4984 1408.86 61.4414 1415.22 61.4414C1423.07 61.4414 1429.62 64.2465 1434.86 69.8565C1440.47 75.0925 1443.27 81.6375 1443.27 89.4916C1443.27 90.9876 1442.9 93.2316 1442.15 96.2236L1420.27 177.008C1440.47 153.82 1461.97 142.226 1484.78 142.226C1504.98 142.226 1521.06 150.267 1533.03 166.349C1545 182.431 1550.98 203.188 1550.98 228.62C1550.98 259.662 1542.01 292.014 1524.05 325.674C1506.1 358.96 1480.86 389.628 1448.32 417.678C1415.78 445.354 1378.75 466.673 1337.24 481.633L1301.34 612.907ZM1355.19 415.434C1382.87 400.848 1407.18 382.896 1428.12 361.578C1449.44 340.26 1465.9 318.007 1477.49 294.819C1489.09 271.257 1494.88 249.19 1494.88 228.62C1494.88 206.18 1489.65 194.96 1479.17 194.96C1467.58 194.96 1452.62 208.237 1434.29 234.791C1415.97 260.971 1397.08 293.884 1377.63 333.528L1355.19 415.434ZM1534.39 638.152C1529.15 643.388 1522.8 646.006 1515.32 646.006C1507.84 646.006 1501.48 643.388 1496.24 638.152C1491.01 632.916 1488.39 626.558 1488.39 619.078C1488.39 611.598 1491.01 605.24 1496.24 600.004C1545.61 553.628 1588.62 503.512 1625.27 449.655C1615.17 407.393 1607.13 367.562 1601.15 330.162C1595.16 292.388 1590.12 249.19 1586 200.57C1585.25 192.716 1587.68 185.797 1593.29 179.813C1598.9 173.455 1605.82 170.276 1614.05 170.276C1621.16 170.276 1627.33 172.894 1632.56 178.13C1638.17 182.992 1641.35 188.976 1642.1 196.082C1647.71 264.15 1656.31 326.048 1667.91 381.774C1688.48 345.496 1707.18 307.535 1724.01 267.89C1741.21 227.872 1758.23 183.927 1775.06 136.055C1776.93 130.445 1780.3 125.957 1785.16 122.591C1790.02 118.851 1795.44 116.981 1801.43 116.981C1808.91 116.981 1815.45 119.786 1821.06 125.396C1826.67 131.006 1829.48 137.551 1829.48 145.031C1829.48 147.649 1828.92 150.641 1827.79 154.007C1804.61 220.205 1780.67 279.672 1755.99 332.406C1731.3 385.14 1700.82 437.313 1664.54 488.926C1628.64 540.538 1585.25 590.28 1534.39 638.152ZM2012.29 444.045C2010.79 450.029 2007.43 455.078 2002.19 459.192C1997.33 463.307 1991.72 465.364 1985.36 465.364C1977.51 465.364 1970.78 462.745 1965.17 457.509C1959.93 451.899 1957.31 445.354 1957.31 437.874C1957.31 436.004 1957.68 433.573 1958.43 430.581L1972.46 384.579C1934.31 442.923 1899.34 472.096 1867.55 472.096C1851.09 472.096 1836.51 466.112 1823.79 454.143C1811.45 442.175 1805.28 425.719 1805.28 404.775C1805.28 375.229 1822.48 306.226 1856.89 197.765C1858.76 192.155 1862.13 187.48 1866.99 183.74C1872.23 179.626 1877.84 177.569 1883.82 177.569C1891.3 177.569 1897.84 180.374 1903.45 185.984C1909.06 191.594 1911.87 198.139 1911.87 205.619C1911.87 208.611 1911.5 211.229 1910.75 213.473C1877.84 315.202 1861.38 378.969 1861.38 404.775C1861.38 409.637 1861.94 413.377 1863.06 415.995C1864.56 418.239 1866.05 419.361 1867.55 419.361C1879.89 419.361 1896.54 405.336 1917.48 377.286C1938.8 349.236 1959.37 317.072 1979.19 280.794C1999.39 244.515 2012.85 217.026 2019.58 198.326L2025.75 173.642C2027.25 167.658 2030.43 162.609 2035.29 158.495C2040.53 154.381 2046.32 152.324 2052.68 152.324C2060.54 152.324 2067.08 155.129 2072.32 160.739C2077.93 165.975 2080.73 172.52 2080.73 180.374C2080.73 181.87 2080.36 184.114 2079.61 187.106L2012.29 444.045ZM2007.24 111.371C2001.63 118.103 1994.71 121.469 1986.48 121.469C1979 121.469 1972.46 118.851 1966.85 113.615C1961.61 108.005 1958.99 101.46 1958.99 93.9796C1958.99 87.6216 1961.24 81.8245 1965.73 76.5885L2011.17 26.0982C2016.78 19.3662 2023.7 16.0002 2031.92 16.0002C2039.4 16.0002 2045.76 18.8052 2051 24.4152C2056.61 29.6513 2059.41 36.0093 2059.41 43.4893C2059.41 49.8474 2057.17 55.6444 2052.68 60.8804L2007.24 111.371ZM2065.56 458.07C2066.31 451.338 2069.3 445.728 2074.53 441.24C2079.77 436.378 2085.94 433.947 2093.05 433.947C2101.65 433.947 2108.76 437.126 2114.37 443.484C2119.98 449.842 2122.03 457.322 2120.54 465.925C2116.05 494.349 2105.76 522.212 2089.68 549.514C2084.07 559.238 2076.22 564.1 2066.12 564.1C2059.01 564.1 2053.4 561.856 2049.29 557.368C2045.18 552.88 2043.12 547.27 2043.12 540.538C2043.12 534.928 2044.43 529.505 2047.05 524.269C2054.9 508.187 2061.07 486.121 2065.56 458.07Z"/>
</mask>
<path d="M151.763 400.848C156.999 395.612 163.544 392.994 171.398 392.994C178.878 392.994 185.236 395.612 190.472 400.848C195.708 406.084 198.326 412.442 198.326 419.922C198.326 427.776 195.895 434.134 191.033 438.996C178.317 451.338 162.796 461.436 144.47 469.291C126.144 477.145 109.126 481.072 93.4184 481.072C70.2303 481.072 51.5302 473.218 37.3181 457.509C23.106 441.801 16 420.857 16 394.677C16 368.497 24.041 337.455 40.1231 301.551C56.2052 265.646 79.3933 231.238 109.687 198.326C139.982 165.414 175.325 140.356 215.717 123.152C219.083 121.656 222.823 120.908 226.937 120.908C234.417 120.908 240.588 123.526 245.45 128.762C250.686 133.624 253.304 139.795 253.304 147.275C253.304 152.511 251.808 157.373 248.816 161.861C246.198 166.349 242.645 169.528 238.157 171.398C205.245 185.61 176.073 206.367 150.641 233.669C125.583 260.971 106.134 289.583 92.2964 319.503C78.8323 349.049 72.1003 374.107 72.1003 394.677C72.1003 417.117 79.2063 428.337 93.4184 428.337C102.02 428.337 111.744 425.906 122.591 421.044C133.437 415.808 143.161 409.076 151.763 400.848ZM272.808 482.755C271.312 489.113 267.946 494.162 262.71 497.902C257.848 502.016 252.238 504.073 245.88 504.073C238.026 504.073 231.294 501.268 225.684 495.658C220.448 490.422 217.83 483.877 217.83 476.023C217.83 474.527 218.204 472.283 218.952 469.291L310.395 137.177C311.891 130.819 315.07 125.77 319.932 122.03C325.168 117.916 330.965 115.859 337.323 115.859C345.177 115.859 351.722 118.664 356.958 124.274C362.568 129.51 365.373 136.055 365.373 143.909C365.373 145.405 364.999 147.649 364.251 150.641L336.201 252.743L436.621 167.471C441.857 162.983 447.841 160.739 454.573 160.739C462.053 160.739 468.411 163.357 473.647 168.593C478.883 173.829 481.501 180.187 481.501 187.667C481.501 195.521 478.509 202.253 472.525 207.863L331.713 327.357L433.816 422.727C439.052 427.963 441.67 434.321 441.67 441.801C441.67 449.281 439.052 455.639 433.816 460.875C428.58 466.112 422.222 468.73 414.742 468.73C407.262 468.73 400.903 466.112 395.667 460.875L302.541 373.92L272.808 482.755ZM447.626 404.214C447.626 372.798 457.911 337.268 478.481 297.624C499.051 257.605 525.231 223.571 557.022 195.521C589.186 167.471 620.976 153.446 652.392 153.446C682.312 153.446 703.256 164.666 715.224 187.106C727.566 209.546 733.737 241.149 733.737 281.916C733.737 316.324 731.306 346.618 726.444 372.798C721.956 398.604 716.159 423.849 709.053 448.533C707.183 454.891 703.817 459.94 698.955 463.681C694.093 467.421 688.483 469.291 682.125 469.291C674.645 469.291 668.1 466.486 662.49 460.875C656.88 455.265 654.075 448.72 654.075 441.24C654.075 439.37 654.449 436.939 655.197 433.947C661.929 410.385 667.352 387.197 671.466 364.383C675.58 341.195 677.637 313.706 677.637 281.916C677.637 254.987 675.58 235.539 671.466 223.571C646.782 309.218 621.163 373.546 594.609 416.556C568.055 459.192 539.256 480.511 508.214 480.511C489.14 480.511 474.18 473.405 463.334 459.192C452.862 444.606 447.626 426.28 447.626 404.214ZM503.726 404.214C503.726 412.068 504.287 418.052 505.409 422.166C506.531 425.906 507.466 427.776 508.214 427.776C514.946 427.776 524.109 420.483 535.703 405.897C547.671 391.311 560.949 368.31 575.535 336.894C590.121 305.104 604.52 265.085 618.732 216.839C600.78 227.311 582.828 243.767 564.876 266.207C547.297 288.274 532.711 312.023 521.117 337.455C509.523 362.513 503.726 384.766 503.726 404.214ZM836.892 137.738C838.388 132.128 841.567 127.266 846.429 123.152C851.665 119.038 857.462 116.981 863.82 116.981C871.674 116.981 878.219 119.786 883.455 125.396C889.065 131.006 891.87 137.551 891.87 145.031C891.87 146.901 891.496 149.332 890.748 152.324L855.966 277.428L954.141 265.646L984.997 154.007C986.493 148.397 989.672 143.535 994.534 139.421C999.77 135.307 1005.57 133.25 1011.92 133.25C1019.78 133.25 1026.32 136.055 1031.56 141.665C1037.17 147.275 1039.97 153.82 1039.97 161.3C1039.97 163.17 1039.6 165.601 1038.85 168.593L951.897 483.316C950.401 488.926 947.035 493.788 941.799 497.902C936.937 502.016 931.327 504.073 924.969 504.073C917.115 504.073 910.383 501.268 904.773 495.658C899.537 490.048 896.919 483.503 896.919 476.023C896.919 474.153 897.293 471.722 898.041 468.73L938.994 321.186L840.819 332.967L809.964 445.167C808.468 450.777 805.102 455.639 799.866 459.753C795.004 463.868 789.394 465.925 783.036 465.925C775.181 465.925 768.449 463.119 762.839 457.509C757.603 451.899 754.985 445.354 754.985 437.874C754.985 436.004 755.359 433.573 756.107 430.581L781.353 339.699C774.994 338.951 769.197 336.146 763.961 331.284C759.099 326.422 756.668 320.438 756.668 313.332C756.668 306.6 758.912 300.803 763.4 295.941C767.888 290.705 773.311 287.713 779.669 286.965L796.5 284.721L836.892 137.738ZM1228.98 467.047C1227.48 473.031 1224.12 478.08 1218.88 482.194C1214.02 486.308 1208.41 488.365 1202.05 488.365C1194.2 488.365 1187.47 485.56 1181.86 479.95C1176.62 474.714 1174 468.169 1174 460.314C1174 458.818 1174.38 456.574 1175.12 453.582L1225.05 265.085L1064.61 453.582C1062.36 458.07 1058.81 461.81 1053.95 464.803C1049.46 467.795 1044.6 469.291 1039.36 469.291C1031.51 469.291 1024.96 466.486 1019.73 460.875C1014.12 455.265 1011.31 448.72 1011.31 441.24C1011.31 439.37 1011.69 436.939 1012.43 433.947L1084.8 172.52C1086.3 166.91 1089.48 162.048 1094.34 157.934C1099.58 153.82 1105.37 151.763 1111.73 151.763C1119.58 151.763 1126.13 154.568 1131.37 160.178C1136.98 165.788 1139.78 172.333 1139.78 179.813C1139.78 181.683 1139.41 184.114 1138.66 187.106L1099.39 328.479L1258.15 142.226C1260.4 137.738 1263.76 134.185 1268.25 131.567C1272.74 128.575 1277.6 127.079 1282.84 127.079C1290.69 127.079 1297.24 129.884 1302.47 135.494C1308.08 140.73 1310.89 147.275 1310.89 155.129C1310.89 156.625 1310.51 158.869 1309.76 161.861L1228.98 467.047ZM1301.34 612.907C1299.84 618.891 1296.47 623.94 1291.24 628.054C1286.38 632.168 1280.77 634.225 1274.41 634.225C1266.55 634.225 1260.01 631.42 1254.77 625.81C1249.16 620.574 1246.36 614.029 1246.36 606.175C1246.36 604.679 1246.73 602.435 1247.48 599.443L1388.29 82.7595C1389.79 76.7755 1392.97 71.7265 1397.83 67.6125C1403.06 63.4984 1408.86 61.4414 1415.22 61.4414C1423.07 61.4414 1429.62 64.2465 1434.86 69.8565C1440.47 75.0925 1443.27 81.6375 1443.27 89.4916C1443.27 90.9876 1442.9 93.2316 1442.15 96.2236L1420.27 177.008C1440.47 153.82 1461.97 142.226 1484.78 142.226C1504.98 142.226 1521.06 150.267 1533.03 166.349C1545 182.431 1550.98 203.188 1550.98 228.62C1550.98 259.662 1542.01 292.014 1524.05 325.674C1506.1 358.96 1480.86 389.628 1448.32 417.678C1415.78 445.354 1378.75 466.673 1337.24 481.633L1301.34 612.907ZM1355.19 415.434C1382.87 400.848 1407.18 382.896 1428.12 361.578C1449.44 340.26 1465.9 318.007 1477.49 294.819C1489.09 271.257 1494.88 249.19 1494.88 228.62C1494.88 206.18 1489.65 194.96 1479.17 194.96C1467.58 194.96 1452.62 208.237 1434.29 234.791C1415.97 260.971 1397.08 293.884 1377.63 333.528L1355.19 415.434ZM1534.39 638.152C1529.15 643.388 1522.8 646.006 1515.32 646.006C1507.84 646.006 1501.48 643.388 1496.24 638.152C1491.01 632.916 1488.39 626.558 1488.39 619.078C1488.39 611.598 1491.01 605.24 1496.24 600.004C1545.61 553.628 1588.62 503.512 1625.27 449.655C1615.17 407.393 1607.13 367.562 1601.15 330.162C1595.16 292.388 1590.12 249.19 1586 200.57C1585.25 192.716 1587.68 185.797 1593.29 179.813C1598.9 173.455 1605.82 170.276 1614.05 170.276C1621.16 170.276 1627.33 172.894 1632.56 178.13C1638.17 182.992 1641.35 188.976 1642.1 196.082C1647.71 264.15 1656.31 326.048 1667.91 381.774C1688.48 345.496 1707.18 307.535 1724.01 267.89C1741.21 227.872 1758.23 183.927 1775.06 136.055C1776.93 130.445 1780.3 125.957 1785.16 122.591C1790.02 118.851 1795.44 116.981 1801.43 116.981C1808.91 116.981 1815.45 119.786 1821.06 125.396C1826.67 131.006 1829.48 137.551 1829.48 145.031C1829.48 147.649 1828.92 150.641 1827.79 154.007C1804.61 220.205 1780.67 279.672 1755.99 332.406C1731.3 385.14 1700.82 437.313 1664.54 488.926C1628.64 540.538 1585.25 590.28 1534.39 638.152ZM2012.29 444.045C2010.79 450.029 2007.43 455.078 2002.19 459.192C1997.33 463.307 1991.72 465.364 1985.36 465.364C1977.51 465.364 1970.78 462.745 1965.17 457.509C1959.93 451.899 1957.31 445.354 1957.31 437.874C1957.31 436.004 1957.68 433.573 1958.43 430.581L1972.46 384.579C1934.31 442.923 1899.34 472.096 1867.55 472.096C1851.09 472.096 1836.51 466.112 1823.79 454.143C1811.45 442.175 1805.28 425.719 1805.28 404.775C1805.28 375.229 1822.48 306.226 1856.89 197.765C1858.76 192.155 1862.13 187.48 1866.99 183.74C1872.23 179.626 1877.84 177.569 1883.82 177.569C1891.3 177.569 1897.84 180.374 1903.45 185.984C1909.06 191.594 1911.87 198.139 1911.87 205.619C1911.87 208.611 1911.5 211.229 1910.75 213.473C1877.84 315.202 1861.38 378.969 1861.38 404.775C1861.38 409.637 1861.94 413.377 1863.06 415.995C1864.56 418.239 1866.05 419.361 1867.55 419.361C1879.89 419.361 1896.54 405.336 1917.48 377.286C1938.8 349.236 1959.37 317.072 1979.19 280.794C1999.39 244.515 2012.85 217.026 2019.58 198.326L2025.75 173.642C2027.25 167.658 2030.43 162.609 2035.29 158.495C2040.53 154.381 2046.32 152.324 2052.68 152.324C2060.54 152.324 2067.08 155.129 2072.32 160.739C2077.93 165.975 2080.73 172.52 2080.73 180.374C2080.73 181.87 2080.36 184.114 2079.61 187.106L2012.29 444.045ZM2007.24 111.371C2001.63 118.103 1994.71 121.469 1986.48 121.469C1979 121.469 1972.46 118.851 1966.85 113.615C1961.61 108.005 1958.99 101.46 1958.99 93.9796C1958.99 87.6216 1961.24 81.8245 1965.73 76.5885L2011.17 26.0982C2016.78 19.3662 2023.7 16.0002 2031.92 16.0002C2039.4 16.0002 2045.76 18.8052 2051 24.4152C2056.61 29.6513 2059.41 36.0093 2059.41 43.4893C2059.41 49.8474 2057.17 55.6444 2052.68 60.8804L2007.24 111.371ZM2065.56 458.07C2066.31 451.338 2069.3 445.728 2074.53 441.24C2079.77 436.378 2085.94 433.947 2093.05 433.947C2101.65 433.947 2108.76 437.126 2114.37 443.484C2119.98 449.842 2122.03 457.322 2120.54 465.925C2116.05 494.349 2105.76 522.212 2089.68 549.514C2084.07 559.238 2076.22 564.1 2066.12 564.1C2059.01 564.1 2053.4 561.856 2049.29 557.368C2045.18 552.88 2043.12 547.27 2043.12 540.538C2043.12 534.928 2044.43 529.505 2047.05 524.269C2054.9 508.187 2061.07 486.121 2065.56 458.07Z" fill="#D3F0FF"/>
<path d="M151.763 400.848L162.822 412.41C162.908 412.329 162.993 412.246 163.076 412.162L151.763 400.848ZM190.472 400.848L201.786 389.534L201.786 389.534L190.472 400.848ZM191.033 438.996L202.177 450.478C202.234 450.422 202.29 450.366 202.347 450.31L191.033 438.996ZM144.47 469.291L150.772 483.997H150.772L144.47 469.291ZM37.3181 457.509L25.4535 468.244H25.4535L37.3181 457.509ZM40.1231 301.551L54.7252 308.091H54.7252L40.1231 301.551ZM109.687 198.326L121.46 209.162V209.162L109.687 198.326ZM215.717 123.152L221.987 137.872C222.063 137.84 222.139 137.806 222.215 137.773L215.717 123.152ZM245.45 128.762L233.725 139.649C233.994 139.938 234.274 140.218 234.563 140.487L245.45 128.762ZM248.816 161.861L235.503 152.986C235.326 153.252 235.157 153.523 234.996 153.799L248.816 161.861ZM238.157 171.398L232.003 156.629C231.94 156.655 231.877 156.682 231.814 156.709L238.157 171.398ZM150.641 233.669L138.933 222.764C138.906 222.792 138.88 222.821 138.853 222.85L150.641 233.669ZM92.2964 319.503L77.7744 312.786C77.7618 312.814 77.7493 312.841 77.7369 312.868L92.2964 319.503ZM122.591 421.044L129.135 435.644C129.273 435.583 129.41 435.519 129.547 435.453L122.591 421.044ZM151.763 400.848L163.076 412.162C165.116 410.123 167.502 408.994 171.398 408.994V392.994V376.994C159.586 376.994 148.882 381.102 140.449 389.534L151.763 400.848ZM171.398 392.994V408.994C174.683 408.994 176.957 409.961 179.158 412.162L190.472 400.848L201.786 389.534C193.515 381.264 183.073 376.994 171.398 376.994V392.994ZM190.472 400.848L179.158 412.162C181.36 414.363 182.326 416.637 182.326 419.922H198.326H214.326C214.326 408.247 210.056 397.805 201.786 389.534L190.472 400.848ZM198.326 419.922H182.326C182.326 424.189 181.147 426.255 179.719 427.683L191.033 438.996L202.347 450.31C210.643 442.013 214.326 431.364 214.326 419.922H198.326ZM191.033 438.996L179.889 427.515C168.741 438.336 154.919 447.405 138.167 454.584L144.47 469.291L150.772 483.997C170.672 475.468 187.893 464.341 202.177 450.478L191.033 438.996ZM144.47 469.291L138.167 454.584C121.316 461.806 106.461 465.072 93.4184 465.072V481.072V497.072C111.792 497.072 130.971 492.483 150.772 483.997L144.47 469.291ZM93.4184 481.072V465.072C74.2729 465.072 60.0546 458.791 49.1827 446.775L37.3181 457.509L25.4535 468.244C43.0058 487.644 66.1876 497.072 93.4184 497.072V481.072ZM37.3181 457.509L49.1827 446.775C38.2223 434.661 32 417.868 32 394.677H16H5.72205e-06C5.72205e-06 423.847 7.98981 448.942 25.4535 468.244L37.3181 457.509ZM16 394.677H32C32 371.593 39.1438 342.878 54.7252 308.091L40.1231 301.551L25.521 295.01C8.93831 332.032 5.72205e-06 365.401 5.72205e-06 394.677H16ZM40.1231 301.551L54.7252 308.091C70.0126 273.961 92.1766 240.976 121.46 209.162L109.687 198.326L97.9153 187.49C66.6101 221.501 42.3979 257.332 25.521 295.01L40.1231 301.551ZM109.687 198.326L121.46 209.162C150.246 177.888 183.724 154.169 221.987 137.872L215.717 123.152L209.447 108.431C166.926 126.542 129.717 152.94 97.9153 187.49L109.687 198.326ZM215.717 123.152L222.215 137.773C223.308 137.287 224.799 136.908 226.937 136.908V120.908V104.908C220.847 104.908 214.858 106.025 209.219 108.531L215.717 123.152ZM226.937 120.908V136.908C230.203 136.908 232.047 137.842 233.725 139.649L245.45 128.762L257.175 117.875C249.129 109.21 238.631 104.908 226.937 104.908V120.908ZM245.45 128.762L234.563 140.487C236.37 142.165 237.304 144.009 237.304 147.275H253.304H269.304C269.304 135.581 265.002 125.083 256.337 117.037L245.45 128.762ZM253.304 147.275H237.304C237.304 149.253 236.799 151.042 235.503 152.986L248.816 161.861L262.129 170.736C266.817 163.704 269.304 155.769 269.304 147.275H253.304ZM248.816 161.861L234.996 153.799C234.006 155.496 233.046 156.194 232.003 156.629L238.157 171.398L244.311 186.167C252.245 182.862 258.391 177.202 262.637 169.923L248.816 161.861ZM238.157 171.398L231.814 156.709C196.789 171.834 165.81 193.911 138.933 222.764L150.641 233.669L162.348 244.575C186.336 218.824 213.701 199.386 244.5 186.087L238.157 171.398ZM150.641 233.669L138.853 222.85C112.814 251.221 92.3866 281.192 77.7744 312.786L92.2964 319.503L106.818 326.219C119.882 297.973 138.351 270.722 162.428 244.488L150.641 233.669ZM92.2964 319.503L77.7369 312.868C63.8133 343.422 56.1003 370.875 56.1003 394.677H72.1003H88.1003C88.1003 377.339 93.8513 354.675 106.856 326.138L92.2964 319.503ZM72.1003 394.677H56.1003C56.1003 407.07 57.9693 419.099 63.9127 428.483C70.6379 439.102 81.2911 444.337 93.4184 444.337V428.337V412.337C92.693 412.337 92.2184 412.266 91.9425 412.204C91.6767 412.144 91.5645 412.086 91.5437 412.075C91.5265 412.066 91.4967 412.05 91.4316 411.989C91.3601 411.921 91.1869 411.74 90.9469 411.361C89.7843 409.526 88.1003 404.724 88.1003 394.677H72.1003ZM93.4184 428.337V444.337C104.964 444.337 116.968 441.099 129.135 435.644L122.591 421.044L116.046 406.444C106.521 410.714 99.077 412.337 93.4184 412.337V428.337ZM122.591 421.044L129.547 435.453C141.883 429.498 152.995 421.81 162.822 412.41L151.763 400.848L140.703 389.286C133.326 396.342 124.99 402.119 115.635 406.635L122.591 421.044ZM272.808 482.755L257.373 478.538C257.323 478.721 257.277 478.905 257.233 479.09L272.808 482.755ZM262.71 497.902L253.41 484.882C253.054 485.136 252.709 485.405 252.375 485.688L262.71 497.902ZM225.684 495.658L236.997 484.344V484.344L225.684 495.658ZM218.952 469.291L203.526 465.043C203.492 465.165 203.46 465.287 203.429 465.41L218.952 469.291ZM310.395 137.177L325.821 141.424C325.874 141.231 325.924 141.037 325.97 140.841L310.395 137.177ZM319.932 122.03L329.687 134.712C329.731 134.678 329.774 134.645 329.817 134.611L319.932 122.03ZM356.958 124.274L345.261 135.191C345.512 135.46 345.772 135.72 346.041 135.971L356.958 124.274ZM364.251 150.641L379.68 154.879C379.712 154.76 379.744 154.641 379.774 154.521L364.251 150.641ZM336.201 252.743L320.773 248.505C318.913 255.273 321.682 262.463 327.601 266.236C333.52 270.008 341.207 269.483 346.558 264.939L336.201 252.743ZM436.621 167.471L446.977 179.667C446.996 179.651 447.015 179.635 447.033 179.619L436.621 167.471ZM473.647 168.593L484.961 157.279L473.647 168.593ZM472.525 207.863L482.877 220.063C483.079 219.892 483.275 219.716 483.468 219.536L472.525 207.863ZM331.713 327.357L321.361 315.157C317.88 318.111 315.826 322.412 315.718 326.976C315.609 331.54 317.455 335.933 320.791 339.049L331.713 327.357ZM433.816 422.727L445.129 411.414C445.001 411.285 444.87 411.159 444.737 411.035L433.816 422.727ZM433.816 460.875L422.502 449.562H422.502L433.816 460.875ZM395.667 460.875L406.981 449.562C406.852 449.433 406.721 449.306 406.587 449.181L395.667 460.875ZM302.541 373.92L313.461 362.225C309.364 358.401 303.565 356.998 298.173 358.528C292.782 360.058 288.584 364.297 287.107 369.703L302.541 373.92ZM272.808 482.755L257.233 479.09C256.611 481.735 255.437 483.434 253.41 484.882L262.71 497.902L272.01 510.921C280.454 504.89 286.013 496.49 288.383 486.419L272.808 482.755ZM262.71 497.902L252.375 485.688C250.396 487.362 248.446 488.073 245.88 488.073V504.073V520.073C256.029 520.073 265.299 516.67 273.045 510.116L262.71 497.902ZM245.88 504.073V488.073C242.317 488.073 239.641 486.988 236.997 484.344L225.684 495.658L214.37 506.971C222.946 515.548 233.734 520.073 245.88 520.073V504.073ZM225.684 495.658L236.997 484.344C234.958 482.305 233.83 479.919 233.83 476.023H217.83H201.83C201.83 487.834 205.937 498.539 214.37 506.971L225.684 495.658ZM217.83 476.023H233.83C233.83 476.484 233.784 476.499 233.892 475.848C233.99 475.263 234.17 474.388 234.474 473.171L218.952 469.291L203.429 465.41C202.625 468.628 201.83 472.461 201.83 476.023H217.83ZM218.952 469.291L234.378 473.538L325.821 141.424L310.395 137.177L294.969 132.929L203.526 465.043L218.952 469.291ZM310.395 137.177L325.97 140.841C326.681 137.819 327.943 136.054 329.687 134.712L319.932 122.03L310.177 109.348C302.197 115.486 297.101 123.818 294.82 133.512L310.395 137.177ZM319.932 122.03L329.817 134.611C332.378 132.599 334.729 131.859 337.323 131.859V115.859V99.8587C327.202 99.8587 317.958 103.233 310.047 109.449L319.932 122.03ZM337.323 115.859V131.859C340.86 131.859 343.131 132.908 345.261 135.191L356.958 124.274L368.655 113.357C360.314 104.419 349.494 99.8587 337.323 99.8587V115.859ZM356.958 124.274L346.041 135.971C348.324 138.101 349.373 140.372 349.373 143.909H365.373H381.373C381.373 131.738 376.813 120.918 367.875 112.577L356.958 124.274ZM365.373 143.909H349.373C349.373 143.447 349.419 143.433 349.311 144.083C349.213 144.668 349.033 145.543 348.729 146.76L364.251 150.641L379.774 154.521C380.578 151.304 381.373 147.471 381.373 143.909H365.373ZM364.251 150.641L348.823 146.402L320.773 248.505L336.201 252.743L351.63 256.982L379.68 154.879L364.251 150.641ZM336.201 252.743L346.558 264.939L446.977 179.667L436.621 167.471L426.264 155.275L325.845 240.547L336.201 252.743ZM436.621 167.471L447.033 179.619C449.447 177.55 451.761 176.739 454.573 176.739V160.739V144.739C443.921 144.739 434.266 148.416 426.208 155.323L436.621 167.471ZM454.573 160.739V176.739C457.858 176.739 460.132 177.705 462.333 179.907L473.647 168.593L484.961 157.279C476.69 149.009 466.248 144.739 454.573 144.739V160.739ZM473.647 168.593L462.333 179.907C464.535 182.108 465.501 184.382 465.501 187.667H481.501H497.501C497.501 175.992 493.231 165.55 484.961 157.279L473.647 168.593ZM481.501 187.667H465.501C465.501 190.882 464.501 193.454 461.582 196.191L472.525 207.863L483.468 219.536C492.517 211.052 497.501 200.16 497.501 187.667H481.501ZM472.525 207.863L462.172 195.664L321.361 315.157L331.713 327.357L342.066 339.556L482.877 220.063L472.525 207.863ZM331.713 327.357L320.791 339.049L422.894 434.42L433.816 422.727L444.737 411.035L342.635 315.664L331.713 327.357ZM433.816 422.727L422.502 434.041C424.703 436.242 425.67 438.516 425.67 441.801H441.67H457.67C457.67 430.126 453.4 419.684 445.129 411.414L433.816 422.727ZM441.67 441.801H425.67C425.67 445.086 424.703 447.36 422.502 449.562L433.816 460.875L445.129 472.189C453.4 463.919 457.67 453.476 457.67 441.801H441.67ZM433.816 460.875L422.502 449.562C420.301 451.763 418.027 452.73 414.742 452.73V468.73V484.73C426.417 484.73 436.859 480.46 445.129 472.189L433.816 460.875ZM414.742 468.73V452.73C411.457 452.73 409.183 451.763 406.981 449.562L395.667 460.875L384.354 472.189C392.624 480.46 403.066 484.73 414.742 484.73V468.73ZM395.667 460.875L406.587 449.181L313.461 362.225L302.541 373.92L291.621 385.615L384.748 472.57L395.667 460.875ZM302.541 373.92L287.107 369.703L257.373 478.538L272.808 482.755L288.242 486.971L317.975 378.137L302.541 373.92ZM478.481 297.624L492.683 304.993C492.693 304.975 492.702 304.956 492.711 304.938L478.481 297.624ZM557.022 195.521L546.505 183.463C546.482 183.483 546.459 183.503 546.436 183.524L557.022 195.521ZM715.224 187.106L701.107 194.635C701.139 194.696 701.172 194.757 701.205 194.817L715.224 187.106ZM726.444 372.798L710.713 369.877C710.702 369.937 710.691 369.997 710.681 370.057L726.444 372.798ZM709.053 448.533L724.403 453.048C724.412 453.019 724.42 452.989 724.429 452.96L709.053 448.533ZM698.955 463.681L689.2 450.999V450.999L698.955 463.681ZM662.49 460.875L651.176 472.189V472.189L662.49 460.875ZM655.197 433.947L639.813 429.552C639.764 429.723 639.718 429.894 639.675 430.067L655.197 433.947ZM671.466 364.383L687.212 367.222C687.215 367.208 687.217 367.193 687.22 367.178L671.466 364.383ZM671.466 223.571L686.597 218.37C684.328 211.768 678.041 207.4 671.062 207.576C664.084 207.753 658.025 212.433 656.092 219.14L671.466 223.571ZM594.609 416.556L608.19 425.015C608.201 424.997 608.212 424.979 608.223 424.962L594.609 416.556ZM463.334 459.192L450.337 468.524C450.428 468.65 450.52 468.775 450.615 468.899L463.334 459.192ZM505.409 422.166L489.973 426.376C490.008 426.506 490.045 426.635 490.084 426.764L505.409 422.166ZM535.703 405.897L523.334 395.748C523.282 395.812 523.23 395.877 523.178 395.941L535.703 405.897ZM575.535 336.894L590.047 343.632C590.057 343.61 590.067 343.588 590.077 343.566L575.535 336.894ZM618.732 216.839L634.08 221.36C635.932 215.071 633.761 208.288 628.6 204.245C623.439 200.201 616.333 199.715 610.67 203.019L618.732 216.839ZM564.876 266.207L552.382 256.212C552.375 256.221 552.368 256.23 552.361 256.238L564.876 266.207ZM521.117 337.455L535.638 344.174C535.651 344.146 535.663 344.119 535.676 344.092L521.117 337.455ZM447.626 404.214H463.626C463.626 376.214 472.828 343.259 492.683 304.993L478.481 297.624L464.279 290.255C442.994 331.276 431.626 369.382 431.626 404.214H447.626ZM478.481 297.624L492.711 304.938C512.426 266.585 537.403 234.169 567.607 207.519L557.022 195.521L546.436 183.524C513.059 212.973 485.677 248.626 464.251 290.309L478.481 297.624ZM557.022 195.521L567.538 207.58C597.839 181.155 626.04 169.446 652.392 169.446V153.446V137.446C615.912 137.446 580.533 153.787 546.505 183.463L557.022 195.521ZM652.392 153.446V169.446C677.661 169.446 692.465 178.433 701.107 194.635L715.224 187.106L729.342 179.577C714.047 150.899 686.963 137.446 652.392 137.446V153.446ZM715.224 187.106L701.205 194.817C711.697 213.894 717.737 242.409 717.737 281.916H733.737H749.737C749.737 239.89 743.436 205.199 729.244 179.395L715.224 187.106ZM733.737 281.916H717.737C717.737 315.611 715.353 344.891 710.713 369.877L726.444 372.798L742.175 375.72C747.259 348.344 749.737 317.036 749.737 281.916H733.737ZM726.444 372.798L710.681 370.057C706.29 395.306 700.621 419.988 693.678 444.107L709.053 448.533L724.429 452.96C731.698 427.711 737.623 401.903 742.208 375.539L726.444 372.798ZM709.053 448.533L693.703 444.019C692.707 447.407 691.161 449.49 689.2 450.999L698.955 463.681L708.711 476.362C716.473 470.391 721.66 462.376 724.403 453.048L709.053 448.533ZM698.955 463.681L689.2 450.999C687.243 452.504 685.093 453.291 682.125 453.291V469.291V485.291C691.873 485.291 700.944 482.337 708.711 476.362L698.955 463.681ZM682.125 469.291V453.291C679.166 453.291 676.615 452.373 673.804 449.562L662.49 460.875L651.176 472.189C659.585 480.598 670.124 485.291 682.125 485.291V469.291ZM662.49 460.875L673.804 449.562C670.992 446.75 670.075 444.2 670.075 441.24H654.075H638.075C638.075 453.241 642.768 463.781 651.176 472.189L662.49 460.875ZM654.075 441.24H670.075C670.075 441.328 670.07 441.093 670.169 440.448C670.266 439.822 670.436 438.96 670.719 437.828L655.197 433.947L639.675 430.067C638.786 433.622 638.075 437.493 638.075 441.24H654.075ZM655.197 433.947L670.581 438.343C677.452 414.297 682.998 390.59 687.212 367.222L671.466 364.383L655.72 361.544C651.706 383.805 646.407 406.473 639.813 429.552L655.197 433.947ZM671.466 364.383L687.22 367.178C691.543 342.811 693.637 314.341 693.637 281.916H677.637H661.637C661.637 313.07 659.617 339.578 655.712 361.588L671.466 364.383ZM677.637 281.916H693.637C693.637 254.752 691.633 233.02 686.597 218.37L671.466 223.571L656.335 228.773C659.527 238.058 661.637 255.222 661.637 281.916H677.637ZM671.466 223.571L656.092 219.14C631.554 304.279 606.415 366.977 580.994 408.151L594.609 416.556L608.223 424.962C635.911 380.115 662.01 314.156 686.84 228.002L671.466 223.571ZM594.609 416.556L581.027 408.098C555.521 449.052 530.932 464.511 508.214 464.511V480.511V496.511C547.581 496.511 580.589 469.333 608.19 425.015L594.609 416.556ZM508.214 480.511V464.511C493.742 464.511 483.645 459.434 476.053 449.486L463.334 459.192L450.615 468.899C464.715 487.375 484.539 496.511 508.214 496.511V480.511ZM463.334 459.192L476.331 449.861C468.221 438.565 463.626 423.711 463.626 404.214H447.626H431.626C431.626 428.85 437.503 450.648 450.337 468.524L463.334 459.192ZM503.726 404.214H487.726C487.726 412.511 488.286 420.189 489.973 426.376L505.409 422.166L520.845 417.956C520.289 415.916 519.726 411.626 519.726 404.214H503.726ZM505.409 422.166L490.084 426.764C490.724 428.898 491.551 431.348 492.641 433.529C493.154 434.554 494.129 436.355 495.725 438.129C496.99 439.534 501.197 443.776 508.214 443.776V427.776V411.776C514.857 411.776 518.667 415.785 519.511 416.722C520.687 418.029 521.218 419.129 521.263 419.218C521.418 419.53 521.216 419.175 520.734 417.569L505.409 422.166ZM508.214 427.776V443.776C517.036 443.776 524.57 439.226 530.1 434.825C536.016 430.116 542.064 423.608 548.229 415.853L535.703 405.897L523.178 395.941C517.748 402.772 513.418 407.204 510.172 409.788C506.538 412.68 506.125 411.776 508.214 411.776V427.776ZM535.703 405.897L548.073 416.046C561.331 399.888 575.281 375.434 590.047 343.632L575.535 336.894L561.022 330.156C546.616 361.186 534.012 382.734 523.334 395.748L535.703 405.897ZM575.535 336.894L590.077 343.566C605.088 310.85 619.736 270.053 634.08 221.36L618.732 216.839L603.384 212.318C589.303 260.118 575.154 299.357 560.992 330.221L575.535 336.894ZM618.732 216.839L610.67 203.019C590.503 214.783 571.126 232.782 552.382 256.212L564.876 266.207L577.369 276.203C594.53 254.752 611.057 239.84 626.794 230.66L618.732 216.839ZM564.876 266.207L552.361 256.238C533.976 279.318 518.701 304.184 506.559 330.818L521.117 337.455L535.676 344.092C546.722 319.861 560.619 297.229 577.39 276.177L564.876 266.207ZM521.117 337.455L506.596 330.736C494.408 357.078 487.726 381.685 487.726 404.214H503.726H519.726C519.726 387.848 524.638 367.948 535.638 344.174L521.117 337.455ZM836.892 137.738L852.32 141.978C852.331 141.939 852.341 141.9 852.352 141.86L836.892 137.738ZM846.429 123.152L836.544 110.571C836.392 110.69 836.241 110.813 836.094 110.938L846.429 123.152ZM883.455 125.396L871.758 136.313C871.884 136.447 872.011 136.579 872.141 136.709L883.455 125.396ZM890.748 152.324L906.163 156.61C906.201 156.475 906.236 156.34 906.27 156.204L890.748 152.324ZM855.966 277.428L840.551 273.142C839.121 278.284 840.35 283.801 843.827 287.851C847.305 291.901 852.572 293.95 857.872 293.314L855.966 277.428ZM954.141 265.646L956.048 281.533C962.494 280.759 967.834 276.167 969.563 269.909L954.141 265.646ZM984.997 154.007L1000.42 158.269C1000.43 158.223 1000.44 158.176 1000.46 158.13L984.997 154.007ZM994.534 139.421L984.648 126.84C984.496 126.959 984.346 127.082 984.199 127.207L994.534 139.421ZM1031.56 141.665L1019.86 152.582C1019.99 152.716 1020.12 152.849 1020.25 152.979L1031.56 141.665ZM1038.85 168.593L1054.28 172.854C1054.31 172.728 1054.34 172.601 1054.38 172.473L1038.85 168.593ZM951.897 483.316L936.475 479.055C936.462 479.101 936.45 479.147 936.438 479.193L951.897 483.316ZM941.799 497.902L931.914 485.321C931.762 485.44 931.612 485.562 931.464 485.688L941.799 497.902ZM904.773 495.658L893.076 506.575C893.202 506.709 893.329 506.841 893.459 506.971L904.773 495.658ZM898.041 468.73L882.624 464.45C882.587 464.583 882.552 464.716 882.519 464.849L898.041 468.73ZM938.994 321.186L954.411 325.465C955.839 320.323 954.608 314.808 951.131 310.76C947.653 306.712 942.387 304.664 937.088 305.3L938.994 321.186ZM840.819 332.967L838.913 317.081C832.459 317.855 827.115 322.457 825.392 328.724L840.819 332.967ZM809.964 445.167L794.536 440.925C794.525 440.965 794.515 441.005 794.504 441.045L809.964 445.167ZM799.866 459.753L789.98 447.172C789.828 447.292 789.678 447.414 789.531 447.539L799.866 459.753ZM762.839 457.509L751.143 468.427C751.268 468.561 751.396 468.693 751.526 468.823L762.839 457.509ZM756.107 430.581L740.691 426.299C740.654 426.432 740.619 426.566 740.585 426.701L756.107 430.581ZM781.353 339.699L796.769 343.981C798.019 339.48 797.24 334.657 794.635 330.779C792.031 326.901 787.862 324.354 783.222 323.808L781.353 339.699ZM763.961 331.284L752.648 342.598C752.787 342.737 752.93 342.874 753.074 343.009L763.961 331.284ZM763.4 295.941L775.157 306.793C775.29 306.649 775.421 306.502 775.548 306.353L763.4 295.941ZM779.669 286.965L781.539 302.855C781.621 302.845 781.702 302.835 781.784 302.824L779.669 286.965ZM796.5 284.721L798.614 300.58C804.982 299.731 810.225 295.155 811.928 288.96L796.5 284.721ZM836.892 137.738L852.352 141.86C852.924 139.714 854.143 137.584 856.764 135.366L846.429 123.152L836.094 110.938C828.991 116.948 823.852 124.542 821.432 133.615L836.892 137.738ZM846.429 123.152L856.314 135.733C858.875 133.721 861.225 132.981 863.82 132.981V116.981V100.981C853.699 100.981 844.455 104.354 836.544 110.571L846.429 123.152ZM863.82 116.981V132.981C867.357 132.981 869.628 134.03 871.758 136.313L883.455 125.396L895.152 114.479C886.81 105.541 875.991 100.981 863.82 100.981V116.981ZM883.455 125.396L872.141 136.709C874.953 139.521 875.87 142.072 875.87 145.031H891.87H907.87C907.87 133.03 903.177 122.491 894.769 114.082L883.455 125.396ZM891.87 145.031H875.87C875.87 144.944 875.875 145.178 875.776 145.824C875.679 146.449 875.509 147.311 875.226 148.443L890.748 152.324L906.27 156.204C907.159 152.649 907.87 148.778 907.87 145.031H891.87ZM890.748 152.324L875.333 148.038L840.551 273.142L855.966 277.428L871.381 281.713L906.163 156.61L890.748 152.324ZM855.966 277.428L857.872 293.314L956.048 281.533L954.141 265.646L952.235 249.76L854.06 261.542L855.966 277.428ZM954.141 265.646L969.563 269.909L1000.42 158.269L984.997 154.007L969.575 149.745L938.72 261.384L954.141 265.646ZM984.997 154.007L1000.46 158.13C1001.03 155.983 1002.25 153.853 1004.87 151.635L994.534 139.421L984.199 127.207C977.095 133.217 971.956 140.811 969.537 149.884L984.997 154.007ZM994.534 139.421L1004.42 152.002C1006.98 149.99 1009.33 149.25 1011.92 149.25V133.25V117.25C1001.8 117.25 992.56 120.624 984.648 126.84L994.534 139.421ZM1011.92 133.25V149.25C1015.46 149.25 1017.73 150.299 1019.86 152.582L1031.56 141.665L1043.26 130.748C1034.92 121.81 1024.1 117.25 1011.92 117.25V133.25ZM1031.56 141.665L1020.25 152.979C1023.06 155.79 1023.97 158.341 1023.97 161.3H1039.97H1055.97C1055.97 149.299 1051.28 138.76 1042.87 130.351L1031.56 141.665ZM1039.97 161.3H1023.97C1023.97 161.213 1023.98 161.447 1023.88 162.093C1023.78 162.718 1023.61 163.58 1023.33 164.712L1038.85 168.593L1054.38 172.473C1055.26 168.918 1055.97 165.047 1055.97 161.3H1039.97ZM1038.85 168.593L1023.43 164.332L936.475 479.055L951.897 483.316L967.32 487.577L1054.28 172.854L1038.85 168.593ZM951.897 483.316L936.438 479.193C935.962 480.975 934.842 483.02 931.914 485.321L941.799 497.902L951.684 510.483C959.228 504.555 964.84 496.876 967.357 487.438L951.897 483.316ZM941.799 497.902L931.464 485.688C929.486 487.362 927.536 488.073 924.969 488.073V504.073V520.073C935.119 520.073 944.389 516.67 952.134 510.116L941.799 497.902ZM924.969 504.073V488.073C921.407 488.073 918.731 486.988 916.087 484.344L904.773 495.658L893.459 506.971C902.036 515.548 912.824 520.073 924.969 520.073V504.073ZM904.773 495.658L916.47 484.741C913.92 482.008 912.919 479.335 912.919 476.023H896.919H880.919C880.919 487.67 885.154 498.087 893.076 506.575L904.773 495.658ZM896.919 476.023H912.919C912.919 476.11 912.914 475.875 913.014 475.23C913.11 474.605 913.28 473.742 913.563 472.61L898.041 468.73L882.519 464.849C881.63 468.404 880.919 472.276 880.919 476.023H896.919ZM898.041 468.73L913.458 473.009L954.411 325.465L938.994 321.186L923.577 316.906L882.624 464.45L898.041 468.73ZM938.994 321.186L937.088 305.3L838.913 317.081L840.819 332.967L842.725 348.853L940.901 337.072L938.994 321.186ZM840.819 332.967L825.392 328.724L794.536 440.925L809.964 445.167L825.391 449.41L856.246 337.209L840.819 332.967ZM809.964 445.167L794.504 441.045C794.029 442.827 792.909 444.872 789.98 447.172L799.866 459.753L809.751 472.335C817.295 466.407 822.907 458.728 825.423 449.29L809.964 445.167ZM799.866 459.753L789.531 447.539C787.552 449.214 785.602 449.924 783.035 449.924V465.924V481.924C793.185 481.924 802.455 478.521 810.201 471.968L799.866 459.753ZM783.035 465.924V449.924C779.473 449.924 776.797 448.839 774.153 446.196L762.839 457.509L751.526 468.823C760.102 477.4 770.89 481.924 783.035 481.924V465.924ZM762.839 457.509L774.536 446.592C771.986 443.86 770.985 441.187 770.985 437.874H754.985H738.985C738.985 449.522 743.221 459.939 751.143 468.427L762.839 457.509ZM754.985 437.874H770.985C770.985 437.962 770.98 437.727 771.08 437.082C771.176 436.456 771.347 435.594 771.63 434.462L756.107 430.581L740.585 426.701C739.696 430.256 738.985 434.127 738.985 437.874H754.985ZM756.107 430.581L771.524 434.864L796.769 343.981L781.353 339.699L765.936 335.417L740.691 426.299L756.107 430.581ZM781.353 339.699L783.222 323.808C780.624 323.503 777.9 322.392 774.849 319.559L763.961 331.284L753.074 343.009C760.495 349.9 769.365 354.399 779.483 355.589L781.353 339.699ZM763.961 331.284L775.275 319.97C773.524 318.219 772.668 316.353 772.668 313.332H756.668H740.668C740.668 324.523 744.675 334.625 752.648 342.598L763.961 331.284ZM756.668 313.332H772.668C772.668 310.544 773.45 308.643 775.157 306.793L763.4 295.941L751.644 285.088C744.375 292.962 740.668 302.655 740.668 313.332H756.668ZM763.4 295.941L775.548 306.353C777.641 303.912 779.498 303.095 781.539 302.855L779.669 286.965L777.8 271.074C767.125 272.33 758.136 277.497 751.252 285.528L763.4 295.941ZM779.669 286.965L781.784 302.824L798.614 300.58L796.5 284.721L794.385 268.861L777.555 271.105L779.669 286.965ZM796.5 284.721L811.928 288.96L852.32 141.978L836.892 137.738L821.464 133.498L781.072 280.481L796.5 284.721ZM1228.98 467.047L1213.51 462.952C1213.49 463.023 1213.48 463.095 1213.46 463.166L1228.98 467.047ZM1218.88 482.194L1209 469.613C1208.84 469.732 1208.69 469.854 1208.55 469.979L1218.88 482.194ZM1181.86 479.95L1170.54 491.263V491.263L1181.86 479.95ZM1175.12 453.582L1159.66 449.486C1159.64 449.558 1159.62 449.63 1159.6 449.702L1175.12 453.582ZM1225.05 265.085L1240.52 269.182C1242.43 261.959 1239.09 254.373 1232.47 250.909C1225.85 247.445 1217.71 249.024 1212.87 254.715L1225.05 265.085ZM1064.61 453.582L1052.42 443.212C1051.59 444.194 1050.87 445.273 1050.3 446.427L1064.61 453.582ZM1053.95 464.803L1045.56 451.176C1045.4 451.278 1045.23 451.382 1045.07 451.49L1053.95 464.803ZM1019.73 460.875L1031.42 449.958C1031.3 449.824 1031.17 449.692 1031.04 449.562L1019.73 460.875ZM1012.43 433.947L997.013 429.679C996.977 429.808 996.943 429.937 996.911 430.067L1012.43 433.947ZM1084.8 172.52L1100.22 176.789C1100.24 176.74 1100.25 176.691 1100.26 176.643L1084.8 172.52ZM1094.34 157.934L1084.45 145.353C1084.3 145.472 1084.15 145.595 1084 145.72L1094.34 157.934ZM1131.37 160.178L1119.67 171.095C1119.79 171.229 1119.92 171.362 1120.05 171.492L1131.37 160.178ZM1138.66 187.106L1154.08 191.388C1154.11 191.255 1154.15 191.121 1154.18 190.987L1138.66 187.106ZM1099.39 328.479L1083.97 324.197C1081.96 331.429 1085.25 339.086 1091.88 342.608C1098.51 346.13 1106.7 344.571 1111.57 338.858L1099.39 328.479ZM1258.15 142.226L1270.33 152.605C1271.17 151.621 1271.88 150.538 1272.46 149.381L1258.15 142.226ZM1268.25 131.567L1276.31 145.387C1276.59 145.226 1276.86 145.057 1277.13 144.88L1268.25 131.567ZM1302.47 135.494L1290.77 146.411C1291.03 146.68 1291.29 146.94 1291.55 147.191L1302.47 135.494ZM1309.76 161.861L1325.23 165.955C1325.25 165.884 1325.27 165.813 1325.29 165.741L1309.76 161.861ZM1228.98 467.047L1213.46 463.166C1212.89 465.423 1211.68 467.507 1209 469.613L1218.88 482.194L1228.77 494.775C1236.56 488.652 1242.07 480.638 1244.5 470.927L1228.98 467.047ZM1218.88 482.194L1208.55 469.979C1206.57 471.654 1204.62 472.365 1202.05 472.365V488.365V504.365C1212.2 504.365 1221.47 500.962 1229.22 494.408L1218.88 482.194ZM1202.05 488.365V472.365C1198.49 472.365 1195.81 471.28 1193.17 468.636L1181.86 479.95L1170.54 491.263C1179.12 499.84 1189.91 504.365 1202.05 504.365V488.365ZM1181.86 479.95L1193.17 468.636C1191.13 466.597 1190 464.211 1190 460.314H1174H1158C1158 472.126 1162.11 482.831 1170.54 491.263L1181.86 479.95ZM1174 460.314H1190C1190 460.776 1189.96 460.791 1190.06 460.14C1190.16 459.555 1190.34 458.68 1190.65 457.463L1175.12 453.582L1159.6 449.702C1158.8 452.92 1158 456.752 1158 460.314H1174ZM1175.12 453.582L1190.59 457.679L1240.52 269.182L1225.05 265.085L1209.59 260.989L1159.66 449.486L1175.12 453.582ZM1225.05 265.085L1212.87 254.715L1052.42 443.212L1064.61 453.582L1076.79 463.953L1237.24 275.456L1225.05 265.085ZM1064.61 453.582L1050.3 446.427C1049.56 447.895 1048.24 449.526 1045.56 451.176L1053.95 464.803L1062.33 478.429C1069.38 474.095 1075.16 468.246 1078.92 460.738L1064.61 453.582ZM1053.95 464.803L1045.07 451.49C1043.13 452.786 1041.34 453.291 1039.36 453.291V469.291V485.291C1047.86 485.291 1055.79 482.803 1062.82 478.115L1053.95 464.803ZM1039.36 469.291V453.291C1035.82 453.291 1033.55 452.241 1031.42 449.958L1019.73 460.875L1008.03 471.793C1016.37 480.73 1027.19 485.291 1039.36 485.291V469.291ZM1019.73 460.875L1031.04 449.562C1028.23 446.75 1027.31 444.2 1027.31 441.24H1011.31H995.311C995.311 453.241 1000 463.781 1008.41 472.189L1019.73 460.875ZM1011.31 441.24H1027.31C1027.31 441.328 1027.31 441.093 1027.41 440.448C1027.5 439.822 1027.67 438.96 1027.96 437.828L1012.43 433.947L996.911 430.067C996.022 433.622 995.311 437.493 995.311 441.24H1011.31ZM1012.43 433.947L1027.85 438.216L1100.22 176.789L1084.8 172.52L1069.38 168.251L997.013 429.679L1012.43 433.947ZM1084.8 172.52L1100.26 176.643C1100.83 174.496 1102.05 172.366 1104.67 170.148L1094.34 157.934L1084 145.72C1076.9 151.73 1071.76 159.324 1069.34 168.397L1084.8 172.52ZM1094.34 157.934L1104.22 170.515C1106.79 168.503 1109.14 167.763 1111.73 167.763V151.763V135.763C1101.61 135.763 1092.37 139.137 1084.45 145.353L1094.34 157.934ZM1111.73 151.763V167.763C1115.27 167.763 1117.54 168.812 1119.67 171.095L1131.37 160.178L1143.06 149.261C1134.72 140.323 1123.9 135.763 1111.73 135.763V151.763ZM1131.37 160.178L1120.05 171.492C1122.86 174.303 1123.78 176.854 1123.78 179.813H1139.78H1155.78C1155.78 167.812 1151.09 157.273 1142.68 148.864L1131.37 160.178ZM1139.78 179.813H1123.78C1123.78 179.726 1123.79 179.96 1123.69 180.606C1123.59 181.231 1123.42 182.093 1123.14 183.225L1138.66 187.106L1154.18 190.987C1155.07 187.431 1155.78 183.56 1155.78 179.813H1139.78ZM1138.66 187.106L1123.24 182.824L1083.97 324.197L1099.39 328.479L1114.8 332.761L1154.08 191.388L1138.66 187.106ZM1099.39 328.479L1111.57 338.858L1270.33 152.605L1258.15 142.226L1245.98 131.846L1087.21 318.099L1099.39 328.479ZM1258.15 142.226L1272.46 149.381C1273.27 147.778 1274.41 146.497 1276.31 145.387L1268.25 131.567L1260.19 117.746C1253.11 121.873 1247.53 127.698 1243.84 135.07L1258.15 142.226ZM1268.25 131.567L1277.13 144.88C1279.07 143.584 1280.86 143.079 1282.84 143.079V127.079V111.079C1274.34 111.079 1266.41 113.566 1259.38 118.254L1268.25 131.567ZM1282.84 127.079V143.079C1286.37 143.079 1288.64 144.128 1290.77 146.411L1302.47 135.494L1314.17 124.577C1305.83 115.639 1295.01 111.079 1282.84 111.079V127.079ZM1302.47 135.494L1291.55 147.191C1293.84 149.321 1294.89 151.592 1294.89 155.129H1310.89H1326.89C1326.89 142.958 1322.33 132.139 1313.39 123.797L1302.47 135.494ZM1310.89 155.129H1294.89C1294.89 154.668 1294.93 154.653 1294.82 155.304C1294.73 155.888 1294.55 156.763 1294.24 157.98L1309.76 161.861L1325.29 165.741C1326.09 162.524 1326.89 158.691 1326.89 155.129H1310.89ZM1309.76 161.861L1294.3 157.767L1213.51 462.952L1228.98 467.047L1244.45 471.141L1325.23 165.955L1309.76 161.861ZM1301.34 612.907L1285.9 608.686C1285.87 608.799 1285.84 608.913 1285.81 609.027L1301.34 612.907ZM1291.24 628.054L1281.35 615.473C1281.2 615.593 1281.05 615.715 1280.9 615.84L1291.24 628.054ZM1254.77 625.81L1266.47 614.893C1266.22 614.624 1265.96 614.364 1265.69 614.113L1254.77 625.81ZM1247.48 599.443L1232.04 595.236C1232.01 595.345 1231.99 595.453 1231.96 595.563L1247.48 599.443ZM1388.29 82.7596L1403.73 86.9666C1403.76 86.8581 1403.79 86.7492 1403.81 86.6401L1388.29 82.7596ZM1397.83 67.6125L1387.94 55.0313C1387.79 55.1509 1387.64 55.2733 1387.49 55.3983L1397.83 67.6125ZM1434.86 69.8565L1423.16 80.7736C1423.41 81.0424 1423.67 81.3025 1423.94 81.5534L1434.86 69.8565ZM1442.15 96.2236L1457.59 100.406C1457.62 100.306 1457.65 100.205 1457.67 100.104L1442.15 96.2236ZM1420.27 177.008L1404.83 172.825C1402.88 180.021 1406.16 187.609 1412.73 191.121C1419.31 194.633 1427.44 193.138 1432.33 187.517L1420.27 177.008ZM1533.03 166.349L1545.87 156.797V156.797L1533.03 166.349ZM1524.05 325.674L1538.14 333.269C1538.15 333.247 1538.16 333.225 1538.17 333.203L1524.05 325.674ZM1448.32 417.678L1458.69 429.866C1458.71 429.843 1458.74 429.82 1458.77 429.797L1448.32 417.678ZM1337.24 481.633L1331.82 466.58C1326.92 468.346 1323.18 472.387 1321.81 477.412L1337.24 481.633ZM1355.19 415.434L1339.76 411.206C1338.08 417.355 1340.2 423.918 1345.17 427.91C1350.15 431.902 1357.01 432.561 1362.65 429.589L1355.19 415.434ZM1428.12 361.578L1416.81 350.264C1416.78 350.298 1416.74 350.331 1416.71 350.365L1428.12 361.578ZM1477.49 294.819L1491.8 301.974C1491.82 301.944 1491.83 301.913 1491.85 301.883L1477.49 294.819ZM1434.29 234.791L1447.4 243.967C1447.42 243.938 1447.44 243.909 1447.46 243.879L1434.29 234.791ZM1377.63 333.528L1363.27 326.481C1362.82 327.385 1362.47 328.329 1362.2 329.3L1377.63 333.528ZM1301.34 612.907L1285.81 609.027C1285.25 611.284 1284.03 613.367 1281.35 615.473L1291.24 628.054L1301.12 640.635C1308.92 634.513 1314.43 626.498 1316.86 616.788L1301.34 612.907ZM1291.24 628.054L1280.9 615.84C1278.92 617.514 1276.97 618.225 1274.41 618.225V634.225V650.225C1284.56 650.225 1293.83 646.822 1301.57 640.269L1291.24 628.054ZM1274.41 634.225V618.225C1270.87 618.225 1268.6 617.176 1266.47 614.893L1254.77 625.81L1243.08 636.727C1251.42 645.665 1262.24 650.225 1274.41 650.225V634.225ZM1254.77 625.81L1265.69 614.113C1263.41 611.983 1262.36 609.712 1262.36 606.175H1246.36H1230.36C1230.36 618.346 1234.92 629.166 1243.86 637.507L1254.77 625.81ZM1246.36 606.175H1262.36C1262.36 606.637 1262.31 606.651 1262.42 606.001C1262.52 605.416 1262.7 604.541 1263 603.324L1247.48 599.443L1231.96 595.563C1231.15 598.78 1230.36 602.613 1230.36 606.175H1246.36ZM1247.48 599.443L1262.92 603.65L1403.73 86.9666L1388.29 82.7596L1372.85 78.5525L1232.04 595.236L1247.48 599.443ZM1388.29 82.7596L1403.81 86.6401C1404.47 84.0202 1405.77 81.8503 1408.16 79.8267L1397.83 67.6125L1387.49 55.3983C1380.16 61.6027 1375.11 69.5308 1372.77 78.879L1388.29 82.7596ZM1397.83 67.6125L1407.71 80.1936C1410.27 78.1817 1412.63 77.4414 1415.22 77.4414V61.4414V45.4414C1405.1 45.4414 1395.86 48.8152 1387.94 55.0313L1397.83 67.6125ZM1415.22 61.4414V77.4414C1418.76 77.4414 1421.03 78.4909 1423.16 80.7736L1434.86 69.8565L1446.55 58.9394C1438.21 50.002 1427.39 45.4414 1415.22 45.4414V61.4414ZM1434.86 69.8565L1423.94 81.5534C1426.22 83.6838 1427.27 85.9545 1427.27 89.4915H1443.27H1459.27C1459.27 77.3206 1454.71 66.5012 1445.77 58.1596L1434.86 69.8565ZM1443.27 89.4915H1427.27C1427.27 89.0302 1427.32 89.0153 1427.21 89.6662C1427.11 90.2508 1426.93 91.1258 1426.63 92.343L1442.15 96.2236L1457.67 100.104C1458.47 96.8864 1459.27 93.0536 1459.27 89.4915H1443.27ZM1442.15 96.2236L1426.7 92.041L1404.83 172.825L1420.27 177.008L1435.71 181.191L1457.59 100.406L1442.15 96.2236ZM1420.27 177.008L1432.33 187.517C1450.6 166.54 1468.06 158.226 1484.78 158.226V142.226V126.226C1455.88 126.226 1430.33 141.1 1408.2 166.5L1420.27 177.008ZM1484.78 142.226V158.226C1499.97 158.226 1511.27 163.912 1520.19 175.901L1533.03 166.349L1545.87 156.797C1530.85 136.622 1509.99 126.226 1484.78 126.226V142.226ZM1533.03 166.349L1520.19 175.901C1529.61 188.557 1534.98 205.697 1534.98 228.62H1550.98H1566.98C1566.98 200.68 1560.38 176.305 1545.87 156.797L1533.03 166.349ZM1550.98 228.62H1534.98C1534.98 256.501 1526.93 286.278 1509.94 318.144L1524.05 325.674L1538.17 333.203C1557.08 297.749 1566.98 262.824 1566.98 228.62H1550.98ZM1524.05 325.674L1509.97 318.079C1493.06 349.431 1469.13 378.612 1437.87 405.56L1448.32 417.678L1458.77 429.797C1492.58 400.645 1519.14 368.489 1538.14 333.269L1524.05 325.674ZM1448.32 417.678L1437.95 405.491C1406.93 431.882 1371.59 452.249 1331.82 466.58L1337.24 481.633L1342.66 496.685C1385.92 481.096 1424.64 458.827 1458.69 429.866L1448.32 417.678ZM1337.24 481.633L1321.81 477.412L1285.9 608.686L1301.34 612.907L1316.77 617.128L1352.67 485.854L1337.24 481.633ZM1355.19 415.434L1362.65 429.589C1391.72 414.269 1417.38 395.342 1439.54 372.791L1428.12 361.578L1416.71 350.365C1396.98 370.45 1374.02 387.428 1347.73 401.28L1355.19 415.434ZM1428.12 361.578L1439.44 372.892C1461.78 350.551 1479.33 326.928 1491.8 301.974L1477.49 294.819L1463.18 287.663C1452.47 309.086 1437.11 329.968 1416.81 350.264L1428.12 361.578ZM1477.49 294.819L1491.85 301.883C1504.23 276.712 1510.88 252.221 1510.88 228.62H1494.88H1478.88C1478.88 246.159 1473.94 265.801 1463.14 287.755L1477.49 294.819ZM1494.88 228.62H1510.88C1510.88 216.661 1509.57 205.421 1505.45 196.609C1503.3 191.997 1500.1 187.44 1495.35 184.044C1490.44 180.537 1484.83 178.96 1479.17 178.96V194.96V210.96C1478.76 210.96 1477.73 210.786 1476.75 210.084C1475.92 209.493 1475.99 209.143 1476.46 210.141C1477.58 212.549 1478.88 218.139 1478.88 228.62H1494.88ZM1479.17 194.96V178.96C1467.47 178.96 1457.1 185.439 1448.64 192.951C1439.79 200.801 1430.63 211.928 1421.13 225.703L1434.29 234.791L1447.46 243.879C1456.28 231.1 1463.76 222.312 1469.88 216.885C1476.38 211.119 1479.28 210.96 1479.17 210.96V194.96ZM1434.29 234.791L1421.19 225.616C1402.25 252.672 1382.95 286.354 1363.27 326.481L1377.63 333.528L1392 340.575C1411.21 301.414 1429.69 269.271 1447.4 243.967L1434.29 234.791ZM1377.63 333.528L1362.2 329.3L1339.76 411.206L1355.19 415.434L1370.62 419.662L1393.06 337.756L1377.63 333.528ZM1534.39 638.152L1523.42 626.501C1523.31 626.612 1523.19 626.724 1523.08 626.839L1534.39 638.152ZM1496.24 638.152L1507.55 626.839V626.839L1496.24 638.152ZM1496.24 600.004L1485.29 588.343C1485.16 588.457 1485.05 588.573 1484.93 588.69L1496.24 600.004ZM1625.27 449.655L1638.5 458.657C1641.03 454.935 1641.88 450.317 1640.83 445.937L1625.27 449.655ZM1601.15 330.162L1585.35 332.665C1585.35 332.673 1585.35 332.682 1585.35 332.69L1601.15 330.162ZM1586 200.57L1601.94 199.221C1601.94 199.165 1601.93 199.109 1601.93 199.053L1586 200.57ZM1593.29 179.813L1604.97 190.756C1605.08 190.639 1605.19 190.52 1605.29 190.399L1593.29 179.813ZM1632.56 178.13L1621.25 189.444C1621.52 189.713 1621.8 189.972 1622.09 190.221L1632.56 178.13ZM1642.1 196.082L1658.05 194.768C1658.04 194.648 1658.03 194.527 1658.01 194.407L1642.1 196.082ZM1667.91 381.774L1652.24 385.033C1653.6 391.553 1658.85 396.551 1665.43 397.581C1672.01 398.612 1678.54 395.459 1681.83 389.666L1667.91 381.774ZM1724.01 267.89L1709.31 261.571C1709.3 261.593 1709.29 261.616 1709.28 261.638L1724.01 267.89ZM1775.06 136.055L1790.15 141.361C1790.18 141.279 1790.21 141.197 1790.24 141.114L1775.06 136.055ZM1785.16 122.591L1794.26 135.746C1794.48 135.594 1794.7 135.436 1794.91 135.273L1785.16 122.591ZM1821.06 125.396L1832.38 114.082V114.082L1821.06 125.396ZM1827.79 154.007L1842.89 159.296C1842.92 159.22 1842.95 159.143 1842.97 159.067L1827.79 154.007ZM1755.99 332.406L1741.49 325.623V325.623L1755.99 332.406ZM1664.54 488.926L1651.45 479.725C1651.44 479.746 1651.42 479.767 1651.41 479.789L1664.54 488.926ZM1534.39 638.152L1523.08 626.839C1520.87 629.04 1518.6 630.006 1515.32 630.006V646.006V662.006C1526.99 662.006 1537.43 657.737 1545.7 649.466L1534.39 638.152ZM1515.32 646.006V630.006C1512.03 630.006 1509.76 629.04 1507.55 626.839L1496.24 638.152L1484.93 649.466C1493.2 657.737 1503.64 662.006 1515.32 662.006V646.006ZM1496.24 638.152L1507.55 626.839C1505.35 624.637 1504.39 622.363 1504.39 619.078H1488.39H1472.39C1472.39 630.753 1476.66 641.195 1484.93 649.466L1496.24 638.152ZM1488.39 619.078H1504.39C1504.39 615.793 1505.35 613.519 1507.55 611.318L1496.24 600.004L1484.93 588.69C1476.66 596.961 1472.39 607.403 1472.39 619.078H1488.39ZM1496.24 600.004L1507.2 611.666C1557.38 564.521 1601.16 513.518 1638.5 458.657L1625.27 449.655L1612.04 440.653C1576.08 493.505 1533.84 542.735 1485.29 588.343L1496.24 600.004ZM1625.27 449.655L1640.83 445.937C1630.82 404.013 1622.86 364.581 1616.95 327.634L1601.15 330.162L1585.35 332.69C1591.41 370.543 1599.53 410.774 1609.71 453.374L1625.27 449.655ZM1601.15 330.162L1616.95 327.658C1611.04 290.354 1606.03 247.554 1601.94 199.221L1586 200.57L1570.06 201.919C1574.2 250.826 1579.29 294.421 1585.35 332.665L1601.15 330.162ZM1586 200.57L1601.93 199.053C1601.64 195.973 1602.36 193.541 1604.97 190.756L1593.29 179.813L1581.62 168.87C1573.01 178.053 1568.87 189.459 1570.07 202.087L1586 200.57ZM1593.29 179.813L1605.29 190.399C1607.97 187.363 1610.57 186.276 1614.05 186.276V170.276V154.276C1601.08 154.276 1589.84 159.547 1581.3 169.227L1593.29 179.813ZM1614.05 170.276V186.276C1616.72 186.276 1618.87 187.068 1621.25 189.444L1632.56 178.13L1643.88 166.816C1635.78 158.72 1625.6 154.276 1614.05 154.276V170.276ZM1632.56 178.13L1622.09 190.221C1624.76 192.54 1625.88 194.857 1626.19 197.757L1642.1 196.082L1658.01 194.407C1656.82 183.095 1651.59 173.444 1643.04 166.039L1632.56 178.13ZM1642.1 196.082L1626.16 197.396C1631.81 265.994 1640.49 328.553 1652.24 385.033L1667.91 381.774L1683.57 378.515C1672.14 323.542 1663.61 262.307 1658.05 194.768L1642.1 196.082ZM1667.91 381.774L1681.83 389.666C1702.71 352.84 1721.68 314.33 1738.74 274.143L1724.01 267.89L1709.28 261.638C1692.68 300.739 1674.25 338.152 1653.99 373.882L1667.91 381.774ZM1724.01 267.89L1738.71 274.21C1756.08 233.81 1773.22 189.521 1790.15 141.361L1775.06 136.055L1759.97 130.748C1743.24 178.333 1726.35 221.935 1709.31 261.571L1724.01 267.89ZM1775.06 136.055L1790.24 141.114C1791.01 138.789 1792.25 137.141 1794.26 135.746L1785.16 122.591L1776.05 109.436C1768.34 114.772 1762.85 122.101 1759.88 130.995L1775.06 136.055ZM1785.16 122.591L1794.91 135.273C1797.05 133.626 1799.07 132.981 1801.43 132.981V116.981V100.981C1791.82 100.981 1782.99 104.075 1775.4 109.909L1785.16 122.591ZM1801.43 116.981V132.981C1804.39 132.981 1806.94 133.898 1809.75 136.709L1821.06 125.396L1832.38 114.082C1823.97 105.673 1813.43 100.981 1801.43 100.981V116.981ZM1821.06 125.396L1809.75 136.709C1812.56 139.521 1813.48 142.072 1813.48 145.031H1829.48H1845.48C1845.48 133.03 1840.78 122.491 1832.38 114.082L1821.06 125.396ZM1829.48 145.031H1813.48C1813.48 145.44 1813.37 146.673 1812.61 148.947L1827.79 154.007L1842.97 159.067C1844.46 154.609 1845.48 149.858 1845.48 145.031H1829.48ZM1827.79 154.007L1812.69 148.717C1789.65 214.507 1765.91 273.462 1741.49 325.623L1755.99 332.406L1770.48 339.189C1795.43 285.881 1819.56 225.904 1842.89 159.296L1827.79 154.007ZM1755.99 332.406L1741.49 325.623C1717.24 377.445 1687.24 428.813 1651.45 479.725L1664.54 488.926L1677.63 498.126C1714.4 445.813 1745.37 392.835 1770.48 339.189L1755.99 332.406ZM1664.54 488.926L1651.41 479.789C1616.2 530.396 1573.57 579.307 1523.42 626.501L1534.39 638.152L1545.36 649.804C1596.94 601.254 1641.07 550.68 1677.68 498.063L1664.54 488.926ZM2012.29 444.045L1996.81 439.99C1996.8 440.048 1996.78 440.107 1996.77 440.165L2012.29 444.045ZM2002.19 459.192L1992.31 446.611C1992.15 446.731 1992 446.853 1991.86 446.978L2002.19 459.192ZM1965.17 457.509L1953.47 468.427C1953.72 468.695 1953.98 468.955 1954.25 469.206L1965.17 457.509ZM1958.43 430.581L1943.13 425.915C1943.05 426.175 1942.98 426.437 1942.91 426.701L1958.43 430.581ZM1972.46 384.579L1987.76 389.245C1990.09 381.627 1986.45 373.46 1979.24 370.086C1972.02 366.712 1963.43 369.157 1959.07 375.823L1972.46 384.579ZM1823.79 454.143L1812.65 465.63C1812.71 465.685 1812.77 465.74 1812.83 465.795L1823.79 454.143ZM1856.89 197.765L1841.71 192.706C1841.69 192.779 1841.66 192.853 1841.64 192.927L1856.89 197.765ZM1866.99 183.74L1876.74 196.422C1876.79 196.389 1876.83 196.355 1876.87 196.321L1866.99 183.74ZM1910.75 213.473L1895.57 208.414C1895.55 208.458 1895.54 208.503 1895.52 208.548L1910.75 213.473ZM1863.06 415.995L1848.36 422.298C1848.74 423.196 1849.21 424.057 1849.75 424.87L1863.06 415.995ZM1917.48 377.286L1904.74 367.605C1904.71 367.641 1904.69 367.677 1904.66 367.713L1917.48 377.286ZM1979.19 280.794L1965.21 273.011C1965.19 273.048 1965.17 273.085 1965.15 273.122L1979.19 280.794ZM2019.58 198.326L2034.64 203.746C2034.82 203.241 2034.97 202.727 2035.1 202.207L2019.58 198.326ZM2025.75 173.642L2010.23 169.761V169.761L2025.75 173.642ZM2035.29 158.495L2025.41 145.914C2025.25 146.033 2025.1 146.156 2024.96 146.281L2035.29 158.495ZM2072.32 160.739L2060.62 171.656C2060.87 171.925 2061.13 172.185 2061.4 172.436L2072.32 160.739ZM2079.61 187.106L2095.09 191.161C2095.1 191.103 2095.12 191.045 2095.13 190.987L2079.61 187.106ZM2007.24 111.371L1995.35 100.667C1995.21 100.818 1995.08 100.972 1994.95 101.128L2007.24 111.371ZM1966.85 113.615L1955.15 124.532C1955.4 124.801 1955.66 125.061 1955.93 125.312L1966.85 113.615ZM1965.73 76.5885L1953.83 65.885C1953.75 65.981 1953.66 66.0779 1953.58 66.1758L1965.73 76.5885ZM2011.17 26.0982L2023.06 36.8017C2023.2 36.6507 2023.33 36.4972 2023.46 36.3412L2011.17 26.0982ZM2051 24.4152L2039.3 35.3323C2039.55 35.6011 2039.81 35.8612 2040.08 36.1121L2051 24.4152ZM2052.68 60.8804L2064.57 71.5838C2064.66 71.4879 2064.75 71.391 2064.83 71.2931L2052.68 60.8804ZM2012.29 444.045L1996.77 440.165C1996.2 442.422 1994.99 444.506 1992.31 446.611L2002.19 459.192L2012.08 471.774C2019.87 465.651 2025.38 457.637 2027.81 447.926L2012.29 444.045ZM2002.19 459.192L1991.86 446.978C1989.88 448.652 1987.93 449.364 1985.36 449.364V465.364V481.364C1995.51 481.364 2004.78 477.961 2012.53 471.407L2002.19 459.192ZM1985.36 465.364V449.364C1981.45 449.364 1978.65 448.212 1976.08 445.813L1965.17 457.509L1954.25 469.206C1962.9 477.279 1973.56 481.364 1985.36 481.364V465.364ZM1965.17 457.509L1976.86 446.592C1974.31 443.86 1973.31 441.187 1973.31 437.874H1957.31H1941.31C1941.31 449.522 1945.55 459.939 1953.47 468.427L1965.17 457.509ZM1957.31 437.874H1973.31C1973.31 437.962 1973.31 437.727 1973.41 437.082C1973.5 436.456 1973.67 435.594 1973.96 434.462L1958.43 430.581L1942.91 426.701C1942.02 430.256 1941.31 434.127 1941.31 437.874H1957.31ZM1958.43 430.581L1973.74 435.247L1987.76 389.245L1972.46 384.579L1957.15 379.913L1943.13 425.915L1958.43 430.581ZM1972.46 384.579L1959.07 375.823C1940.45 404.294 1923.17 424.746 1907.37 437.93C1891.54 451.134 1878.37 456.096 1867.55 456.096V472.096V488.096C1888.52 488.096 1908.73 478.471 1927.87 462.503C1947.03 446.515 1966.32 423.209 1985.85 393.335L1972.46 384.579ZM1867.55 472.096V456.096C1855.44 456.096 1844.71 451.855 1834.76 442.492L1823.79 454.143L1812.83 465.795C1828.31 480.368 1846.75 488.096 1867.55 488.096V472.096ZM1823.79 454.143L1834.93 442.657C1826.35 434.34 1821.28 422.402 1821.28 404.775H1805.28H1789.28C1789.28 429.037 1796.55 450.01 1812.65 465.63L1823.79 454.143ZM1805.28 404.775H1821.28C1821.28 392.171 1825.1 369.243 1833.71 334.734C1842.19 300.69 1854.99 256.679 1872.14 202.603L1856.89 197.765L1841.64 192.927C1824.39 247.312 1811.37 292.033 1802.66 326.992C1794.06 361.486 1789.28 387.834 1789.28 404.775H1805.28ZM1856.89 197.765L1872.07 202.825C1872.89 200.356 1874.31 198.295 1876.74 196.422L1866.99 183.74L1857.23 171.058C1849.95 176.665 1844.63 183.954 1841.71 192.706L1856.89 197.765ZM1866.99 183.74L1876.87 196.321C1879.63 194.158 1881.83 193.569 1883.82 193.569V177.569V161.569C1873.85 161.569 1864.82 165.094 1857.1 171.159L1866.99 183.74ZM1883.82 177.569V193.569C1886.78 193.569 1889.33 194.486 1892.14 197.298L1903.45 185.984L1914.77 174.67C1906.36 166.262 1895.82 161.569 1883.82 161.569V177.569ZM1903.45 185.984L1892.14 197.298C1894.95 200.109 1895.87 202.66 1895.87 205.619H1911.87H1927.87C1927.87 193.618 1923.18 183.079 1914.77 174.67L1903.45 185.984ZM1911.87 205.619H1895.87C1895.87 207.326 1895.65 208.167 1895.57 208.414L1910.75 213.473L1925.93 218.533C1927.34 214.291 1927.87 209.897 1927.87 205.619H1911.87ZM1910.75 213.473L1895.52 208.548C1879.02 259.556 1866.57 301.271 1858.23 333.597C1850.03 365.382 1845.38 389.592 1845.38 404.775H1861.38H1877.38C1877.38 394.152 1880.96 373.576 1889.21 341.593C1897.33 310.152 1909.56 269.119 1925.97 218.398L1910.75 213.473ZM1861.38 404.775H1845.38C1845.38 410.486 1845.98 416.757 1848.36 422.298L1863.06 415.995L1877.77 409.693C1877.89 409.973 1877.76 409.784 1877.62 408.853C1877.49 407.954 1877.38 406.624 1877.38 404.775H1861.38ZM1863.06 415.995L1849.75 424.87C1851.89 428.081 1857.56 435.361 1867.55 435.361V419.361V403.361C1871.05 403.361 1873.59 404.731 1874.91 405.72C1876.1 406.613 1876.52 407.342 1876.38 407.12L1863.06 415.995ZM1867.55 419.361V435.361C1879.46 435.361 1890.38 428.85 1899.6 421.077C1909.25 412.948 1919.48 401.349 1930.3 386.859L1917.48 377.286L1904.66 367.713C1894.53 381.274 1885.98 390.712 1878.98 396.607C1871.56 402.86 1867.98 403.361 1867.55 403.361V419.361ZM1917.48 377.286L1930.22 386.967C1952.09 358.183 1973.09 325.328 1993.23 288.465L1979.19 280.794L1965.15 273.122C1945.65 308.815 1925.5 340.289 1904.74 367.605L1917.48 377.286ZM1979.19 280.794L1993.17 288.576C2013.44 252.172 2027.44 223.737 2034.64 203.746L2019.58 198.326L2004.53 192.907C1998.26 210.315 1985.34 236.859 1965.21 273.011L1979.19 280.794ZM2019.58 198.326L2035.1 202.207L2041.28 177.523L2025.75 173.642L2010.23 169.761L2004.06 194.446L2019.58 198.326ZM2025.75 173.642L2041.28 177.523C2041.93 174.903 2043.23 172.733 2045.63 170.709L2035.29 158.495L2024.96 146.281C2017.62 152.485 2012.57 160.413 2010.23 169.761L2025.75 173.642ZM2035.29 158.495L2045.18 171.076C2047.74 169.064 2050.09 168.324 2052.68 168.324V152.324V136.324C2042.56 136.324 2033.32 139.698 2025.41 145.914L2035.29 158.495ZM2052.68 152.324V168.324C2056.22 168.324 2058.49 169.373 2060.62 171.656L2072.32 160.739L2084.01 149.822C2075.67 140.884 2064.85 136.324 2052.68 136.324V152.324ZM2072.32 160.739L2061.4 172.436C2063.68 174.566 2064.73 176.837 2064.73 180.374H2080.73H2096.73C2096.73 168.203 2092.17 157.384 2083.23 149.042L2072.32 160.739ZM2080.73 180.374H2064.73C2064.73 179.913 2064.78 179.898 2064.67 180.549C2064.57 181.133 2064.39 182.008 2064.09 183.225L2079.61 187.106L2095.13 190.987C2095.94 187.769 2096.73 183.936 2096.73 180.374H2080.73ZM2079.61 187.106L2064.13 183.051L1996.81 439.99L2012.29 444.045L2027.77 448.101L2095.09 191.161L2079.61 187.106ZM2007.24 111.371L1994.95 101.128C1992.15 104.483 1989.62 105.469 1986.48 105.469V121.469V137.469C1999.8 137.469 2011.11 131.722 2019.53 121.614L2007.24 111.371ZM1986.48 121.469V105.469C1983.17 105.469 1980.5 104.468 1977.77 101.918L1966.85 113.615L1955.93 125.312C1964.42 133.233 1974.84 137.469 1986.48 137.469V121.469ZM1966.85 113.615L1978.54 102.698C1975.99 99.9653 1974.99 97.2921 1974.99 93.9796H1958.99H1942.99C1942.99 105.627 1947.23 116.044 1955.15 124.532L1966.85 113.615ZM1958.99 93.9796H1974.99C1974.99 91.7757 1975.64 89.602 1977.87 87.0011L1965.73 76.5885L1953.58 66.1758C1946.83 74.0471 1942.99 83.4675 1942.99 93.9796H1958.99ZM1965.73 76.5885L1977.62 87.2919L2023.06 36.8017L2011.17 26.0982L1999.27 15.3948L1953.83 65.885L1965.73 76.5885ZM2011.17 26.0982L2023.46 36.3412C2026.25 32.9859 2028.79 32.0002 2031.92 32.0002V16.0002V0.000183105C2018.61 0.000183105 2007.3 5.74649 1998.88 15.8553L2011.17 26.0982ZM2031.92 16.0002V32.0002C2034.84 32.0002 2037 32.8693 2039.3 35.3323L2051 24.4152L2062.7 13.4981C2054.52 4.74106 2043.97 0.000183105 2031.92 0.000183105V16.0002ZM2051 24.4152L2040.08 36.1121C2042.54 38.4109 2043.41 40.5726 2043.41 43.4893H2059.41H2075.41C2075.41 31.4459 2070.67 20.8916 2061.92 12.7184L2051 24.4152ZM2059.41 43.4893H2043.41C2043.41 45.6933 2042.76 47.8669 2040.53 50.4677L2052.68 60.8804L2064.83 71.2931C2071.58 63.4218 2075.41 54.0015 2075.41 43.4893H2059.41ZM2052.68 60.8804L2040.79 50.177L1995.35 100.667L2007.24 111.371L2019.13 122.074L2064.57 71.5838L2052.68 60.8804ZM2065.56 458.07L2081.36 460.598C2081.4 460.346 2081.43 460.092 2081.46 459.837L2065.56 458.07ZM2074.53 441.24L2084.95 453.388C2085.11 453.251 2085.27 453.109 2085.42 452.965L2074.53 441.24ZM2114.37 443.484L2126.36 432.898V432.898L2114.37 443.484ZM2120.54 465.924L2104.77 463.183C2104.76 463.265 2104.75 463.347 2104.73 463.429L2120.54 465.924ZM2089.68 549.514L2075.9 541.393C2075.87 541.435 2075.85 541.477 2075.82 541.518L2089.68 549.514ZM2049.29 557.368L2061.08 546.556V546.556L2049.29 557.368ZM2047.05 524.269L2061.36 531.424C2061.38 531.38 2061.4 531.335 2061.42 531.29L2047.05 524.269ZM2065.56 458.07L2081.46 459.837C2081.75 457.217 2082.73 455.29 2084.95 453.388L2074.53 441.24L2064.12 429.092C2055.87 436.167 2050.86 445.46 2049.66 456.304L2065.56 458.07ZM2074.53 441.24L2085.42 452.965C2087.72 450.834 2090 449.947 2093.05 449.947V433.947V417.947C2081.88 417.947 2071.82 421.923 2063.65 429.516L2074.53 441.24ZM2093.05 433.947V449.947C2097.13 449.947 2099.85 451.211 2102.37 454.07L2114.37 443.484L2126.36 432.898C2117.67 423.041 2106.16 417.947 2093.05 417.947V433.947ZM2114.37 443.484L2102.37 454.07C2104.66 456.664 2105.47 459.2 2104.77 463.183L2120.54 465.924L2136.3 468.666C2138.6 455.445 2135.29 443.021 2126.36 432.898L2114.37 443.484ZM2120.54 465.924L2104.73 463.429C2100.59 489.677 2091.06 515.648 2075.9 541.393L2089.68 549.514L2103.47 557.635C2120.47 528.776 2131.51 499.021 2136.34 468.42L2120.54 465.924ZM2089.68 549.514L2075.82 541.518C2072.68 546.959 2069.77 548.1 2066.12 548.1V564.1V580.1C2082.67 580.1 2095.46 571.517 2103.54 557.51L2089.68 549.514ZM2066.12 564.1V548.1C2062.68 548.1 2061.65 547.178 2061.08 546.556L2049.29 557.368L2037.49 568.18C2045.15 576.534 2055.35 580.1 2066.12 580.1V564.1ZM2049.29 557.368L2061.08 546.556C2059.97 545.34 2059.12 543.725 2059.12 540.538H2043.12H2027.12C2027.12 550.815 2030.38 560.419 2037.49 568.18L2049.29 557.368ZM2043.12 540.538H2059.12C2059.12 537.521 2059.8 534.538 2061.36 531.424L2047.05 524.269L2032.73 517.113C2029.06 524.472 2027.12 532.335 2027.12 540.538H2043.12ZM2047.05 524.269L2061.42 531.29C2070.25 513.208 2076.75 489.407 2081.36 460.598L2065.56 458.07L2049.76 455.543C2045.39 482.834 2039.55 503.165 2032.67 517.247L2047.05 524.269Z" fill="#7F42E1" mask="url(#path-2-outside-1_498_2202)"/>
</svg>
