<svg xmlns="http://www.w3.org/2000/svg" width="2404" height="1229" fill="none" viewBox="0 0 2404 1229">
    <path fill="#d3f0ff" stroke="#7f42e1" stroke-linecap="round" stroke-linejoin="round" stroke-width="22" d="m1710.74 297.828 250.28 232.28 184.28 93.617-250.29-232.306z"/>
    <path fill="#d3f0ff" stroke="#7f42e1" stroke-linecap="round" stroke-linejoin="round" stroke-width="22" d="m1614.73 699.568 250.28 232.307 304.81-215.958-250.28-232.306z"/>
    <path fill="#fff" stroke="#7f42e1" stroke-linecap="round" stroke-linejoin="round" stroke-width="22" d="m1846.55 788.535 549.06-719.36-684.86 228.653 184.27 93.591-305.63 222.69 25.33 85.46 304.82-215.958-72.96 304.917z"/>
    <path fill="#d3f0ff" stroke="#7f42e1" stroke-linecap="round" stroke-linejoin="round" stroke-width="22" d="m2395.61 69.173 250.29 232.306-549.06 719.361-250.28-232.308zM1194.98 933.405l258.11 195.515-382.26-120.42-8.11 73.49 382.26 120.43-282.46 25.19 121.55 92.07 282.45-25.19-17.2 156.11 180.06 56.68 17.26-155.99 258.02 195.44 133.08-11.87-258.06-195.48 382.18 120.43 8.11-73.49-382.31-120.46 282.54-25.2-121.55-92.07-282.37 25.17 17.17-156.06-180.06-56.677-17.22 156.027-258.06-195.481-133.08 11.872z"/>
    <path fill="#d3f0ff" stroke="#7f42e1" stroke-linecap="round" stroke-linejoin="round" stroke-width="22" d="m2299.84 963.774-129.65 276.886-282.53 25.2 129.65-276.885z"/>
    <path fill="#d3f0ff" stroke="#7f42e1" stroke-linecap="round" stroke-linejoin="round" stroke-width="22" d="m2261.86 1459.82 129.65-276.88-382.18-120.44-129.68 276.93zm-937.17-803.248-129.7 276.847 258.16 195.551 129.65-276.883zm408.3 27.624L1603.3 961.043l-17.21 156.027 129.68-276.931z"/>
    <path fill="#d3f0ff" stroke="#7f42e1" stroke-linecap="round" stroke-linejoin="round" stroke-width="22" d="m1574.68 925.582-382.26-120.423-129.65 276.881 382.25 120.42zm-374.15-193.934-129.65 276.882-8.11 73.5 129.65-276.884z"/>
    <path fill="#d3f0ff" stroke="#7f42e1" stroke-linecap="round" stroke-linejoin="round" stroke-width="22" d="m1292.22 950.773-129.65 276.887 121.54 92.07 129.66-276.89zm404 66.887-129.65 276.88-282.45 25.19 129.65-276.88zm571.18 240.32-129.69 276.93-133.04 11.83 129.69-276.85zm-391.05-183.53-129.65 276.88 257.96 195.41 129.7-276.85z"/>
    <path fill="#fff" stroke="#7f42e1" stroke-linecap="round" stroke-linejoin="round" stroke-width="22" d="m1324.69 656.569 258.1 195.515-382.26-120.423-8.11 73.497 382.26 120.423-282.45 25.19 121.54 92.069 282.46-25.19-17.2 156.11 180.06 56.68 17.26-155.99 258.01 195.44 133.08-11.87-258.06-195.48 382.13 120.4 8.11-73.5-382.3-120.455 282.53-25.2-121.54-92.07-282.37 25.177 17.16-156.06-180.06-56.681-17.21 156.026-258.06-195.48z"/>
    <path fill="#d3f0ff" stroke="#7f42e1" stroke-linecap="round" stroke-linejoin="round" stroke-width="22" d="m1679.01 1173.74-129.7 276.85 180.07 56.76 129.69-276.93zm-400.38-409.365c3.19 57.855-17.57 135.51-53.8 214.335-21.22 46.22-47.74 92.83-77.86 136.07l37.09 79.42-183.38 89.06-187.425 200.31c-79.26 84.72-150.724 115.42-190.493 90.34l-.785-.47-308.013-182.87 623.009-883.279 306.817 182.184 1.06.643c19.55 11.634 31.7 36.319 33.78 74.257"/>
    <path fill="#fff" stroke="#7f42e1" stroke-linecap="round" stroke-linejoin="round" stroke-width="22" d="M916.256 795.464c-21.222 46.223-47.747 92.827-77.869 136.067l37.097 79.419-183.387 89.01-187.423 200.32c-116.901 124.95-216.828 132.43-223.207 16.82-3.19-57.81 17.596-135.49 53.795-214.34 36.222-78.83 87.812-158.818 146.274-221.302l265.327-283.585c116.88-124.923 216.807-132.409 223.165-16.767 3.189 57.81-17.597 135.489-53.796 214.336z"/>
    <path fill="#d3f0ff" stroke="#7f42e1" stroke-linecap="round" stroke-linejoin="round" stroke-width="22" d="m692.098 1100.01 308.572 183.26 183.41-89.04-308.618-183.25zm183.379-89.04-37.074-79.395 308.587 183.235 37.1 79.42z"/>
</svg>
