<svg width="2404" height="1229" viewBox="0 0 2404 1229" fill="none" xmlns="http://www.w3.org/2000/svg">
<path d="M1710.74 297.828L1961.02 530.108L2145.3 623.725L1895.01 391.419L1710.74 297.828Z" fill="#D3F0FF" stroke="#7F42E1" stroke-width="22" stroke-linecap="round" stroke-linejoin="round"/>
<path d="M1614.73 699.568L1865.01 931.875L2169.82 715.917L1919.54 483.611L1614.73 699.568Z" fill="#D3F0FF" stroke="#7F42E1" stroke-width="22" stroke-linecap="round" stroke-linejoin="round"/>
<path d="M1846.55 788.535L2395.61 69.1751L1710.75 297.828L1895.02 391.419L1589.39 614.109L1614.72 699.569L1919.54 483.611L1846.58 788.528L1846.55 788.535Z" fill="white" stroke="#7F42E1" stroke-width="22" stroke-linecap="round" stroke-linejoin="round"/>
<path d="M2395.61 69.1729L2645.9 301.479L2096.84 1020.84L1846.56 788.532L2395.61 69.1729Z" fill="#D3F0FF" stroke="#7F42E1" stroke-width="22" stroke-linecap="round" stroke-linejoin="round"/>
<path d="M1194.98 933.405L1453.09 1128.92L1070.83 1008.5L1062.72 1081.99L1444.98 1202.42L1162.52 1227.61L1284.07 1319.68L1566.52 1294.49L1549.32 1450.6L1729.38 1507.28L1746.64 1351.29L2004.66 1546.73L2137.74 1534.86L1879.68 1339.38L2261.86 1459.81L2269.97 1386.32L1887.66 1265.86L2170.2 1240.66L2048.65 1148.59L1766.28 1173.76L1783.45 1017.7L1603.39 961.023L1586.17 1117.05L1328.11 921.569L1195.03 933.441L1194.98 933.405Z" fill="#D3F0FF" stroke="#7F42E1" stroke-width="22" stroke-linecap="round" stroke-linejoin="round"/>
<path d="M2299.84 963.774L2170.19 1240.66L1887.66 1265.86L2017.31 988.975L2299.84 963.774Z" fill="#D3F0FF" stroke="#7F42E1" stroke-width="22" stroke-linecap="round" stroke-linejoin="round"/>
<path d="M2261.86 1459.82L2391.51 1182.94L2009.33 1062.5L1879.65 1339.43L2261.86 1459.82Z" fill="#D3F0FF" stroke="#7F42E1" stroke-width="22" stroke-linecap="round" stroke-linejoin="round"/>
<path d="M1324.69 656.572L1194.99 933.419L1453.15 1128.97L1582.8 852.087L1324.69 656.572Z" fill="#D3F0FF" stroke="#7F42E1" stroke-width="22" stroke-linecap="round" stroke-linejoin="round"/>
<path d="M1732.99 684.196L1603.3 961.043L1586.09 1117.07L1715.77 840.139L1732.99 684.196Z" fill="#D3F0FF" stroke="#7F42E1" stroke-width="22" stroke-linecap="round" stroke-linejoin="round"/>
<path d="M1574.68 925.582L1192.42 805.159L1062.77 1082.04L1445.02 1202.46L1574.68 925.582Z" fill="#D3F0FF" stroke="#7F42E1" stroke-width="22" stroke-linecap="round" stroke-linejoin="round"/>
<path d="M1200.53 731.648L1070.88 1008.53L1062.77 1082.03L1192.42 805.146L1200.53 731.648Z" fill="#D3F0FF" stroke="#7F42E1" stroke-width="22" stroke-linecap="round" stroke-linejoin="round"/>
<path d="M1292.22 950.773L1162.57 1227.66L1284.11 1319.73L1413.77 1042.84L1292.22 950.773Z" fill="#D3F0FF" stroke="#7F42E1" stroke-width="22" stroke-linecap="round" stroke-linejoin="round"/>
<path d="M1696.22 1017.66L1566.57 1294.54L1284.12 1319.73L1413.77 1042.85L1696.22 1017.66Z" fill="#D3F0FF" stroke="#7F42E1" stroke-width="22" stroke-linecap="round" stroke-linejoin="round"/>
<path d="M2267.4 1257.98L2137.71 1534.91L2004.67 1546.74L2134.36 1269.89L2267.4 1257.98Z" fill="#D3F0FF" stroke="#7F42E1" stroke-width="22" stroke-linecap="round" stroke-linejoin="round"/>
<path d="M1876.35 1074.45L1746.7 1351.33L2004.66 1546.74L2134.36 1269.89L1876.35 1074.45Z" fill="#D3F0FF" stroke="#7F42E1" stroke-width="22" stroke-linecap="round" stroke-linejoin="round"/>
<path d="M1324.69 656.569L1582.79 852.084L1200.53 731.661L1192.42 805.158L1574.68 925.581L1292.23 950.771L1413.77 1042.84L1696.23 1017.65L1679.03 1173.76L1859.09 1230.44L1876.35 1074.45L2134.36 1269.89L2267.44 1258.02L2009.38 1062.54L2391.51 1182.94L2399.62 1109.44L2017.32 988.985L2299.85 963.785L2178.31 871.715L1895.94 896.892L1913.1 740.832L1733.04 684.151L1715.83 840.177L1457.77 644.697L1324.69 656.569Z" fill="white" stroke="#7F42E1" stroke-width="22" stroke-linecap="round" stroke-linejoin="round"/>
<path d="M1679.01 1173.74L1549.31 1450.59L1729.38 1507.35L1859.07 1230.42L1679.01 1173.74Z" fill="#D3F0FF" stroke="#7F42E1" stroke-width="22" stroke-linecap="round" stroke-linejoin="round"/>
<path d="M1278.63 764.375C1281.82 822.23 1261.06 899.885 1224.83 978.71C1203.61 1024.93 1177.09 1071.54 1146.97 1114.78L1184.06 1194.2L1000.68 1283.26L813.255 1483.57C733.995 1568.29 662.531 1598.99 622.762 1573.91L621.977 1573.44L313.964 1390.57L936.973 507.291L1243.79 689.475L1244.85 690.118C1264.4 701.752 1276.55 726.437 1278.63 764.375Z" fill="#D3F0FF" stroke="#7F42E1" stroke-width="22" stroke-linecap="round" stroke-linejoin="round"/>
<path d="M916.256 795.464C895.034 841.687 868.509 888.291 838.387 931.531L875.484 1010.95L692.097 1099.96L504.674 1300.28C387.773 1425.23 287.846 1432.71 281.467 1317.1C278.277 1259.29 299.063 1181.61 335.262 1102.76C371.484 1023.93 423.074 943.942 481.536 881.458L746.863 597.873C863.743 472.95 963.67 465.464 970.028 581.106C973.217 638.916 952.431 716.595 916.232 795.442L916.256 795.464Z" fill="white" stroke="#7F42E1" stroke-width="22" stroke-linecap="round" stroke-linejoin="round"/>
<path d="M692.098 1100.01L1000.67 1283.27L1184.08 1194.23L875.462 1010.98L692.098 1100.01Z" fill="#D3F0FF" stroke="#7F42E1" stroke-width="22" stroke-linecap="round" stroke-linejoin="round"/>
<path d="M875.477 1010.97L838.403 931.575L1146.99 1114.81L1184.09 1194.23L875.477 1010.97Z" fill="#D3F0FF" stroke="#7F42E1" stroke-width="22" stroke-linecap="round" stroke-linejoin="round"/>
</svg>
