<svg xmlns="http://www.w3.org/2000/svg" width="1625" height="2024" fill="none" viewBox="0 0 1625 2024">
    <path fill="#d3f0ff" stroke="#7f42e1" stroke-linecap="round" stroke-linejoin="round" stroke-width="22" d="M1353.86 1602.87s43.7 33.47 66.4 50.87c193.6 148.28 198.82 466.58 11.67 710.91-187.15 244.34-495.797 322.18-689.394 173.89l-66.403-50.86c-131.834-163.15 485.897-969.62 677.727-884.81"/>
    <path fill="#fff" stroke="#7f42e1" stroke-linecap="round" stroke-linejoin="round" stroke-width="22" d="M1353.86 1602.87c-193.6-148.29-502.259-70.42-689.415 173.91-187.155 244.34-181.932 562.63 11.667 710.92s502.258 70.43 689.418-173.91 181.93-562.63-11.67-710.92"/>
    <path fill="#fff" stroke="#7f42e1" stroke-linecap="round" stroke-linejoin="round" stroke-width="22" d="M1303.31 1668.67c-160.28-122.77-419.349-53.72-578.639 154.24-159.289 207.96-158.483 476.07 1.801 598.84 160.284 122.78 419.348 53.72 578.638-154.24s158.48-476.07-1.8-598.84"/>
    <path stroke="#7f42e1" stroke-linecap="round" stroke-linejoin="round" stroke-width="22" d="m1558.34 1879.32-66.41-50.86"/>
    <path fill="#d3f0ff" stroke="#7f42e1" stroke-linecap="round" stroke-linejoin="round" stroke-width="22" d="m1210.75 1661.07-91.27 75.23c-110.58 91.15-358.916-27.52-554.669-265.01S299.976 967.385 410.56 876.235l91.267-75.228c120.007 27.692 719.243 735.293 708.923 860.063"/>
    <path fill="#fff" stroke="#7f42e1" stroke-linecap="round" stroke-linejoin="round" stroke-width="22" d="M1210.75 1661.07c110.57-91.14 41.51-357.56-154.25-595.06-195.767-237.497-444.1-356.144-554.672-265.003s-41.512 357.553 154.251 595.053c195.762 237.5 444.091 356.15 554.671 265.01"/>
    <path fill="#fff" stroke="#7f42e1" stroke-linecap="round" stroke-linejoin="round" stroke-width="22" d="M1160.68 1600.29c80.58-66.42 9.75-285.44-158.2-489.19-167.942-203.753-369.41-315.085-449.988-248.667-80.579 66.418-9.753 285.437 158.193 489.187s369.415 315.08 449.995 248.67"/>
    <path stroke="#7f42e1" stroke-linecap="round" stroke-linejoin="round" stroke-width="22" d="m382.92 1153.59 91.267-75.23m36.086 321.49 91.267-75.23m134.89 315.46 91.295-75.25m123.673 191.5 91.272-75.23"/>
    <path fill="#d3f0ff" stroke="#7f42e1" stroke-linecap="round" stroke-linejoin="round" stroke-width="22" d="m1656.25 322.356 68.57 125.971c50.43 92.656-127.82 287.071-398.14 434.217-270.33 147.146-530.348 191.336-580.783 98.685l-66.604-122.357c48.425-99.255 866.457-525.84 976.927-536.499z"/>
    <path stroke="#7f42e1" stroke-linecap="round" stroke-linejoin="round" stroke-width="22" d="m921.35 892.83 66.603 122.36m258.557-91.802L1179.9 801.03m348.07-49.05-66.61-122.357m233.15-45.221-66.61-122.357"/>
    <path fill="#fff" stroke="#7f42e1" stroke-linecap="round" stroke-linejoin="round" stroke-width="22" d="M1658.23 326c-50.44-92.663-310.47-48.495-580.8 98.654-270.323 147.148-448.576 341.554-398.137 434.217s310.473 48.495 580.797-98.653C1530.42 613.07 1708.67 418.664 1658.23 326"/>
    <path fill="#fff" stroke="#7f42e1" stroke-linecap="round" stroke-linejoin="round" stroke-width="22" d="M1589.15 363.802c-33.88-62.236-249.34-10.351-481.26 115.889C875.975 605.93 715.434 758.719 749.311 820.955s249.344 10.35 481.259-115.889c231.91-126.239 392.46-279.029 358.58-341.264"/>
</svg>
