<svg width="1625" height="2024" viewBox="0 0 1625 2024" fill="none" xmlns="http://www.w3.org/2000/svg">
<path d="M1353.86 1602.87C1353.86 1602.87 1397.56 1636.34 1420.26 1653.74C1613.86 1802.02 1619.08 2120.32 1431.93 2364.65C1244.78 2608.99 936.133 2686.83 742.536 2538.54L676.133 2487.68C544.299 2324.53 1162.03 1518.06 1353.86 1602.87Z" fill="#D3F0FF" stroke="#7F42E1" stroke-width="22" stroke-linecap="round" stroke-linejoin="round"/>
<path d="M1353.86 1602.87C1160.26 1454.58 851.601 1532.45 664.445 1776.78C477.29 2021.12 482.513 2339.41 676.112 2487.7C869.711 2635.99 1178.37 2558.13 1365.53 2313.79C1552.69 2069.45 1547.46 1751.16 1353.86 1602.87Z" fill="white" stroke="#7F42E1" stroke-width="22" stroke-linecap="round" stroke-linejoin="round"/>
<path d="M1303.31 1668.67C1143.03 1545.9 883.961 1614.95 724.671 1822.91C565.382 2030.87 566.188 2298.98 726.472 2421.75C886.756 2544.53 1145.82 2475.47 1305.11 2267.51C1464.4 2059.55 1463.59 1791.44 1303.31 1668.67Z" fill="white" stroke="#7F42E1" stroke-width="22" stroke-linecap="round" stroke-linejoin="round"/>
<path d="M1558.34 1879.32L1491.93 1828.46" stroke="#7F42E1" stroke-width="22" stroke-linecap="round" stroke-linejoin="round"/>
<path d="M1210.75 1661.07L1119.48 1736.3C1008.9 1827.45 760.564 1708.78 564.811 1471.29C369.059 1233.8 299.976 967.385 410.56 876.235L501.827 801.007C621.834 828.699 1221.07 1536.3 1210.75 1661.07Z" fill="#D3F0FF" stroke="#7F42E1" stroke-width="22" stroke-linecap="round" stroke-linejoin="round"/>
<path d="M1210.75 1661.07C1321.32 1569.93 1252.26 1303.51 1056.5 1066.01C860.733 828.513 612.4 709.866 501.828 801.007C391.256 892.148 460.316 1158.56 656.079 1396.06C851.841 1633.56 1100.17 1752.21 1210.75 1661.07Z" fill="white" stroke="#7F42E1" stroke-width="22" stroke-linecap="round" stroke-linejoin="round"/>
<path d="M1160.68 1600.29C1241.26 1533.87 1170.43 1314.85 1002.48 1111.1C834.538 907.347 633.07 796.015 552.492 862.433C471.913 928.851 542.739 1147.87 710.685 1351.62C878.631 1555.37 1080.1 1666.7 1160.68 1600.29Z" fill="white" stroke="#7F42E1" stroke-width="22" stroke-linecap="round" stroke-linejoin="round"/>
<path d="M382.92 1153.59L474.187 1078.36" stroke="#7F42E1" stroke-width="22" stroke-linecap="round" stroke-linejoin="round"/>
<path d="M510.273 1399.85L601.54 1324.62" stroke="#7F42E1" stroke-width="22" stroke-linecap="round" stroke-linejoin="round"/>
<path d="M736.43 1640.08L827.725 1564.83" stroke="#7F42E1" stroke-width="22" stroke-linecap="round" stroke-linejoin="round"/>
<path d="M951.398 1756.33L1042.67 1681.1" stroke="#7F42E1" stroke-width="22" stroke-linecap="round" stroke-linejoin="round"/>
<path d="M1656.25 322.356L1724.82 448.327C1775.25 540.983 1597 735.398 1326.68 882.544C1056.35 1029.69 796.332 1073.88 745.897 981.229L679.293 858.872C727.718 759.617 1545.75 333.032 1656.22 322.373L1656.25 322.356Z" fill="#D3F0FF" stroke="#7F42E1" stroke-width="22" stroke-linecap="round" stroke-linejoin="round"/>
<path d="M921.35 892.83L987.953 1015.19" stroke="#7F42E1" stroke-width="22" stroke-linecap="round" stroke-linejoin="round"/>
<path d="M1246.51 923.388L1179.9 801.03" stroke="#7F42E1" stroke-width="22" stroke-linecap="round" stroke-linejoin="round"/>
<path d="M1527.97 751.98L1461.36 629.623" stroke="#7F42E1" stroke-width="22" stroke-linecap="round" stroke-linejoin="round"/>
<path d="M1694.51 584.402L1627.9 462.045" stroke="#7F42E1" stroke-width="22" stroke-linecap="round" stroke-linejoin="round"/>
<path d="M1658.23 326C1607.79 233.337 1347.76 277.505 1077.43 424.654C807.107 571.802 628.854 766.208 679.293 858.871C729.733 951.534 989.766 907.366 1260.09 760.218C1530.42 613.07 1708.67 418.664 1658.23 326Z" fill="white" stroke="#7F42E1" stroke-width="22" stroke-linecap="round" stroke-linejoin="round"/>
<path d="M1589.15 363.802C1555.27 301.566 1339.81 353.451 1107.89 479.691C875.975 605.93 715.434 758.719 749.311 820.955C783.188 883.191 998.655 831.305 1230.57 705.066C1462.48 578.827 1623.03 426.037 1589.15 363.802Z" fill="white" stroke="#7F42E1" stroke-width="22" stroke-linecap="round" stroke-linejoin="round"/>
</svg>
