<svg xmlns="http://www.w3.org/2000/svg" width="966" height="128" fill="none" viewBox="0 0 966 128">
    <path fill="#7f42e1" d="M900.816 123.971h-25.851v-88.44h25.851v32.06h6.462c12.741 0 17.173-2.211 25.112-20.82l4.801-11.24h25.297v2.027l-7.017 17.32c-4.246 10.502-9.601 18.609-16.064 23.768l25.851 43.299v2.026h-27.143l-21.604-36.113h-15.695zM768.757 35.532h25.85v30.217h32.314V35.532h25.85v88.439h-25.85V88.227h-32.314v35.744h-25.85zm-104.581 1.289c10.894-2.58 23.634-3.316 31.759-3.316 38.776 0 49.116 17.135 48.747 35.928v35.561l9.232.184v18.425c-4.062 1.105-8.494 2.026-12.925 2.026-10.894 0-16.434-5.711-17.726-12.713h-1.662c-6.647 9.213-18.465 13.266-29.913 13.266-17.726 0-34.16-9.581-34.16-29.848 0-22.847 21.05-28.743 41.915-28.743h21.235c-.37-10.87-13.11-14.74-27.328-14.74-8.494 0-19.019 1.474-26.589 4.422zm19.203 59.513c0 7.923 5.355 11.055 14.033 11.055 14.033 0 23.266-7.923 23.266-23.031l-16.434-.185c-15.326 0-20.865 4.054-20.865 12.16m-76.707-70.935c-24.189 2.026-37.299 10.318-39.514 32.06h2.031c7.016-12.161 19.388-18.978 35.452-18.978 21.789 0 42.654 13.265 42.654 44.035 0 29.296-20.681 44.22-49.67 44.22-33.422 0-51.333-21.741-51.333-59.881 0-27.637 8.864-59.697 60.38-63.935L637.693.34l.369 22.48zm-8.494 79.596c16.065 0 22.528-9.397 22.528-22.479 0-14.187-7.202-22.478-21.974-22.478-14.033 0-21.973 7.738-25.666 14.924 0 17.688 6.463 30.033 25.112 30.033m-186.09-68.173c10.895-2.58 23.635-3.316 31.76-3.316 38.776 0 49.116 17.135 48.747 35.928v35.561l9.232.184v18.425c-4.062 1.105-8.494 2.026-12.925 2.026-10.895 0-16.434-5.711-17.727-12.713h-1.661c-6.648 9.213-18.465 13.266-29.913 13.266-17.726 0-34.16-9.581-34.16-29.848 0-22.847 21.05-28.743 41.915-28.743h21.234c-.369-10.87-13.11-14.74-27.327-14.74-8.494 0-19.019 1.474-26.59 4.422zm19.204 59.513c0 7.923 5.354 11.055 14.033 11.055 14.033 0 23.265-7.923 23.265-23.031l-16.433-.185c-15.326 0-20.865 4.054-20.865 12.16m-96.861 27.638H308.58v-88.44h25.851v32.06h6.463c12.74 0 17.172-2.211 25.112-20.82l4.801-11.24h25.296v2.027l-7.016 17.32c-4.247 10.502-9.602 18.609-16.065 23.768l25.851 43.299v2.026H371.73l-21.604-36.113h-15.695zM260.6 35.532h25.85v88.439H260.6v-31.69c-7.017 2.947-15.142 4.79-23.451 4.79-19.572 0-35.267-10.134-35.267-35.192V35.532h25.85v26.532c0 8.107 5.17 14.924 16.434 14.924 5.17 0 11.263-1.474 16.434-3.685zm-119.4 91.387c-27.143 0-49.854-17.688-49.854-47.168s22.711-47.168 49.854-47.168c26.959 0 49.671 17.688 49.671 47.168S168.159 126.92 141.2 126.92m0-21.741c14.587 0 23.081-10.871 23.081-25.427s-8.494-25.426-23.081-25.426c-14.771 0-23.265 10.87-23.265 25.426s8.494 25.427 23.265 25.427M84.938 35.532v22.847H55.763v65.592h-25.85V58.379H.738V35.532z"/>
</svg>
