<svg width="3061" height="1003" viewBox="0 0 3061 1003" fill="none" xmlns="http://www.w3.org/2000/svg">
<mask id="path-1-outside-1_1188_20791" maskUnits="userSpaceOnUse" x="-0.664062" y="-0.236328" width="3062" height="1003" fill="black">
<rect fill="white" x="-0.664062" y="-0.236328" width="3062" height="1003"/>
<path d="M117.344 940.806C112.694 960.336 94.0928 976.147 72.7018 976.147C42.0104 976.147 20.6194 947.316 28.0597 918.485L261.501 61.9141C266.151 42.3832 284.752 26.5725 306.143 26.5725C336.834 26.5725 358.225 55.4038 350.785 84.2352L314.513 218.161C344.275 183.75 379.616 160.499 421.468 160.499C490.292 160.499 531.213 221.882 531.213 303.725C531.213 458.113 388.917 645.982 176.867 723.175L117.344 940.806ZM206.628 613.43C347.065 539.027 438.209 406.03 438.209 303.725C438.209 264.664 427.979 247.923 412.168 247.923C370.316 247.923 300.563 362.318 243.83 477.644L206.628 613.43ZM813.409 578.088C819.919 575.298 826.43 573.438 832.94 573.438C857.121 573.438 877.582 593.899 877.582 618.08C877.582 635.751 867.352 650.632 852.471 658.072C795.738 684.113 729.705 699.924 667.392 699.924C604.149 699.924 525.096 680.393 525.096 562.278C525.096 398.59 676.693 175.379 795.738 175.379C851.541 175.379 900.833 221.882 900.833 287.915C900.833 389.29 771.557 524.146 665.532 612.5H667.392C714.824 612.5 764.117 600.41 813.409 578.088ZM619.96 531.586C712.034 452.533 807.829 346.508 807.829 287.915C807.829 273.034 799.458 262.804 795.738 262.804C752.026 262.804 637.631 406.03 619.96 531.586ZM1504.27 173.519C1509.85 153.058 1527.52 139.108 1548.91 139.108C1575.89 139.108 1595.42 161.429 1595.42 185.61C1595.42 189.33 1594.49 193.98 1593.56 197.701L1588.91 215.371L1466.14 664.583C1461.49 684.113 1442.89 699.924 1421.5 699.924C1390.81 699.924 1369.42 671.093 1376.86 642.261L1387.09 603.2C1351.74 637.611 1315.47 657.142 1281.99 657.142C1246.65 657.142 1202.94 636.681 1186.2 583.669C1138.76 654.352 1086.68 700.854 1031.81 700.854C954.616 700.854 936.015 629.241 936.015 560.418C936.015 434.862 975.077 304.656 1009.49 179.1C1014.14 159.569 1032.74 143.758 1054.13 143.758C1084.82 143.758 1106.21 172.589 1098.77 201.421C1064.36 326.977 1029.02 446.022 1029.02 560.418C1029.02 595.759 1029.95 613.43 1031.81 613.43C1073.66 613.43 1160.16 462.763 1215.03 304.656L1242 214.441C1247.58 194.91 1265.25 180.96 1286.64 180.96C1305.24 180.96 1321.05 191.19 1328.49 207.001C1331.28 212.581 1333.14 220.022 1333.14 227.462C1333.14 232.112 1332.21 236.762 1331.28 240.483L1327.56 250.713C1321.05 275.824 1314.54 299.075 1306.17 324.186C1279.2 419.051 1271.76 467.413 1271.76 529.726C1271.76 560.418 1280.13 569.718 1281.99 569.718C1319.19 569.718 1437.31 412.541 1504.27 173.519ZM1552.23 594.829C1552.23 439.512 1726.15 179.1 1891.69 179.1C1996.79 179.1 2026.55 268.384 2026.55 392.08C2026.55 522.286 2001.44 613.43 1985.63 668.303C1980.05 688.764 1962.38 702.714 1940.99 702.714C1915.87 702.714 1894.48 681.323 1894.48 656.212C1894.48 651.562 1895.41 647.842 1896.34 644.122C1912.15 589.249 1933.55 511.125 1933.55 392.08C1933.55 348.368 1930.76 316.746 1923.31 295.355C1843.33 574.368 1756.84 721.315 1652.67 721.315C1587.57 721.315 1552.23 665.513 1552.23 594.829ZM1645.23 594.829C1645.23 624.591 1650.81 633.891 1652.67 633.891C1681.5 633.891 1759.63 542.747 1835.89 284.195C1745.68 337.207 1645.23 495.315 1645.23 594.829ZM2138.97 664.583C2133.39 685.974 2115.72 699.924 2094.33 699.924C2063.64 699.924 2042.24 671.093 2049.68 642.261L2178.03 175.379C2183.61 153.988 2201.28 140.038 2222.67 140.038C2253.36 140.038 2274.75 168.869 2267.31 197.701L2249.64 263.734C2280.34 222.812 2315.68 197.701 2358.46 197.701C2392.87 197.701 2435.65 214.441 2453.32 265.594C2490.53 197.701 2537.96 145.618 2599.34 145.618C2668.16 145.618 2708.16 211.651 2708.16 312.096C2708.16 411.611 2670.95 538.097 2634.68 664.583C2629.1 685.043 2611.43 698.994 2590.04 698.994C2564.93 698.994 2543.54 677.603 2543.54 652.492C2543.54 648.772 2544.47 644.122 2545.4 640.401C2581.67 513.915 2615.15 400.45 2615.15 312.096C2615.15 256.293 2600.27 233.042 2595.62 233.042C2536.1 233.042 2437.51 497.175 2421.7 552.047L2416.12 570.648C2410.54 590.179 2392.87 604.13 2371.48 604.13C2346.37 604.13 2324.98 582.739 2324.98 557.627C2324.98 552.977 2325.91 548.327 2326.84 544.607C2347.3 476.714 2367.76 382.779 2368.69 328.837C2369.62 295.355 2364.04 285.125 2358.46 285.125C2303.59 285.125 2207.79 452.533 2156.64 603.2H2155.71L2138.97 664.583ZM2781.13 375.339C2766.25 367.899 2756.02 353.018 2756.02 335.347C2756.02 311.166 2776.48 290.705 2800.67 290.705C2805.32 290.705 2809.97 291.635 2813.69 292.565L2841.59 210.721C2847.17 192.12 2864.84 178.17 2885.3 178.17C2910.41 178.17 2931.8 199.561 2931.8 224.672C2931.8 229.322 2930.87 233.972 2929.01 238.622L2897.39 332.557C2971.79 372.549 3034.11 423.701 3034.11 509.265C3034.11 643.192 2879.72 704.574 2822.06 704.574C2774.62 704.574 2734.63 672.023 2734.63 604.13C2734.63 553.907 2756.95 468.343 2785.78 377.199L2781.13 375.339ZM2826.71 617.15C2857.4 613.43 2941.1 577.158 2941.1 509.265C2941.1 472.063 2914.13 445.092 2869.49 419.051C2845.31 497.175 2827.64 565.998 2827.64 604.13C2827.64 610.64 2827.64 613.43 2826.71 617.15Z"/>
</mask>
<path d="M117.344 940.806C112.694 960.336 94.0928 976.147 72.7018 976.147C42.0104 976.147 20.6194 947.316 28.0597 918.485L261.501 61.9141C266.151 42.3832 284.752 26.5725 306.143 26.5725C336.834 26.5725 358.225 55.4038 350.785 84.2352L314.513 218.161C344.275 183.75 379.616 160.499 421.468 160.499C490.292 160.499 531.213 221.882 531.213 303.725C531.213 458.113 388.917 645.982 176.867 723.175L117.344 940.806ZM206.628 613.43C347.065 539.027 438.209 406.03 438.209 303.725C438.209 264.664 427.979 247.923 412.168 247.923C370.316 247.923 300.563 362.318 243.83 477.644L206.628 613.43ZM813.409 578.088C819.919 575.298 826.43 573.438 832.94 573.438C857.121 573.438 877.582 593.899 877.582 618.08C877.582 635.751 867.352 650.632 852.471 658.072C795.738 684.113 729.705 699.924 667.392 699.924C604.149 699.924 525.096 680.393 525.096 562.278C525.096 398.59 676.693 175.379 795.738 175.379C851.541 175.379 900.833 221.882 900.833 287.915C900.833 389.29 771.557 524.146 665.532 612.5H667.392C714.824 612.5 764.117 600.41 813.409 578.088ZM619.96 531.586C712.034 452.533 807.829 346.508 807.829 287.915C807.829 273.034 799.458 262.804 795.738 262.804C752.026 262.804 637.631 406.03 619.96 531.586ZM1504.27 173.519C1509.85 153.058 1527.52 139.108 1548.91 139.108C1575.89 139.108 1595.42 161.429 1595.42 185.61C1595.42 189.33 1594.49 193.98 1593.56 197.701L1588.91 215.371L1466.14 664.583C1461.49 684.113 1442.89 699.924 1421.5 699.924C1390.81 699.924 1369.42 671.093 1376.86 642.261L1387.09 603.2C1351.74 637.611 1315.47 657.142 1281.99 657.142C1246.65 657.142 1202.94 636.681 1186.2 583.669C1138.76 654.352 1086.68 700.854 1031.81 700.854C954.616 700.854 936.015 629.241 936.015 560.418C936.015 434.862 975.077 304.656 1009.49 179.1C1014.14 159.569 1032.74 143.758 1054.13 143.758C1084.82 143.758 1106.21 172.589 1098.77 201.421C1064.36 326.977 1029.02 446.022 1029.02 560.418C1029.02 595.759 1029.95 613.43 1031.81 613.43C1073.66 613.43 1160.16 462.763 1215.03 304.656L1242 214.441C1247.58 194.91 1265.25 180.96 1286.64 180.96C1305.24 180.96 1321.05 191.19 1328.49 207.001C1331.28 212.581 1333.14 220.022 1333.14 227.462C1333.14 232.112 1332.21 236.762 1331.28 240.483L1327.56 250.713C1321.05 275.824 1314.54 299.075 1306.17 324.186C1279.2 419.051 1271.76 467.413 1271.76 529.726C1271.76 560.418 1280.13 569.718 1281.99 569.718C1319.19 569.718 1437.31 412.541 1504.27 173.519ZM1552.23 594.829C1552.23 439.512 1726.15 179.1 1891.69 179.1C1996.79 179.1 2026.55 268.384 2026.55 392.08C2026.55 522.286 2001.44 613.43 1985.63 668.303C1980.05 688.764 1962.38 702.714 1940.99 702.714C1915.87 702.714 1894.48 681.323 1894.48 656.212C1894.48 651.562 1895.41 647.842 1896.34 644.122C1912.15 589.249 1933.55 511.125 1933.55 392.08C1933.55 348.368 1930.76 316.746 1923.31 295.355C1843.33 574.368 1756.84 721.315 1652.67 721.315C1587.57 721.315 1552.23 665.513 1552.23 594.829ZM1645.23 594.829C1645.23 624.591 1650.81 633.891 1652.67 633.891C1681.5 633.891 1759.63 542.747 1835.89 284.195C1745.68 337.207 1645.23 495.315 1645.23 594.829ZM2138.97 664.583C2133.39 685.974 2115.72 699.924 2094.33 699.924C2063.64 699.924 2042.24 671.093 2049.68 642.261L2178.03 175.379C2183.61 153.988 2201.28 140.038 2222.67 140.038C2253.36 140.038 2274.75 168.869 2267.31 197.701L2249.64 263.734C2280.34 222.812 2315.68 197.701 2358.46 197.701C2392.87 197.701 2435.65 214.441 2453.32 265.594C2490.53 197.701 2537.96 145.618 2599.34 145.618C2668.16 145.618 2708.16 211.651 2708.16 312.096C2708.16 411.611 2670.95 538.097 2634.68 664.583C2629.1 685.043 2611.43 698.994 2590.04 698.994C2564.93 698.994 2543.54 677.603 2543.54 652.492C2543.54 648.772 2544.47 644.122 2545.4 640.401C2581.67 513.915 2615.15 400.45 2615.15 312.096C2615.15 256.293 2600.27 233.042 2595.62 233.042C2536.1 233.042 2437.51 497.175 2421.7 552.047L2416.12 570.648C2410.54 590.179 2392.87 604.13 2371.48 604.13C2346.37 604.13 2324.98 582.739 2324.98 557.627C2324.98 552.977 2325.91 548.327 2326.84 544.607C2347.3 476.714 2367.76 382.779 2368.69 328.837C2369.62 295.355 2364.04 285.125 2358.46 285.125C2303.59 285.125 2207.79 452.533 2156.64 603.2H2155.71L2138.97 664.583ZM2781.13 375.339C2766.25 367.899 2756.02 353.018 2756.02 335.347C2756.02 311.166 2776.48 290.705 2800.67 290.705C2805.32 290.705 2809.97 291.635 2813.69 292.565L2841.59 210.721C2847.17 192.12 2864.84 178.17 2885.3 178.17C2910.41 178.17 2931.8 199.561 2931.8 224.672C2931.8 229.322 2930.87 233.972 2929.01 238.622L2897.39 332.557C2971.79 372.549 3034.11 423.701 3034.11 509.265C3034.11 643.192 2879.72 704.574 2822.06 704.574C2774.62 704.574 2734.63 672.023 2734.63 604.13C2734.63 553.907 2756.95 468.343 2785.78 377.199L2781.13 375.339ZM2826.71 617.15C2857.4 613.43 2941.1 577.158 2941.1 509.265C2941.1 472.063 2914.13 445.092 2869.49 419.051C2845.31 497.175 2827.64 565.998 2827.64 604.13C2827.64 610.64 2827.64 613.43 2826.71 617.15Z" fill="#D3F0FF"/>
<path d="M117.344 940.806L91.7126 933.795L91.5961 934.221L91.4939 934.651L117.344 940.806ZM28.0597 918.484L2.42207 911.497L2.37486 911.671L2.32999 911.845L28.0597 918.484ZM261.501 61.9141L287.138 68.9011L287.251 68.4867L287.351 68.0688L261.501 61.9141ZM350.785 84.2352L376.434 91.1816L376.475 91.0286L376.515 90.8751L350.785 84.2352ZM314.513 218.161L288.865 211.215L334.612 235.544L314.513 218.161ZM176.867 723.175L167.777 698.206L154.861 702.907L151.235 716.165L176.867 723.175ZM206.628 613.43L181 606.409L164.76 665.683L219.068 636.911L206.628 613.43ZM243.83 477.644L219.986 465.914L218.87 468.183L218.202 470.622L243.83 477.644ZM117.344 940.806L91.4939 934.651C89.5718 942.724 81.2695 949.575 72.7018 949.575V976.147V1002.72C106.916 1002.72 135.816 977.949 143.194 946.96L117.344 940.806ZM72.7018 976.147V949.575C59.789 949.575 50.5871 937.534 53.7894 925.124L28.0597 918.484L2.32999 911.845C-9.34834 957.098 24.2317 1002.72 72.7018 1002.72V976.147ZM28.0597 918.484L53.6974 925.472L287.138 68.9011L261.501 61.9141L235.863 54.9271L2.42207 911.497L28.0597 918.484ZM261.501 61.9141L287.351 68.0688C289.273 59.9962 297.575 53.1451 306.143 53.1451V26.5724V-0.000244141C271.928 -0.000244141 243.029 24.7701 235.651 55.7593L261.501 61.9141ZM306.143 26.5724V53.1451C319.056 53.1451 328.258 65.1861 325.055 77.5952L350.785 84.2352L376.515 90.8751C388.193 45.6215 354.613 -0.000244141 306.143 -0.000244141V26.5724ZM350.785 84.2352L325.136 77.2886L288.865 211.215L314.513 218.161L340.162 225.108L376.434 91.1816L350.785 84.2352ZM314.513 218.161L334.612 235.544C361.786 204.124 390.432 187.071 421.468 187.071V160.499V133.926C368.801 133.926 326.763 163.376 294.415 200.779L314.513 218.161ZM421.468 160.499V187.071C446.97 187.071 466.646 198.02 480.752 217.177C495.39 237.055 504.641 266.884 504.641 303.725H531.213H557.786C557.786 258.723 546.576 216.938 523.547 185.664C499.987 153.669 464.79 133.926 421.468 133.926V160.499ZM531.213 303.725H504.641C504.641 373.132 472.383 452.946 412.989 525.576C353.843 597.902 269.181 661.291 167.777 698.206L176.867 723.175L185.957 748.145C296.602 707.866 389.114 638.724 454.129 559.22C518.895 480.021 557.786 388.706 557.786 303.725H531.213ZM176.867 723.175L151.235 716.165L91.7126 933.795L117.344 940.806L142.975 947.816L202.498 730.186L176.867 723.175ZM206.628 613.43L219.068 636.911C292.86 597.816 353.842 543.286 396.555 484.694C439.002 426.468 464.782 362.257 464.782 303.725H438.209H411.636C411.636 347.499 391.844 400.939 353.61 453.387C315.641 505.47 260.833 554.641 194.188 589.949L206.628 613.43ZM438.209 303.725H464.782C464.782 282.652 462.148 263.819 454.885 249.292C446.757 233.038 432.019 221.35 412.168 221.35V247.923V274.496C411.167 274.496 409.454 274.143 407.891 273.072C406.534 272.142 406.605 271.57 407.35 273.06C409.155 276.669 411.636 285.737 411.636 303.725H438.209ZM412.168 247.923V221.35C390.795 221.35 372.011 235.04 357.976 248.248C342.718 262.606 327.083 282.223 311.727 304.417C280.894 348.981 248.608 407.732 219.986 465.914L243.83 477.644L267.674 489.373C295.784 432.23 326.742 376.121 355.431 334.656C369.837 313.835 383.033 297.645 394.397 286.951C406.985 275.105 412.614 274.496 412.168 274.496V247.923ZM243.83 477.644L218.202 470.622L181 606.409L206.628 613.43L232.256 620.452L269.458 484.665L243.83 477.644ZM813.409 578.088L802.942 553.664L802.693 553.771L802.448 553.882L813.409 578.088ZM852.471 658.072L863.556 682.222L863.959 682.038L864.355 681.84L852.471 658.072ZM665.532 612.5L648.521 592.086L592.137 639.073H665.532V612.5ZM619.96 531.586L593.647 527.883L583.83 597.63L637.27 551.747L619.96 531.586ZM813.409 578.088L823.877 602.513C828.639 600.471 831.407 600.011 832.94 600.011V573.438V546.866C821.453 546.866 811.2 550.125 802.942 553.664L813.409 578.088ZM832.94 573.438V600.011C842.445 600.011 851.009 608.575 851.009 618.08H877.582H904.155C904.155 579.224 871.797 546.866 832.94 546.866V573.438ZM877.582 618.08H851.009C851.009 624.922 847.17 631.014 840.587 634.305L852.471 658.072L864.355 681.84C887.534 670.25 904.155 646.58 904.155 618.08H877.582ZM852.471 658.072L841.386 633.922C787.774 658.531 725.505 673.352 667.392 673.352V699.924V726.497C733.905 726.497 803.702 709.696 863.556 682.222L852.471 658.072ZM667.392 699.924V673.352C637.614 673.352 608.812 668.569 587.912 653.728C568.787 640.147 551.668 614.785 551.668 562.278H525.096H498.523C498.523 627.886 520.931 671.347 557.143 697.06C591.581 721.514 633.928 726.497 667.392 726.497V699.924ZM525.096 562.278H551.668C551.668 487.479 586.83 395.963 637.625 322.568C662.834 286.142 691.091 255.377 719.289 233.983C747.83 212.329 774.044 201.952 795.738 201.952V175.379V148.807C757.91 148.807 720.532 166.331 687.167 191.644C653.459 217.218 621.495 252.486 593.925 292.324C539.159 371.456 498.523 473.388 498.523 562.278H525.096ZM795.738 175.379V201.952C836.127 201.952 874.261 235.808 874.261 287.915H900.833H927.406C927.406 207.955 866.954 148.807 795.738 148.807V175.379ZM900.833 287.915H874.261C874.261 328.938 847.179 381.797 802.127 438.573C758.068 494.096 700.704 548.601 648.521 592.086L665.532 612.5L682.544 632.914C736.386 588.045 796.672 530.945 843.757 471.608C889.849 413.523 927.406 348.267 927.406 287.915H900.833ZM665.532 612.5V639.073H667.392V612.5V585.927H665.532V612.5ZM667.392 612.5V639.073C719.334 639.073 772.366 625.844 824.371 602.295L813.409 578.088L802.448 553.882C755.867 574.975 710.315 585.927 667.392 585.927V612.5ZM619.96 531.586L637.27 551.747C684.141 511.505 732.327 464.1 769.059 418.818C787.409 396.196 803.354 373.55 814.836 352.156C826.033 331.292 834.402 309.05 834.402 287.915H807.829H781.256C781.256 296.076 777.65 309.059 768.008 327.025C758.651 344.46 744.894 364.247 727.785 385.338C693.602 427.479 647.853 472.614 602.65 511.425L619.96 531.586ZM807.829 287.915H834.402C834.402 275.543 830.944 264.701 826.175 256.465C823.824 252.404 820.807 248.376 817.093 244.992C814.64 242.757 807.035 236.231 795.738 236.231V262.804V289.376C790.397 289.376 786.588 287.652 784.92 286.771C783.035 285.776 781.846 284.774 781.3 284.277C780.203 283.277 779.975 282.736 780.182 283.093C780.529 283.692 781.256 285.406 781.256 287.915H807.829ZM795.738 262.804V236.231C783.635 236.231 772.33 240.945 763.262 246.083C753.735 251.48 744.047 258.862 734.568 267.368C715.571 284.417 695.331 307.872 676.358 334.811C638.656 388.343 603.271 459.499 593.647 527.883L619.96 531.586L646.273 535.29C654.32 478.118 684.968 414.882 719.809 365.412C737.108 340.85 754.767 320.651 770.065 306.921C777.735 300.038 784.293 295.249 789.458 292.323C795.081 289.138 796.914 289.376 795.738 289.376V262.804ZM1504.27 173.519L1529.86 180.688L1529.88 180.6L1529.91 180.511L1504.27 173.519ZM1593.56 197.701L1619.25 204.463L1619.3 204.305L1619.34 204.146L1593.56 197.701ZM1588.91 215.371L1614.54 222.377L1614.57 222.255L1614.6 222.134L1588.91 215.371ZM1466.14 664.583L1440.51 657.577L1440.39 658.001L1440.29 658.428L1466.14 664.583ZM1376.86 642.261L1351.15 635.529L1351.14 635.575L1351.13 635.622L1376.86 642.261ZM1387.09 603.2L1412.79 609.932L1437 517.515L1368.55 584.161L1387.09 603.2ZM1186.2 583.669L1211.54 575.667L1194.91 523.003L1164.13 568.862L1186.2 583.669ZM1009.49 179.1L1035.12 186.123L1035.23 185.691L1035.34 185.254L1009.49 179.1ZM1098.77 201.421L1124.4 208.445L1124.45 208.253L1124.5 208.061L1098.77 201.421ZM1215.03 304.656L1240.13 313.368L1240.32 312.821L1240.49 312.267L1215.03 304.656ZM1242 214.441L1267.46 222.053L1267.51 221.897L1267.55 221.741L1242 214.441ZM1328.49 207.001L1304.45 218.316L1304.58 218.602L1304.73 218.885L1328.49 207.001ZM1331.28 240.483L1356.26 249.564L1356.73 248.266L1357.06 246.927L1331.28 240.483ZM1327.56 250.713L1302.59 241.632L1302.16 242.82L1301.84 244.044L1327.56 250.713ZM1306.17 324.186L1280.96 315.783L1280.78 316.348L1280.61 316.919L1306.17 324.186ZM1504.27 173.519L1529.91 180.511C1532.43 171.276 1539.85 165.68 1548.91 165.68V139.108V112.535C1515.2 112.535 1487.28 134.84 1478.64 166.528L1504.27 173.519ZM1548.91 139.108V165.68C1560.18 165.68 1568.84 175.057 1568.84 185.61H1595.42H1621.99C1621.99 147.8 1591.59 112.535 1548.91 112.535V139.108ZM1595.42 185.61H1568.84C1568.84 185.461 1568.84 185.977 1568.62 187.287C1568.42 188.487 1568.13 189.858 1567.78 191.255L1593.56 197.701L1619.34 204.146C1620.36 200.05 1621.99 192.761 1621.99 185.61H1595.42ZM1593.56 197.701L1567.86 190.938L1563.21 208.609L1588.91 215.371L1614.6 222.134L1619.25 204.463L1593.56 197.701ZM1588.91 215.371L1563.27 208.366L1440.51 657.577L1466.14 664.583L1491.77 671.588L1614.54 222.377L1588.91 215.371ZM1466.14 664.583L1440.29 658.428C1438.37 666.5 1430.07 673.352 1421.5 673.352V699.924V726.497C1455.71 726.497 1484.61 701.726 1491.99 670.737L1466.14 664.583ZM1421.5 699.924V673.352C1408.59 673.352 1399.38 661.311 1402.59 648.901L1376.86 642.261L1351.13 635.622C1339.45 680.875 1373.03 726.497 1421.5 726.497V699.924ZM1376.86 642.261L1402.56 648.994L1412.79 609.932L1387.09 603.2L1361.38 596.467L1351.15 635.529L1376.86 642.261ZM1387.09 603.2L1368.55 584.161C1335.32 616.512 1305.39 630.57 1281.99 630.57V657.142V683.715C1325.55 683.715 1368.17 658.71 1405.62 622.238L1387.09 603.2ZM1281.99 657.142V630.57C1256.45 630.57 1224.27 616.001 1211.54 575.667L1186.2 583.669L1160.86 591.671C1181.6 657.362 1236.85 683.715 1281.99 683.715V657.142ZM1186.2 583.669L1164.13 568.862C1141.27 602.936 1118.16 629.811 1095.29 647.945C1072.48 666.027 1051.4 674.282 1031.81 674.282V700.854V727.427C1067.09 727.427 1099.49 712.431 1128.3 689.591C1157.05 666.802 1183.7 635.084 1208.26 598.476L1186.2 583.669ZM1031.81 700.854V674.282C1016.77 674.282 1006.11 670.847 998.249 665.987C990.315 661.082 983.723 653.786 978.351 643.828C967.18 623.12 962.588 593.303 962.588 560.418H936.015H909.442C909.442 596.356 914.151 636.757 931.578 669.061C940.506 685.61 953.038 700.518 970.302 711.191C987.64 721.91 1008.25 727.427 1031.81 727.427V700.854ZM936.015 560.418H962.588C962.588 439.281 1000.31 313.12 1035.12 186.123L1009.49 179.1L983.861 172.076C949.844 296.191 909.442 430.442 909.442 560.418H936.015ZM1009.49 179.1L1035.34 185.254C1037.26 177.182 1045.56 170.331 1054.13 170.331V143.758V117.185C1019.92 117.185 991.017 141.956 983.638 172.945L1009.49 179.1ZM1054.13 143.758V170.331C1067.04 170.331 1076.25 182.372 1073.04 194.781L1098.77 201.421L1124.5 208.061C1136.18 162.807 1102.6 117.185 1054.13 117.185V143.758ZM1098.77 201.421L1073.15 194.397C1039.13 318.52 1002.45 441.605 1002.45 560.418H1029.02H1055.59C1055.59 450.44 1089.6 335.433 1124.4 208.445L1098.77 201.421ZM1029.02 560.418H1002.45C1002.45 578.193 1002.68 592.015 1003.18 601.574C1003.42 606.206 1003.77 610.641 1004.34 614.261C1004.59 615.844 1005.1 618.74 1006.22 621.788C1006.73 623.175 1008 626.37 1010.62 629.689C1013.12 632.858 1020.08 640.003 1031.81 640.003V613.43V586.857C1043.31 586.857 1050.04 593.864 1052.33 596.757C1054.73 599.8 1055.78 602.581 1056.09 603.415C1056.81 605.359 1056.94 606.599 1056.84 605.972C1056.71 605.175 1056.47 602.983 1056.25 598.78C1055.83 590.668 1055.59 577.984 1055.59 560.418H1029.02ZM1031.81 613.43V640.003C1044.69 640.003 1055.93 634.403 1064.44 628.583C1073.32 622.516 1081.95 614.336 1090.18 605.138C1106.68 586.697 1124.15 561.253 1141.45 531.786C1176.17 472.647 1212.21 393.83 1240.13 313.368L1215.03 304.656L1189.92 295.943C1162.98 373.589 1128.33 449.159 1095.62 504.881C1079.21 532.843 1063.78 554.948 1050.58 569.697C1043.96 577.096 1038.53 581.921 1034.45 584.711C1030.01 587.749 1029.39 586.857 1031.81 586.857V613.43ZM1215.03 304.656L1240.49 312.267L1267.46 222.053L1242 214.441L1216.54 206.83L1189.57 297.044L1215.03 304.656ZM1242 214.441L1267.55 221.741C1269.92 213.431 1277.31 207.532 1286.64 207.532V180.96V154.387C1253.19 154.387 1225.24 176.39 1216.45 207.141L1242 214.441ZM1286.64 180.96V207.532C1295.12 207.532 1301.46 211.969 1304.45 218.316L1328.49 207.001L1352.54 195.686C1340.64 170.411 1315.37 154.387 1286.64 154.387V180.96ZM1328.49 207.001L1304.73 218.885C1305.1 219.637 1305.6 220.905 1305.99 222.572C1306.37 224.217 1306.57 225.91 1306.57 227.462H1333.14H1359.72C1359.72 215.991 1356.94 204.471 1352.26 195.117L1328.49 207.001ZM1333.14 227.462H1306.57C1306.57 228.064 1306.51 228.962 1306.31 230.177C1306.13 231.374 1305.85 232.661 1305.5 234.038L1331.28 240.483L1357.06 246.927C1358.18 242.444 1359.72 235.334 1359.72 227.462H1333.14ZM1331.28 240.483L1306.31 231.401L1302.59 241.632L1327.56 250.713L1352.54 259.794L1356.26 249.564L1331.28 240.483ZM1327.56 250.713L1301.84 244.044C1295.41 268.831 1289.07 291.452 1280.96 315.783L1306.17 324.186L1331.38 332.59C1340.01 306.698 1346.69 282.817 1353.29 257.382L1327.56 250.713ZM1306.17 324.186L1280.61 316.919C1253.23 413.216 1245.19 464.146 1245.19 529.726H1271.76H1298.33C1298.33 470.681 1305.17 424.886 1331.73 331.453L1306.17 324.186ZM1271.76 529.726H1245.19C1245.19 547.322 1247.57 560.674 1251.32 570.613C1253.18 575.536 1255.56 580.136 1258.6 584.052C1260.08 585.966 1262.11 588.229 1264.78 590.289C1266.27 591.447 1272.58 596.291 1281.99 596.291V569.718V543.145C1287.07 543.145 1290.86 544.626 1292.72 545.488C1294.81 546.454 1296.33 547.51 1297.26 548.228C1299.11 549.659 1300.18 550.956 1300.62 551.518C1301.56 552.731 1301.51 553.088 1301.04 551.85C1300.14 549.466 1298.33 542.822 1298.33 529.726H1271.76ZM1281.99 569.718V596.291C1294.89 596.291 1306.36 590.019 1314.55 584.385C1323.56 578.176 1332.94 569.659 1342.37 559.618C1361.31 539.451 1382.72 510.759 1404.6 475.174C1448.47 403.859 1495.72 302.531 1529.86 180.688L1504.27 173.519L1478.68 166.351C1445.86 283.529 1400.57 380.3 1359.34 447.329C1338.68 480.916 1319.39 506.458 1303.63 523.23C1295.71 531.66 1289.23 537.29 1284.41 540.61C1278.75 544.506 1278.39 543.145 1281.99 543.145V569.718ZM1985.63 668.303L1960.09 660.945L1960.04 661.128L1959.99 661.311L1985.63 668.303ZM1896.34 644.122L1870.81 636.764L1870.68 637.218L1870.56 637.677L1896.34 644.122ZM1923.31 295.355L1948.41 286.625L1920.87 207.447L1897.77 288.033L1923.31 295.355ZM1835.89 284.195L1861.38 291.712L1880.4 227.218L1822.43 261.285L1835.89 284.195ZM1552.23 594.829H1578.8C1578.8 525.108 1618.82 426.737 1681.04 344.79C1743.85 262.066 1821.83 205.672 1891.69 205.672V179.1V152.527C1796.01 152.527 1704.25 226.34 1638.72 312.651C1572.59 399.74 1525.65 509.233 1525.65 594.829H1552.23ZM1891.69 179.1V205.672C1914.13 205.672 1930.87 210.406 1943.66 217.905C1956.41 225.385 1966.83 236.548 1975.2 251.913C1992.48 283.656 1999.98 331.339 1999.98 392.08H2026.55H2053.12C2053.12 329.124 2045.73 270.317 2021.87 226.494C2009.66 204.077 1992.93 185.187 1970.54 172.061C1948.19 158.954 1921.8 152.527 1891.69 152.527V179.1ZM2026.55 392.08H1999.98C1999.98 518.631 1975.64 607.001 1960.09 660.945L1985.63 668.303L2011.16 675.66C2027.24 619.859 2053.12 525.94 2053.12 392.08H2026.55ZM1985.63 668.303L1959.99 661.311C1957.47 670.546 1950.05 676.142 1940.99 676.142V702.714V729.287C1974.7 729.287 2002.62 706.982 2011.26 675.294L1985.63 668.303ZM1940.99 702.714V676.142C1930.55 676.142 1921.06 666.648 1921.06 656.212H1894.48H1867.91C1867.91 695.999 1901.2 729.287 1940.99 729.287V702.714ZM1894.48 656.212H1921.06C1921.06 655.202 1921.17 654.368 1922.12 650.567L1896.34 644.122L1870.56 637.677C1869.65 641.315 1867.91 647.922 1867.91 656.212H1894.48ZM1896.34 644.122L1921.88 651.479C1937.98 595.583 1960.12 514.721 1960.12 392.08H1933.55H1906.97C1906.97 507.53 1886.33 582.915 1870.81 636.764L1896.34 644.122ZM1933.55 392.08H1960.12C1960.12 348.242 1957.46 312.63 1948.41 286.625L1923.31 295.355L1898.22 304.085C1904.05 320.862 1906.97 348.493 1906.97 392.08H1933.55ZM1923.31 295.355L1897.77 288.033C1857.99 426.8 1817.18 530.46 1774.51 598.908C1731.34 668.154 1690.63 694.743 1652.67 694.743V721.315V747.888C1718.88 747.888 1773.49 701.003 1819.61 627.022C1866.23 552.243 1908.65 442.924 1948.86 302.678L1923.31 295.355ZM1652.67 721.315V694.743C1628.71 694.743 1611.42 684.914 1599.35 668.705C1586.67 651.685 1578.8 626.12 1578.8 594.829H1552.23H1525.65C1525.65 634.221 1535.46 671.9 1556.73 700.452C1578.6 729.815 1611.53 747.888 1652.67 747.888V721.315ZM1645.23 594.829H1618.66C1618.66 611.161 1620.17 623.414 1622.6 632.429C1623.78 636.842 1625.42 641.364 1627.81 645.424C1628.96 647.392 1630.8 650.135 1633.57 652.746C1635.49 654.566 1642.14 660.464 1652.67 660.464V633.891V607.318C1658.04 607.318 1662.18 608.96 1664.67 610.271C1667.21 611.609 1668.99 613.105 1670.07 614.121C1672.17 616.107 1673.27 617.891 1673.64 618.522C1674.45 619.908 1674.35 620.245 1673.91 618.612C1673.09 615.537 1671.8 608.259 1671.8 594.829H1645.23ZM1652.67 633.891V660.464C1662.9 660.464 1672.07 656.592 1679.27 652.314C1686.77 647.855 1694.22 641.714 1701.54 634.389C1716.18 619.726 1732.33 598.266 1749.35 569.551C1783.48 511.981 1822.84 422.353 1861.38 291.712L1835.89 284.195L1810.4 276.677C1772.67 404.588 1734.84 489.808 1703.64 542.449C1687.99 568.839 1674.43 586.324 1663.94 596.831C1658.68 602.091 1654.7 605.09 1652.12 606.625C1649.23 608.342 1649.65 607.318 1652.67 607.318V633.891ZM1835.89 284.195L1822.43 261.285C1772.2 290.801 1721.76 347.505 1684.16 408.055C1646.74 468.309 1618.66 537.794 1618.66 594.829H1645.23H1671.8C1671.8 552.35 1693.95 493.023 1729.3 436.093C1764.48 379.457 1809.37 330.601 1849.35 307.105L1835.89 284.195ZM2138.97 664.583L2113.33 657.591L2113.29 657.733L2113.26 657.875L2138.97 664.583ZM2049.68 642.261L2024.06 635.218L2024.01 635.419L2023.95 635.622L2049.68 642.261ZM2178.03 175.379L2203.65 182.423L2203.7 182.255L2203.74 182.087L2178.03 175.379ZM2267.31 197.701L2292.98 204.57L2293.01 204.455L2293.04 204.34L2267.31 197.701ZM2249.64 263.734L2223.97 256.864L2270.9 279.677L2249.64 263.734ZM2453.32 265.594L2428.21 274.27L2447.8 330.978L2476.63 278.363L2453.32 265.594ZM2634.68 664.583L2609.14 657.258L2609.09 657.424L2609.05 657.591L2634.68 664.583ZM2545.4 640.401L2519.85 633.077L2519.73 633.515L2519.62 633.957L2545.4 640.401ZM2421.7 552.047L2447.15 559.683L2447.2 559.544L2447.24 559.404L2421.7 552.047ZM2416.12 570.648L2390.67 563.013L2390.62 563.18L2390.57 563.348L2416.12 570.648ZM2326.84 544.607L2301.4 536.939L2301.21 537.547L2301.06 538.162L2326.84 544.607ZM2368.69 328.837L2342.13 328.099L2342.12 328.239L2342.12 328.379L2368.69 328.837ZM2156.64 603.2V629.772H2175.68L2181.8 611.742L2156.64 603.2ZM2155.71 603.2V576.627H2135.41L2130.07 596.208L2155.71 603.2ZM2138.97 664.583L2113.26 657.875C2110.6 668.065 2103.12 673.352 2094.33 673.352V699.924V726.497C2128.32 726.497 2156.18 703.882 2164.68 671.29L2138.97 664.583ZM2094.33 699.924V673.352C2081.41 673.352 2072.21 661.311 2075.41 648.901L2049.68 642.261L2023.95 635.622C2012.28 680.875 2045.86 726.497 2094.33 726.497V699.924ZM2049.68 642.261L2075.31 649.305L2203.65 182.423L2178.03 175.379L2152.41 168.336L2024.06 635.218L2049.68 642.261ZM2178.03 175.379L2203.74 182.087C2206.4 171.897 2213.88 166.61 2222.67 166.61V140.038V113.465C2188.68 113.465 2160.82 136.08 2152.32 168.672L2178.03 175.379ZM2222.67 140.038V166.61C2235.59 166.61 2244.79 178.651 2241.58 191.061L2267.31 197.701L2293.04 204.34C2304.72 159.087 2271.14 113.465 2222.67 113.465V140.038ZM2267.31 197.701L2241.65 190.831L2223.97 256.864L2249.64 263.734L2275.31 270.603L2292.98 204.57L2267.31 197.701ZM2249.64 263.734L2270.9 279.677C2299.19 241.96 2327.6 224.273 2358.46 224.273V197.701V171.128C2303.75 171.128 2261.48 203.663 2228.39 247.79L2249.64 263.734ZM2358.46 197.701V224.273C2384.63 224.273 2415.15 236.482 2428.21 274.27L2453.32 265.594L2478.44 256.917C2456.15 192.401 2401.11 171.128 2358.46 171.128V197.701ZM2453.32 265.594L2476.63 278.363C2513.56 210.962 2554.25 172.191 2599.34 172.191V145.618V119.045C2521.67 119.045 2467.49 184.439 2430.02 252.825L2453.32 265.594ZM2599.34 145.618V172.191C2623.77 172.191 2642.94 183.273 2657.18 205.514C2672.11 228.842 2681.58 264.883 2681.58 312.096H2708.16H2734.73C2734.73 258.864 2724.21 211.666 2701.94 176.866C2678.97 140.979 2643.73 119.045 2599.34 119.045V145.618ZM2708.16 312.096H2681.58C2681.58 406.981 2645.86 529.215 2609.14 657.258L2634.68 664.583L2660.23 671.907C2696.05 546.978 2734.73 416.24 2734.73 312.096H2708.16ZM2634.68 664.583L2609.05 657.591C2606.53 666.826 2599.1 672.421 2590.04 672.421V698.994V725.567C2623.76 725.567 2651.68 703.262 2660.32 671.574L2634.68 664.583ZM2590.04 698.994V672.421C2579.6 672.421 2570.11 662.927 2570.11 652.492H2543.54H2516.96C2516.96 692.279 2550.25 725.567 2590.04 725.567V698.994ZM2543.54 652.492H2570.11C2570.11 652.641 2570.11 652.126 2570.33 650.815C2570.53 649.615 2570.83 648.243 2571.18 646.846L2545.4 640.401L2519.62 633.957C2518.59 638.051 2516.96 645.34 2516.96 652.492H2543.54ZM2545.4 640.401L2570.94 647.726C2606.73 522.936 2641.72 405.112 2641.72 312.096H2615.15H2588.58C2588.58 395.788 2556.61 504.895 2519.85 633.077L2545.4 640.401ZM2615.15 312.096H2641.72C2641.72 281.952 2637.72 259.235 2632.32 243.171C2629.65 235.237 2626.42 228.284 2622.69 222.735C2620.87 220.023 2618.44 216.905 2615.28 214.144C2613.11 212.243 2606.13 206.47 2595.62 206.47V233.042V259.615C2586.27 259.615 2580.78 254.567 2580.31 254.156C2578.85 252.886 2578.34 252.019 2578.57 252.36C2578.94 252.913 2580.31 255.261 2581.94 260.115C2585.14 269.628 2588.58 286.437 2588.58 312.096H2615.15ZM2595.62 233.042V206.47C2578.62 206.47 2564.45 215.587 2554.26 224.453C2543.52 233.803 2533.29 246.301 2523.76 259.974C2504.61 287.443 2485.46 323.772 2468.2 360.718C2433.63 434.675 2404.51 515.731 2396.17 544.69L2421.7 552.047L2447.24 559.404C2454.7 533.491 2482.78 455.044 2516.34 383.217C2533.14 347.27 2550.79 314.137 2567.36 290.366C2575.68 278.42 2583.05 269.854 2589.15 264.545C2595.81 258.751 2597.74 259.615 2595.62 259.615V233.042ZM2421.7 552.047L2396.25 544.412L2390.67 563.013L2416.12 570.648L2441.57 578.284L2447.15 559.683L2421.7 552.047ZM2416.12 570.648L2390.57 563.348C2388.2 571.659 2380.81 577.557 2371.48 577.557V604.13V630.702C2404.93 630.702 2432.89 608.699 2441.67 577.948L2416.12 570.648ZM2371.48 604.13V577.557C2361.04 577.557 2351.55 568.063 2351.55 557.628H2324.98H2298.4C2298.4 597.414 2331.69 630.702 2371.48 630.702V604.13ZM2324.98 557.628H2351.55C2351.55 557.025 2351.61 556.127 2351.81 554.913C2352 553.715 2352.27 552.429 2352.62 551.052L2326.84 544.607L2301.06 538.162C2299.94 542.645 2298.4 549.756 2298.4 557.628H2324.98ZM2326.84 544.607L2352.28 552.274C2372.93 483.768 2394.26 386.994 2395.26 329.295L2368.69 328.837L2342.12 328.379C2341.26 378.565 2321.67 469.66 2301.4 536.939L2326.84 544.607ZM2368.69 328.837L2395.25 329.575C2395.74 311.867 2394.66 297.668 2391.52 286.951C2389.95 281.617 2387.35 275.258 2382.56 269.776C2377.3 263.739 2369.02 258.552 2358.46 258.552V285.125V311.697C2350.69 311.697 2345.2 307.789 2342.52 304.717C2340.32 302.199 2340.1 300.491 2340.52 301.899C2341.33 304.668 2342.57 312.325 2342.13 328.099L2368.69 328.837ZM2358.46 285.125V258.552C2344.96 258.552 2332.62 263.614 2322.27 269.939C2311.77 276.361 2301.58 285.139 2291.89 295.141C2272.5 315.142 2252.62 342.586 2233.5 373.774C2195.16 436.32 2157.62 517.662 2131.48 594.657L2156.64 603.2L2181.8 611.742C2206.81 538.07 2242.75 460.374 2278.81 401.55C2296.89 372.052 2314.44 348.228 2330.05 332.132C2337.85 324.085 2344.55 318.607 2349.99 315.285C2355.58 311.867 2358.24 311.697 2358.46 311.697V285.125ZM2156.64 603.2V576.627H2155.71V603.2V629.772H2156.64V603.2ZM2155.71 603.2L2130.07 596.208L2113.33 657.591L2138.97 664.583L2164.6 671.574L2181.35 610.191L2155.71 603.2ZM2781.13 375.339L2769.25 399.106L2770.24 399.6L2771.27 400.011L2781.13 375.339ZM2813.69 292.565L2807.24 318.344L2830.95 324.272L2838.84 301.139L2813.69 292.565ZM2841.59 210.721L2866.74 219.295L2866.9 218.829L2867.04 218.357L2841.59 210.721ZM2929.01 238.622L2904.34 228.754L2904.06 229.442L2903.83 230.145L2929.01 238.622ZM2897.39 332.557L2872.21 324.079L2865.05 345.341L2884.81 355.963L2897.39 332.557ZM2785.78 377.199L2811.12 385.213L2818.56 361.69L2795.65 352.527L2785.78 377.199ZM2826.71 617.15L2800.93 610.706L2791.56 648.178L2829.9 643.53L2826.71 617.15ZM2869.49 419.051L2882.88 396.098L2853.99 379.248L2844.1 411.194L2869.49 419.051ZM2781.13 375.339L2793.02 351.572C2786.44 348.28 2782.6 342.189 2782.6 335.347H2756.02H2729.45C2729.45 363.847 2746.07 387.517 2769.25 399.106L2781.13 375.339ZM2756.02 335.347H2782.6C2782.6 325.842 2791.16 317.278 2800.67 317.278V290.705V264.132C2761.81 264.132 2729.45 296.49 2729.45 335.347H2756.02ZM2800.67 290.705V317.278C2801.27 317.278 2802.17 317.342 2803.38 317.534C2804.58 317.723 2805.86 318 2807.24 318.344L2813.69 292.565L2820.13 266.786C2815.65 265.665 2808.54 264.132 2800.67 264.132V290.705ZM2813.69 292.565L2838.84 301.139L2866.74 219.295L2841.59 210.721L2816.44 202.147L2788.53 283.991L2813.69 292.565ZM2841.59 210.721L2867.04 218.357C2869.36 210.627 2876.95 204.742 2885.3 204.742V178.17V151.597C2852.72 151.597 2824.98 173.613 2816.14 203.086L2841.59 210.721ZM2885.3 178.17V204.742C2895.74 204.742 2905.23 214.236 2905.23 224.672H2931.8H2958.37C2958.37 184.885 2925.09 151.597 2885.3 151.597V178.17ZM2931.8 224.672H2905.23C2905.23 225.689 2905.04 226.998 2904.34 228.754L2929.01 238.622L2953.68 248.491C2956.7 240.946 2958.37 232.956 2958.37 224.672H2931.8ZM2929.01 238.622L2903.83 230.145L2872.21 324.079L2897.39 332.557L2922.57 341.035L2954.2 247.1L2929.01 238.622ZM2897.39 332.557L2884.81 355.963C2958.05 395.329 3007.53 439.735 3007.53 509.265H3034.11H3060.68C3060.68 407.668 2985.54 349.769 2909.97 309.151L2897.39 332.557ZM3034.11 509.265H3007.53C3007.53 564.65 2975.94 606.32 2934.46 635.378C2892.2 664.979 2844.41 678.002 2822.06 678.002V704.574V731.147C2857.37 731.147 2915.6 713.478 2964.95 678.906C3015.08 643.791 3060.68 587.807 3060.68 509.265H3034.11ZM2822.06 704.574V678.002C2804.49 678.002 2789.95 672.082 2779.75 661.429C2769.55 650.789 2761.21 632.813 2761.21 604.13H2734.63H2708.06C2708.06 643.34 2719.71 675.585 2741.37 698.195C2763.02 720.791 2792.19 731.147 2822.06 731.147V704.574ZM2734.63 604.13H2761.21C2761.21 582.184 2766.19 550.667 2775.26 512.092C2784.24 473.936 2796.81 430.461 2811.12 385.213L2785.78 377.199L2760.45 369.185C2745.93 415.082 2732.93 459.96 2723.53 499.928C2714.23 539.476 2708.06 575.853 2708.06 604.13H2734.63ZM2785.78 377.199L2795.65 352.527L2791 350.667L2781.13 375.339L2771.27 400.011L2775.92 401.871L2785.78 377.199ZM2826.71 617.15L2829.9 643.53C2850.24 641.065 2883.05 629.131 2911.05 608.759C2939.21 588.264 2967.67 555.245 2967.67 509.265H2941.1H2914.53C2914.53 531.178 2901.14 550.242 2879.78 565.787C2858.25 581.453 2833.86 589.516 2823.51 590.771L2826.71 617.15ZM2941.1 509.265H2967.67C2967.67 456.501 2928.46 422.689 2882.88 396.098L2869.49 419.051L2856.1 442.004C2899.8 467.496 2914.53 487.626 2914.53 509.265H2941.1ZM2869.49 419.051L2844.1 411.194C2831.93 450.538 2821.26 487.932 2813.62 520.522C2806.1 552.634 2801.06 581.85 2801.06 604.13H2827.64H2854.21C2854.21 588.278 2858.01 564.016 2865.37 532.652C2872.61 501.767 2882.87 465.688 2894.87 426.908L2869.49 419.051ZM2827.64 604.13H2801.06C2801.06 605.803 2801.06 607.028 2801.05 608.075C2801.04 609.106 2801.02 609.721 2800.99 610.126C2800.98 610.315 2800.97 610.433 2800.97 610.499C2800.96 610.532 2800.96 610.554 2800.96 610.566C2800.96 610.572 2800.96 610.577 2800.96 610.579C2800.96 610.582 2800.96 610.583 2800.96 610.583C2800.96 610.583 2800.96 610.583 2800.96 610.582C2800.96 610.58 2800.96 610.579 2800.96 610.578C2800.96 610.575 2800.96 610.575 2800.96 610.578C2800.96 610.584 2800.95 610.622 2800.93 610.706L2826.71 617.15L2852.49 623.595C2854.35 616.133 2854.21 609.95 2854.21 604.13H2827.64Z" fill="#7F42E1" mask="url(#path-1-outside-1_1188_20791)"/>
</svg>
