<svg xmlns="http://www.w3.org/2000/svg" width="3061" height="1003" fill="none" viewBox="0 0 3061 1003">
    <mask id="a" width="3062" height="1003" x="-.664" y="-.236" fill="#000" maskUnits="userSpaceOnUse">
        <path fill="#fff" d="M-.664-.236h3062v1003h-3062z"/>
        <path d="M117.344 940.806c-4.65 19.53-23.251 35.341-44.642 35.341-30.692 0-52.083-28.831-44.642-57.662L261.5 61.915c4.65-19.532 23.251-35.342 44.642-35.342 30.691 0 52.082 28.83 44.642 57.662l-36.272 133.926c29.762-34.411 65.103-57.662 106.955-57.662 68.824 0 109.745 61.383 109.745 143.226 0 154.388-142.296 342.257-354.346 419.45zm89.284-327.376c140.437-74.403 231.581-207.4 231.581-309.705 0-39.061-10.23-55.802-26.041-55.802-41.852 0-111.605 114.395-168.338 229.721zm606.781-35.342c6.51-2.79 13.021-4.65 19.531-4.65 24.181 0 44.642 20.461 44.642 44.642 0 17.671-10.23 32.552-25.111 39.992-56.733 26.041-122.766 41.852-185.079 41.852-63.243 0-142.296-19.531-142.296-137.646 0-163.688 151.597-386.899 270.642-386.899 55.803 0 105.095 46.503 105.095 112.536 0 101.375-129.276 236.231-235.301 324.585h1.86c47.432 0 96.725-12.09 146.017-34.412M619.96 531.586c92.074-79.053 187.869-185.078 187.869-243.671 0-14.881-8.371-25.111-12.091-25.111-43.712 0-158.107 143.226-175.778 268.782m884.31-358.067c5.58-20.461 23.25-34.411 44.64-34.411 26.98 0 46.51 22.321 46.51 46.502 0 3.72-.93 8.37-1.86 12.091l-4.65 17.67-122.77 449.212c-4.65 19.53-23.25 35.341-44.64 35.341-30.69 0-52.08-28.831-44.64-57.663l10.23-39.061c-35.35 34.411-71.62 53.942-105.1 53.942-35.34 0-79.05-20.461-95.79-73.473-47.44 70.683-99.52 117.185-154.39 117.185-77.194 0-95.795-71.613-95.795-140.436 0-125.556 39.062-255.762 73.475-381.318 4.65-19.531 23.25-35.342 44.64-35.342 30.69 0 52.08 28.831 44.64 57.663-34.41 125.556-69.75 244.601-69.75 358.997q0 53.012 2.79 53.012c41.85 0 128.35-150.667 183.22-308.774l26.97-90.215c5.58-19.531 23.25-33.481 44.64-33.481 18.6 0 34.41 10.23 41.85 26.041 2.79 5.58 4.65 13.021 4.65 20.461 0 4.65-.93 9.3-1.86 13.021l-3.72 10.23c-6.51 25.111-13.02 48.362-21.39 73.473-26.97 94.865-34.41 143.227-34.41 205.54 0 30.692 8.37 39.992 10.23 39.992 37.2 0 155.32-157.177 222.28-396.199m47.96 421.31c0-155.317 173.92-415.729 339.46-415.729 105.1 0 134.86 89.284 134.86 212.98 0 130.206-25.11 221.35-40.92 276.223-5.58 20.461-23.25 34.411-44.64 34.411-25.12 0-46.51-21.391-46.51-46.502 0-4.65.93-8.37 1.86-12.09 15.81-54.873 37.21-132.997 37.21-252.042 0-43.712-2.79-75.334-10.24-96.725-79.98 279.013-166.47 425.96-270.64 425.96-65.1 0-100.44-55.802-100.44-126.486m93 0c0 29.762 5.58 39.062 7.44 39.062 28.83 0 106.96-91.144 183.22-349.696-90.21 53.012-190.66 211.12-190.66 310.634m493.74 69.754c-5.58 21.391-23.25 35.341-44.64 35.341-30.69 0-52.09-28.831-44.65-57.663l128.35-466.882c5.58-21.391 23.25-35.341 44.64-35.341 30.69 0 52.08 28.831 44.64 57.663l-17.67 66.033c30.7-40.922 66.04-66.033 108.82-66.033 34.41 0 77.19 16.74 94.86 67.893 37.21-67.893 84.64-119.976 146.02-119.976 68.82 0 108.82 66.033 108.82 166.478 0 99.515-37.21 226.001-73.48 352.487-5.58 20.46-23.25 34.411-44.64 34.411-25.11 0-46.5-21.391-46.5-46.502 0-3.72.93-8.37 1.86-12.091 36.27-126.486 69.75-239.951 69.75-328.305 0-55.803-14.88-79.054-19.53-79.054-59.52 0-158.11 264.133-173.92 319.005l-5.58 18.601c-5.58 19.531-23.25 33.482-44.64 33.482-25.11 0-46.5-21.391-46.5-46.503 0-4.65.93-9.3 1.86-13.02 20.46-67.893 40.92-161.828 41.85-215.77.93-33.482-4.65-43.712-10.23-43.712-54.87 0-150.67 167.408-201.82 318.075h-.93zm642.16-289.244c-14.88-7.44-25.11-22.321-25.11-39.992 0-24.181 20.46-44.642 44.65-44.642 4.65 0 9.3.93 13.02 1.86l27.9-81.844c5.58-18.601 23.25-32.551 43.71-32.551 25.11 0 46.5 21.391 46.5 46.502q0 6.975-2.79 13.95l-31.62 93.935c74.4 39.992 136.72 91.144 136.72 176.708 0 133.927-154.39 195.309-212.05 195.309-47.44 0-87.43-32.551-87.43-100.444 0-50.223 22.32-135.787 51.15-226.931zm45.58 241.811c30.69-3.72 114.39-39.992 114.39-107.885 0-37.202-26.97-64.173-71.61-90.214-24.18 78.124-41.85 146.947-41.85 185.079 0 6.51 0 9.3-.93 13.02"/>
    </mask>
    <path fill="#d3f0ff" d="M117.344 940.806c-4.65 19.53-23.251 35.341-44.642 35.341-30.692 0-52.083-28.831-44.642-57.662L261.5 61.915c4.65-19.532 23.251-35.342 44.642-35.342 30.691 0 52.082 28.83 44.642 57.662l-36.272 133.926c29.762-34.411 65.103-57.662 106.955-57.662 68.824 0 109.745 61.383 109.745 143.226 0 154.388-142.296 342.257-354.346 419.45zm89.284-327.376c140.437-74.403 231.581-207.4 231.581-309.705 0-39.061-10.23-55.802-26.041-55.802-41.852 0-111.605 114.395-168.338 229.721zm606.781-35.342c6.51-2.79 13.021-4.65 19.531-4.65 24.181 0 44.642 20.461 44.642 44.642 0 17.671-10.23 32.552-25.111 39.992-56.733 26.041-122.766 41.852-185.079 41.852-63.243 0-142.296-19.531-142.296-137.646 0-163.688 151.597-386.899 270.642-386.899 55.803 0 105.095 46.503 105.095 112.536 0 101.375-129.276 236.231-235.301 324.585h1.86c47.432 0 96.725-12.09 146.017-34.412M619.96 531.586c92.074-79.053 187.869-185.078 187.869-243.671 0-14.881-8.371-25.111-12.091-25.111-43.712 0-158.107 143.226-175.778 268.782m884.31-358.067c5.58-20.461 23.25-34.411 44.64-34.411 26.98 0 46.51 22.321 46.51 46.502 0 3.72-.93 8.37-1.86 12.091l-4.65 17.67-122.77 449.212c-4.65 19.53-23.25 35.341-44.64 35.341-30.69 0-52.08-28.831-44.64-57.663l10.23-39.061c-35.35 34.411-71.62 53.942-105.1 53.942-35.34 0-79.05-20.461-95.79-73.473-47.44 70.683-99.52 117.185-154.39 117.185-77.194 0-95.795-71.613-95.795-140.436 0-125.556 39.062-255.762 73.475-381.318 4.65-19.531 23.25-35.342 44.64-35.342 30.69 0 52.08 28.831 44.64 57.663-34.41 125.556-69.75 244.601-69.75 358.997q0 53.012 2.79 53.012c41.85 0 128.35-150.667 183.22-308.774l26.97-90.215c5.58-19.531 23.25-33.481 44.64-33.481 18.6 0 34.41 10.23 41.85 26.041 2.79 5.58 4.65 13.021 4.65 20.461 0 4.65-.93 9.3-1.86 13.021l-3.72 10.23c-6.51 25.111-13.02 48.362-21.39 73.473-26.97 94.865-34.41 143.227-34.41 205.54 0 30.692 8.37 39.992 10.23 39.992 37.2 0 155.32-157.177 222.28-396.199m47.96 421.31c0-155.317 173.92-415.729 339.46-415.729 105.1 0 134.86 89.284 134.86 212.98 0 130.206-25.11 221.35-40.92 276.223-5.58 20.461-23.25 34.411-44.64 34.411-25.12 0-46.51-21.391-46.51-46.502 0-4.65.93-8.37 1.86-12.09 15.81-54.873 37.21-132.997 37.21-252.042 0-43.712-2.79-75.334-10.24-96.725-79.98 279.013-166.47 425.96-270.64 425.96-65.1 0-100.44-55.802-100.44-126.486m93 0c0 29.762 5.58 39.062 7.44 39.062 28.83 0 106.96-91.144 183.22-349.696-90.21 53.012-190.66 211.12-190.66 310.634m493.74 69.754c-5.58 21.391-23.25 35.341-44.64 35.341-30.69 0-52.09-28.831-44.65-57.663l128.35-466.882c5.58-21.391 23.25-35.341 44.64-35.341 30.69 0 52.08 28.831 44.64 57.663l-17.67 66.033c30.7-40.922 66.04-66.033 108.82-66.033 34.41 0 77.19 16.74 94.86 67.893 37.21-67.893 84.64-119.976 146.02-119.976 68.82 0 108.82 66.033 108.82 166.478 0 99.515-37.21 226.001-73.48 352.487-5.58 20.46-23.25 34.411-44.64 34.411-25.11 0-46.5-21.391-46.5-46.502 0-3.72.93-8.37 1.86-12.091 36.27-126.486 69.75-239.951 69.75-328.305 0-55.803-14.88-79.054-19.53-79.054-59.52 0-158.11 264.133-173.92 319.005l-5.58 18.601c-5.58 19.531-23.25 33.482-44.64 33.482-25.11 0-46.5-21.391-46.5-46.503 0-4.65.93-9.3 1.86-13.02 20.46-67.893 40.92-161.828 41.85-215.77.93-33.482-4.65-43.712-10.23-43.712-54.87 0-150.67 167.408-201.82 318.075h-.93zm642.16-289.244c-14.88-7.44-25.11-22.321-25.11-39.992 0-24.181 20.46-44.642 44.65-44.642 4.65 0 9.3.93 13.02 1.86l27.9-81.844c5.58-18.601 23.25-32.551 43.71-32.551 25.11 0 46.5 21.391 46.5 46.502q0 6.975-2.79 13.95l-31.62 93.935c74.4 39.992 136.72 91.144 136.72 176.708 0 133.927-154.39 195.309-212.05 195.309-47.44 0-87.43-32.551-87.43-100.444 0-50.223 22.32-135.787 51.15-226.931zm45.58 241.811c30.69-3.72 114.39-39.992 114.39-107.885 0-37.202-26.97-64.173-71.61-90.214-24.18 78.124-41.85 146.947-41.85 185.079 0 6.51 0 9.3-.93 13.02"/>
    <path fill="#7f42e1" d="m117.344 940.806-25.631-7.011-.117.426-.102.43zM28.06 918.484l-25.638-6.987-.047.174-.045.174zM261.5 61.914l25.637 6.987.113-.414.1-.418zm89.284 22.321 25.649 6.947.041-.153.04-.154zm-36.272 133.926-25.648-6.946 45.747 24.329zM176.867 723.175l-9.09-24.969-12.916 4.701-3.626 13.258zm29.761-109.745L181 606.409l-16.24 59.274 54.308-28.772zm37.202-135.786-23.844-11.73-1.116 2.269-.668 2.439zM117.344 940.806l-25.85-6.155c-1.922 8.073-10.225 14.924-18.792 14.924v53.145c34.214 0 63.114-24.771 70.492-55.76zm-44.642 35.341v-26.572c-12.913 0-22.115-12.041-18.913-24.451l-25.73-6.64-25.729-6.639c-11.678 45.253 21.902 90.875 70.372 90.875zM28.06 918.484l25.637 6.988 233.441-856.57-25.637-6.988-25.638-6.987-233.44 856.57zM261.5 61.914l25.85 6.155c1.922-8.073 10.224-14.924 18.792-14.924V0c-34.215 0-63.114 24.77-70.492 55.76zm44.642-35.342v26.573c12.913 0 22.115 12.041 18.912 24.45l25.73 6.64 25.73 6.64C388.193 45.622 354.613 0 306.143 0zm44.642 57.663-25.649-6.946-36.271 133.926 25.648 6.946 25.649 6.947 36.272-133.926zm-36.272 133.926 20.099 17.383c27.174-31.42 55.82-48.473 86.856-48.473v-53.145c-52.667 0-94.705 29.45-127.053 66.853zm106.955-57.662v26.572c25.502 0 45.178 10.949 59.284 30.106 14.638 19.878 23.889 49.707 23.889 86.548h53.145c0-45.002-11.21-86.787-34.239-118.061-23.56-31.995-58.757-51.738-102.079-51.738zm109.745 143.226H504.64c0 69.407-32.258 149.221-91.652 221.851-59.146 72.326-143.808 135.715-245.212 172.63l9.09 24.969 9.09 24.97c110.645-40.279 203.157-109.421 268.172-188.925 64.766-79.199 103.657-170.514 103.657-255.495zm-354.346 419.45-25.632-7.01-59.522 217.63 25.631 7.011 25.631 7.01 59.523-217.63zm29.761-109.745 12.44 23.481c73.792-39.095 134.774-93.625 177.487-152.217 42.447-58.226 68.227-122.437 68.227-180.969h-53.146c0 43.774-19.792 97.214-58.026 149.662-37.969 52.083-92.777 101.254-159.422 136.562zm231.581-309.705h26.573c0-21.073-2.634-39.906-9.897-54.433-8.128-16.254-22.866-27.942-42.717-27.942v53.146c-1.001 0-2.714-.353-4.277-1.424-1.357-.93-1.286-1.502-.541-.012 1.805 3.609 4.286 12.677 4.286 30.665zm-26.041-55.802V221.35c-21.373 0-40.157 13.69-54.192 26.898-15.258 14.358-30.893 33.975-46.249 56.169-30.833 44.564-63.119 103.315-91.741 161.497l23.844 11.73 23.844 11.729c28.11-57.143 59.068-113.252 87.757-154.717 14.406-20.821 27.602-37.011 38.966-47.705 12.588-11.846 18.217-12.455 17.771-12.455zM243.83 477.644l-25.628-7.022L181 606.409l25.628 7.021 25.628 7.022 37.202-135.787zm569.579 100.444-10.467-24.424-.249.107-.245.111zm39.062 79.984 11.085 24.15.403-.184.396-.198zM665.532 612.5l-17.011-20.414-56.384 46.987h73.395zm-45.572-80.914-26.313-3.703-9.817 69.747 53.44-45.883zm193.449 46.502 10.468 24.425c4.762-2.042 7.53-2.502 9.063-2.502v-53.145c-11.487 0-21.74 3.259-29.998 6.798zm19.531-4.65v26.573c9.505 0 18.069 8.564 18.069 18.069h53.146c0-38.856-32.358-71.214-71.215-71.214zm44.642 44.642h-26.573c0 6.842-3.839 12.934-10.422 16.225l11.884 23.767 11.884 23.768c23.179-11.59 39.8-35.26 39.8-63.76zm-25.111 39.992-11.085-24.15c-53.612 24.609-115.881 39.43-173.994 39.43v53.145c66.513 0 136.31-16.801 196.164-44.275zm-185.079 41.852v-26.572c-29.778 0-58.58-4.783-79.48-19.624-19.125-13.581-36.244-38.943-36.244-91.45h-53.145c0 65.608 22.408 109.069 58.62 134.782 34.438 24.454 76.785 29.437 110.249 29.437zM525.096 562.278h26.572c0-74.799 35.162-166.315 85.957-239.71 25.209-36.426 53.466-67.191 81.664-88.585 28.541-21.654 54.755-32.031 76.449-32.031v-53.145c-37.828 0-75.206 17.524-108.571 42.837-33.708 25.574-65.672 60.842-93.242 100.68-54.766 79.132-95.402 181.064-95.402 269.954zm270.642-386.899v26.573c40.389 0 78.523 33.856 78.523 85.963h53.145c0-79.96-60.452-139.108-131.668-139.108zm105.095 112.536h-26.572c0 41.023-27.082 93.882-72.134 150.658-44.059 55.523-101.423 110.028-153.606 153.513l17.011 20.414 17.012 20.414c53.842-44.869 114.128-101.969 161.213-161.306 46.092-58.085 83.649-123.341 83.649-183.693zM665.532 612.5v26.573h1.86v-53.146h-1.86zm1.86 0v26.573c51.942 0 104.974-13.229 156.979-36.778l-10.962-24.207-10.961-24.206c-46.581 21.093-92.133 32.045-135.056 32.045zm-47.432-80.914 17.31 20.161c46.871-40.242 95.057-87.647 131.789-132.929 18.35-22.622 34.295-45.268 45.777-66.662 11.197-20.864 19.566-43.106 19.566-64.241h-53.146c0 8.161-3.606 21.144-13.248 39.11-9.357 17.435-23.114 37.222-40.223 58.313-34.183 42.141-79.932 87.276-125.135 126.087zm187.869-243.671h26.573c0-12.372-3.458-23.214-8.227-31.45-2.351-4.061-5.368-8.089-9.082-11.473-2.453-2.235-10.058-8.761-21.355-8.761v53.145c-5.341 0-9.15-1.724-10.818-2.605-1.885-.995-3.074-1.997-3.62-2.494-1.097-1-1.325-1.541-1.118-1.184.347.599 1.074 2.313 1.074 4.822zm-12.091-25.111v-26.573c-12.103 0-23.408 4.714-32.476 9.852-9.527 5.397-19.215 12.779-28.694 21.285-18.997 17.049-39.237 40.504-58.21 67.443-37.702 53.532-73.087 124.688-82.711 193.072l26.313 3.703 26.313 3.704c8.047-57.172 38.695-120.408 73.536-169.878 17.299-24.562 34.958-44.761 50.256-58.491 7.67-6.883 14.228-11.672 19.393-14.598 5.623-3.185 7.456-2.947 6.28-2.947zm708.532-89.285 25.59 7.169.02-.088.03-.089zm89.29 24.182 25.69 6.762.05-.158.04-.159zm-4.65 17.67 25.63 7.006.03-.122.03-.121zm-122.77 449.212-25.63-7.006-.12.424-.1.427zm-89.28-22.322-25.71-6.732-.01.046-.01.047zm10.23-39.061 25.7 6.732 24.21-92.417-68.45 66.646zm-200.89-19.531 25.34-8.002-16.63-52.664-30.78 45.859zM1009.49 179.1l25.63 7.023.11-.432.11-.437zm89.28 22.321 25.63 7.024.05-.192.05-.192zm116.26 103.235 25.1 8.712.19-.547.17-.554zm26.97-90.215 25.46 7.612.05-.156.04-.156zm86.49-7.44-24.04 11.315.13.286.15.283zm2.79 33.482 24.98 9.081.47-1.298.33-1.339zm-3.72 10.23-24.97-9.081-.43 1.188-.32 1.224zm-21.39 73.473-25.21-8.403-.18.565-.17.571zm198.1-150.667 25.64 6.992c2.52-9.235 9.94-14.831 19-14.831v-53.145c-33.71 0-61.63 22.305-70.27 53.993zm44.64-34.411v26.572c11.27 0 19.93 9.377 19.93 19.93h53.15c0-37.81-30.4-73.075-73.08-73.075zm46.51 46.502h-26.58c0-.149 0 .367-.22 1.677-.2 1.2-.49 2.571-.84 3.968l25.78 6.446 25.78 6.445c1.02-4.096 2.65-11.385 2.65-18.536zm-1.86 12.091-25.7-6.763-4.65 17.671 25.7 6.762 25.69 6.763 4.65-17.671zm-4.65 17.67-25.64-7.005-122.76 449.211 25.63 7.006 25.63 7.005 122.77-449.211zm-122.77 449.212-25.85-6.155c-1.92 8.072-10.22 14.924-18.79 14.924v53.145c34.21 0 63.11-24.771 70.49-55.76zm-44.64 35.341v-26.572c-12.91 0-22.12-12.041-18.91-24.451l-25.73-6.64-25.73-6.639c-11.68 45.253 21.9 90.875 70.37 90.875zm-44.64-57.663 25.7 6.733 10.23-39.062-25.7-6.732-25.71-6.733-10.23 39.062zm10.23-39.061-18.54-19.039c-33.23 32.351-63.16 46.409-86.56 46.409v53.145c43.56 0 86.18-25.005 123.63-61.477zm-105.1 53.942V630.57c-25.54 0-57.72-14.569-70.45-54.903l-25.34 8.002-25.34 8.002c20.74 65.691 75.99 92.044 121.13 92.044zm-95.79-73.473-22.07-14.807c-22.86 34.074-45.97 60.949-68.84 79.083-22.81 18.082-43.89 26.337-63.48 26.337v53.145c35.28 0 67.68-14.996 96.49-37.836 28.75-22.789 55.4-54.507 79.96-91.115zm-154.39 117.185v-26.572c-15.04 0-25.7-3.435-33.561-8.295-7.934-4.905-14.526-12.201-19.898-22.159-11.171-20.708-15.763-50.525-15.763-83.41h-53.146c0 35.938 4.709 76.339 22.136 108.643 8.928 16.549 21.46 31.457 38.724 42.13 17.338 10.719 37.948 16.236 61.508 16.236zm-95.795-140.436h26.573c0-121.137 37.722-247.298 72.532-374.295l-25.63-7.023-25.629-7.024c-34.017 124.115-74.419 258.366-74.419 388.342zM1009.49 179.1l25.85 6.154c1.92-8.072 10.22-14.923 18.79-14.923v-53.146c-34.21 0-63.113 24.771-70.492 55.76zm44.64-35.342v26.573c12.91 0 22.12 12.041 18.91 24.45l25.73 6.64 25.73 6.64c11.68-45.254-21.9-90.876-70.37-90.876zm44.64 57.663-25.62-7.024c-34.02 124.123-70.7 247.208-70.7 366.021h53.14c0-109.978 34.01-224.985 68.81-351.973zm-69.75 358.997h-26.57c0 17.775.23 31.597.73 41.156.24 4.632.59 9.067 1.16 12.687.25 1.583.76 4.479 1.88 7.527a28.8 28.8 0 0 0 4.4 7.901c2.5 3.169 9.46 10.314 21.19 10.314v-53.146c11.5 0 18.23 7.007 20.52 9.9 2.4 3.043 3.45 5.824 3.76 6.658.72 1.944.85 3.184.75 2.557-.13-.797-.37-2.989-.59-7.192-.42-8.112-.66-20.796-.66-38.362zm2.79 53.012v26.573c12.88 0 24.12-5.6 32.63-11.42 8.88-6.067 17.51-14.247 25.74-23.445 16.5-18.441 33.97-43.885 51.27-73.352 34.72-59.139 70.76-137.956 98.68-218.418l-25.1-8.712-25.11-8.713c-26.94 77.646-61.59 153.216-94.3 208.938-16.41 27.962-31.84 50.067-45.04 64.816-6.62 7.399-12.05 12.224-16.13 15.014-4.44 3.038-5.06 2.146-2.64 2.146zm183.22-308.774 25.46 7.611 26.97-90.214-25.46-7.612-25.46-7.611-26.97 90.214zm26.97-90.215 25.55 7.3c2.37-8.31 9.76-14.209 19.09-14.209v-53.145c-33.45 0-61.4 22.003-70.19 52.754zm44.64-33.481v26.572c8.48 0 14.82 4.437 17.81 10.784l24.04-11.315 24.05-11.315c-11.9-25.275-37.17-41.299-65.9-41.299zm41.85 26.041-23.76 11.884c.37.752.87 2.02 1.26 3.687.38 1.645.58 3.338.58 4.89h53.15c0-11.471-2.78-22.991-7.46-32.345zm4.65 20.461h-26.57c0 .602-.06 1.5-.26 2.715-.18 1.197-.46 2.484-.81 3.861l25.78 6.445 25.78 6.444c1.12-4.483 2.66-11.593 2.66-19.465zm-1.86 13.021-24.97-9.082-3.72 10.231 24.97 9.081 24.98 9.081 3.72-10.23zm-3.72 10.23-25.72-6.669c-6.43 24.787-12.77 47.408-20.88 71.739l25.21 8.403 25.21 8.404c8.63-25.892 15.31-49.773 21.91-75.208zm-21.39 73.473-25.56-7.267c-27.38 96.297-35.42 147.227-35.42 212.807h53.14c0-59.045 6.84-104.84 33.4-198.273zm-34.41 205.54h-26.57c0 17.596 2.38 30.948 6.13 40.887 1.86 4.923 4.24 9.523 7.28 13.439 1.48 1.914 3.51 4.177 6.18 6.237 1.49 1.158 7.8 6.002 17.21 6.002v-53.146c5.08 0 8.87 1.481 10.73 2.343 2.09.966 3.61 2.022 4.54 2.74 1.85 1.431 2.92 2.728 3.36 3.29.94 1.213.89 1.57.42.332-.9-2.384-2.71-9.028-2.71-22.124zm10.23 39.992v26.573c12.9 0 24.37-6.272 32.56-11.906 9.01-6.209 18.39-14.726 27.82-24.767 18.94-20.167 40.35-48.859 62.23-84.444 43.87-71.315 91.12-172.643 125.26-294.486l-25.59-7.169-25.59-7.168c-32.82 117.178-78.11 213.949-119.34 280.978-20.66 33.587-39.95 59.129-55.71 75.901-7.92 8.43-14.4 14.06-19.22 17.38-5.66 3.896-6.02 2.535-2.42 2.535zm703.64 98.585-25.54-7.358-.05.183-.05.183zm-89.29-24.181-25.53-7.358-.13.454-.12.459zm26.97-348.767 25.1-8.73-27.54-79.178-23.1 80.586zm-87.42-11.16 25.49 7.517 19.02-64.494-57.97 34.067zm-283.66 310.634h26.57c0-69.721 40.02-168.092 102.24-250.039 62.81-82.724 140.79-139.118 210.65-139.118v-53.145c-95.68 0-187.44 73.813-252.97 160.124-66.13 87.089-113.07 196.582-113.07 282.178zM1891.69 179.1v26.572c22.44 0 39.18 4.734 51.97 12.233 12.75 7.48 23.17 18.643 31.54 34.008 17.28 31.743 24.78 79.426 24.78 140.167h53.14c0-62.956-7.39-121.763-31.25-165.586-12.21-22.417-28.94-41.307-51.33-54.433-22.35-13.107-48.74-19.534-78.85-19.534zm134.86 212.98h-26.57c0 126.551-24.34 214.921-39.89 268.865l25.54 7.358 25.53 7.357c16.08-55.801 41.96-149.72 41.96-283.58zm-40.92 276.223-25.64-6.992c-2.52 9.235-9.94 14.831-19 14.831v53.145c33.71 0 61.63-22.305 70.27-53.993zm-44.64 34.411v-26.572c-10.44 0-19.93-9.494-19.93-19.93h-53.15c0 39.787 33.29 73.075 73.08 73.075zm-46.51-46.502h26.58c0-1.01.11-1.844 1.06-5.645l-25.78-6.445-25.78-6.445c-.91 3.638-2.65 10.245-2.65 18.535zm1.86-12.09 25.54 7.357c16.1-55.896 38.24-136.758 38.24-259.399h-53.15c0 115.45-20.64 190.835-36.16 244.684zm37.21-252.042h26.57c0-43.838-2.66-79.45-11.71-105.455l-25.1 8.73-25.09 8.73c5.83 16.777 8.75 44.408 8.75 87.995zm-10.24-96.725-25.54-7.322c-39.78 138.767-80.59 242.427-123.26 310.875-43.17 69.246-83.88 95.835-121.84 95.835v53.145c66.21 0 120.82-46.885 166.94-120.866 46.62-74.779 89.04-184.098 129.25-324.344zm-270.64 425.96v-26.572c-23.96 0-41.25-9.829-53.32-26.038-12.68-17.02-20.55-42.585-20.55-73.876h-53.15c0 39.392 9.81 77.071 31.08 105.623 21.87 29.363 54.8 47.436 95.94 47.436zm-7.44-126.486h-26.57c0 16.332 1.51 28.585 3.94 37.6 1.18 4.413 2.82 8.935 5.21 12.995 1.15 1.968 2.99 4.711 5.76 7.322 1.92 1.82 8.57 7.718 19.1 7.718v-53.146c5.37 0 9.51 1.642 12 2.953a24.6 24.6 0 0 1 5.4 3.85c2.1 1.986 3.2 3.77 3.57 4.401.81 1.386.71 1.723.27.09-.82-3.075-2.11-10.353-2.11-23.783zm7.44 39.062v26.573c10.23 0 19.4-3.872 26.6-8.15 7.5-4.459 14.95-10.6 22.27-17.925 14.64-14.663 30.79-36.123 47.81-64.838 34.13-57.57 73.49-147.198 112.03-277.839l-25.49-7.517-25.49-7.518c-37.73 127.911-75.56 213.131-106.76 265.772-15.65 26.39-29.21 43.875-39.7 54.382-5.26 5.26-9.24 8.259-11.82 9.794-2.89 1.717-2.47.693.55.693zm183.22-349.696-13.46-22.91c-50.23 29.516-100.67 86.22-138.27 146.77-37.42 60.254-65.5 129.739-65.5 186.774h53.14c0-42.479 22.15-101.806 57.5-158.736 35.18-56.636 80.07-105.492 120.05-128.988zm303.08 380.388-25.64-6.992-.04.142-.03.142zm-89.29-22.322-25.62-7.043-.05.201-.06.203zm128.35-466.882 25.62 7.044.05-.168.04-.168zm89.28 22.322 25.67 6.869.03-.115.03-.115zm-17.67 66.033-25.67-6.87 46.93 22.813zm203.68 1.86-25.11 8.676 19.59 56.708 28.83-52.615zm181.36 398.989-25.54-7.325-.05.166-.04.167zm-89.28-24.182-25.55-7.324-.12.438-.11.442zm-123.7-88.354 25.45 7.636.05-.139.04-.14zm-5.58 18.601-25.45-7.635-.05.167-.05.168zm-89.28-26.041-25.44-7.668-.19.608-.15.615zm41.85-215.77-26.56-.738-.01.14v.14zM2156.64 603.2v26.572h19.04l6.12-18.03zm-.93 0v-26.573h-20.3l-5.34 19.581zm-16.74 61.383-25.71-6.708c-2.66 10.19-10.14 15.477-18.93 15.477v53.145c33.99 0 61.85-22.615 70.35-55.207zm-44.64 35.341v-26.572c-12.92 0-22.12-12.041-18.92-24.451l-25.73-6.64-25.73-6.639c-11.67 45.253 21.91 90.875 70.38 90.875zm-44.65-57.663 25.63 7.044 128.34-466.882-25.62-7.044-25.62-7.043-128.35 466.882zm128.35-466.882 25.71 6.708c2.66-10.19 10.14-15.477 18.93-15.477v-53.145c-33.99 0-61.85 22.615-70.35 55.207zm44.64-35.341v26.572c12.92 0 22.12 12.041 18.91 24.451l25.73 6.64 25.73 6.639c11.68-45.253-21.9-90.875-70.37-90.875zm44.64 57.663-25.66-6.87-17.68 66.033 25.67 6.87 25.67 6.869 17.67-66.033zm-17.67 66.033 21.26 15.943c28.29-37.717 56.7-55.404 87.56-55.404v-53.145c-54.71 0-96.98 32.535-130.07 76.662zm108.82-66.033v26.572c26.17 0 56.69 12.209 69.75 49.997l25.11-8.676 25.12-8.677c-22.29-64.516-77.33-85.789-119.98-85.789zm94.86 67.893 23.31 12.769c36.93-67.401 77.62-106.172 122.71-106.172v-53.146c-77.67 0-131.85 65.394-169.32 133.78zm146.02-119.976v26.573c24.43 0 43.6 11.082 57.84 33.323 14.93 23.328 24.4 59.369 24.4 106.582h53.15c0-53.232-10.52-100.43-32.79-135.23-22.97-35.887-58.21-57.821-102.6-57.821zm108.82 166.478h-26.58c0 94.885-35.72 217.119-72.44 345.162l25.54 7.325 25.55 7.324c35.82-124.929 74.5-255.667 74.5-359.811zm-73.48 352.487-25.63-6.992c-2.52 9.235-9.95 14.83-19.01 14.83v53.146c33.72 0 61.64-22.305 70.28-53.993zm-44.64 34.411v-26.573c-10.44 0-19.93-9.494-19.93-19.929h-53.15c0 39.787 33.29 73.075 73.08 73.075zm-46.5-46.502h26.57c0 .149 0-.366.22-1.677.2-1.2.5-2.572.85-3.969l-25.78-6.445-25.78-6.444c-1.03 4.094-2.66 11.383-2.66 18.535zm1.86-12.091 25.54 7.325c35.79-124.79 70.78-242.614 70.78-335.63h-53.14c0 83.692-31.97 192.799-68.73 320.981zm69.75-328.305h26.57c0-30.144-4-52.861-9.4-68.925-2.67-7.934-5.9-14.887-9.63-20.436-1.82-2.712-4.25-5.83-7.41-8.591-2.17-1.901-9.15-7.674-19.66-7.674v53.145c-9.35 0-14.84-5.048-15.31-5.459-1.46-1.27-1.97-2.137-1.74-1.796.37.553 1.74 2.901 3.37 7.755 3.2 9.513 6.64 26.322 6.64 51.981zm-19.53-79.054V206.47c-17 0-31.17 9.117-41.36 17.983-10.74 9.35-20.97 21.848-30.5 35.521-19.15 27.469-38.3 63.798-55.56 100.744-34.57 73.957-63.69 155.013-72.03 183.972l25.53 7.357 25.54 7.357c7.46-25.913 35.54-104.36 69.1-176.187 16.8-35.947 34.45-69.08 51.02-92.851 8.32-11.946 15.69-20.512 21.79-25.821 6.66-5.794 8.59-4.93 6.47-4.93zM2421.7 552.047l-25.45-7.635-5.58 18.601 25.45 7.635 25.45 7.636 5.58-18.601zm-5.58 18.601-25.55-7.3c-2.37 8.311-9.76 14.209-19.09 14.209v53.145c33.45 0 61.41-22.003 70.19-52.754zm-44.64 33.482v-26.573c-10.44 0-19.93-9.494-19.93-19.929h-53.15c0 39.786 33.29 73.074 73.08 73.074zm-46.5-46.502h26.57c0-.603.06-1.501.26-2.715q.285-1.796.81-3.861l-25.78-6.445-25.78-6.445c-1.12 4.483-2.66 11.594-2.66 19.466zm1.86-13.021 25.44 7.667c20.65-68.506 41.98-165.28 42.98-222.979l-26.57-.458-26.57-.458c-.86 50.186-20.45 141.281-40.72 208.56zm41.85-215.77 26.56.738c.49-17.708-.59-31.907-3.73-42.624-1.57-5.334-4.17-11.693-8.96-17.175-5.26-6.037-13.54-11.224-24.1-11.224v53.145c-7.77 0-13.26-3.908-15.94-6.98-2.2-2.518-2.42-4.226-2-2.818.81 2.769 2.05 10.426 1.61 26.2zm-10.23-43.712v-26.573c-13.5 0-25.84 5.062-36.19 11.387-10.5 6.422-20.69 15.2-30.38 25.202-19.39 20.001-39.27 47.445-58.39 78.633-38.34 62.546-75.88 143.888-102.02 220.883l25.16 8.543 25.16 8.542c25.01-73.672 60.95-151.368 97.01-210.192 18.08-29.498 35.63-53.322 51.24-69.418 7.8-8.047 14.5-13.525 19.94-16.847 5.59-3.418 8.25-3.588 8.47-3.588zM2156.64 603.2v-26.573h-.93v53.145h.93zm-.93 0-25.64-6.992-16.74 61.383 25.64 6.992 25.63 6.991 16.75-61.383zm625.42-227.861-11.88 23.767.99.494 1.03.411zm32.56-82.774-6.45 25.779 23.71 5.928 7.89-23.133zm27.9-81.844 25.15 8.574.16-.466.14-.472zm87.42 27.901-24.67-9.868-.28.688-.23.703zm-31.62 93.935-25.18-8.478-7.16 21.262 19.76 10.622zm-111.61 44.642 25.34 8.014 7.44-23.523-22.91-9.163zm40.93 239.951-25.78-6.444-9.37 37.472 38.34-4.648zm42.78-198.099 13.39-22.953-28.89-16.85-9.89 31.946zm-88.36-43.712 11.89-23.767c-6.58-3.292-10.42-9.383-10.42-16.225h-53.15c0 28.5 16.62 52.17 39.8 63.759zm-25.11-39.992h26.58c0-9.505 8.56-18.069 18.07-18.069v-53.146c-38.86 0-71.22 32.358-71.22 71.215zm44.65-44.642v26.573c.6 0 1.5.064 2.71.256 1.2.189 2.48.466 3.86.81l6.45-25.779 6.44-25.779c-4.48-1.121-11.59-2.654-19.46-2.654zm13.02 1.86 25.15 8.574 27.9-81.844-25.15-8.574-25.15-8.574-27.91 81.844zm27.9-81.844 25.45 7.636c2.32-7.73 9.91-13.615 18.26-13.615v-53.145c-32.58 0-60.32 22.016-69.16 51.489zm43.71-32.551v26.572c10.44 0 19.93 9.494 19.93 19.93h53.14c0-39.787-33.28-73.075-73.07-73.075zm46.5 46.502h-26.57c0 1.017-.19 2.326-.89 4.082l24.67 9.868 24.67 9.869c3.02-7.545 4.69-15.535 4.69-23.819zm-2.79 13.95-25.18-8.477-31.62 93.934 25.18 8.478 25.18 8.478 31.63-93.935zm-31.62 93.935-12.58 23.406c73.24 39.366 122.72 83.772 122.72 153.302h53.15c0-101.597-75.14-159.496-150.71-200.114zm136.72 176.708h-26.58c0 55.385-31.59 97.055-73.07 126.113-42.26 29.601-90.05 42.624-112.4 42.624v53.145c35.31 0 93.54-17.669 142.89-52.241 50.13-35.115 95.73-91.099 95.73-169.641zm-212.05 195.309v-26.572c-17.57 0-32.11-5.92-42.31-16.573-10.2-10.64-18.54-28.616-18.54-57.299h-53.15c0 39.21 11.65 71.455 33.31 94.065 21.65 22.596 50.82 32.952 80.69 32.952zm-87.43-100.444h26.58c0-21.946 4.98-53.463 14.05-92.038 8.98-38.156 21.55-81.631 35.86-126.879l-25.34-8.014-25.33-8.014c-14.52 45.897-27.52 90.775-36.92 130.743-9.3 39.548-15.47 75.925-15.47 104.202zm51.15-226.931 9.87-24.672-4.65-1.86-9.87 24.672-9.86 24.672 4.65 1.86zm40.93 239.951 3.19 26.38c20.34-2.465 53.15-14.399 81.15-34.771 28.16-20.495 56.62-53.514 56.62-99.494h-53.14c0 21.913-13.39 40.977-34.75 56.522-21.53 15.666-45.92 23.729-56.27 24.984zm114.39-107.885h26.57c0-52.764-39.21-86.576-84.79-113.167l-13.39 22.953-13.39 22.953c43.7 25.492 58.43 45.622 58.43 67.261zm-71.61-90.214-25.39-7.857c-12.17 39.344-22.84 76.738-30.48 109.328-7.52 32.112-12.56 61.328-12.56 83.608h53.15c0-15.852 3.8-40.114 11.16-71.478 7.24-30.885 17.5-66.964 29.5-105.744zm-41.85 185.079h-26.58c0 1.673 0 2.898-.01 3.945-.01 1.031-.03 1.646-.06 2.051-.01.189-.02.307-.02.373-.01.033-.01.055-.01.067v.017-.005q0-.005 0 0c0 .006-.01.044-.03.128l25.78 6.444 25.78 6.445c1.86-7.462 1.72-13.645 1.72-19.465z" mask="url(#a)"/>
</svg>
