<svg xmlns="http://www.w3.org/2000/svg" width="952" height="501" fill="none" viewBox="0 0 952 501">
    <path fill="#7f42e1" d="M64.627 500.933V90.825H.002V0H234.05v90.825h-64.625v410.108zm191.081 0V0h201.91v87.331h-97.112v108.99h81.392v87.331h-81.392v129.949h97.112v87.332zm226.363 0V0h218.328v90.825H586.868v95.715h12.925c84.887 0 127.504 36.679 127.504 147.764v14.323c0 119.818-47.159 152.306-127.504 152.306zm106.893-82.092c23.056 0 32.837-15.37 32.837-60.084v-35.282c0-41.919-7.336-54.844-32.138-54.844h-2.795v150.21zm160.69 82.092V0h201.91v87.331h-97.112v108.99h81.392v87.331h-81.392v129.949h97.112v87.332z"/>
</svg>
